M48
; DRILL file {KiCad 8.0.8} date 2025-06-27T17:20:46+0800
; FORMAT={-:-/ absolute / inch / decimal}
; #@! TF.CreationDate,2025-06-27T17:20:46+08:00
; #@! TF.GenerationSoftware,Kicad,Pcbnew,8.0.8
; #@! TF.FileFunction,Plated,1,2,PTH
FMAT,2
INCH
; #@! TA.AperFunction,Plated,PTH,ViaDrill
T1C0.0118
; #@! TA.AperFunction,Plated,PTH,ComponentDrill
T2C0.0276
; #@! TA.AperFunction,Plated,PTH,ComponentDrill
T3C0.0673
; #@! TA.AperFunction,Plated,PTH,ComponentDrill
T4C0.1181
; #@! TA.AperFunction,Plated,PTH,ComponentDrill
T5C0.1614
%
G90
G05
T1
X12.1486Y-0.2687
X12.2165Y-3.8976
X12.2165Y-3.9252
X12.2402Y-3.5315
X12.2402Y-3.5591
X12.2441Y-0.189
X12.2441Y-0.2165
X12.2441Y-3.8976
X12.2441Y-3.9252
X12.2657Y-4.815
X12.2677Y-3.5315
X12.2677Y-3.5591
X12.2717Y-0.189
X12.2717Y-0.2165
X12.2795Y-1.811
X12.3976Y-1.378
X12.3976Y-1.4173
X12.4252Y-2.5472
X12.4252Y-2.5748
X12.437Y-1.378
X12.437Y-1.4173
X12.4528Y-2.5472
X12.4528Y-2.5748
X12.4803Y-0.6732
X12.4803Y-0.7126
X12.5118Y-2.4134
X12.5118Y-2.4409
X12.5197Y-0.6732
X12.5197Y-0.7126
X12.5197Y-4.374
X12.5197Y-4.4134
X12.5295Y-3.3386
X12.5394Y-2.4134
X12.5394Y-2.4409
X12.5433Y-1.9606
X12.5433Y-1.9882
X12.5591Y-4.374
X12.5591Y-4.4134
X12.5709Y-1.9606
X12.5709Y-1.9882
X12.5984Y-2.126
X12.5984Y-2.1654
X12.6378Y-2.126
X12.6378Y-2.1654
X12.6398Y-1.8031
X12.6417Y-1.0945
X12.6457Y-4.0354
X12.6457Y-4.063
X12.6713Y-0.2677
X12.6732Y-4.0354
X12.6732Y-4.063
X12.6811Y-4.937
X12.7126Y-2.874
X12.7126Y-2.9134
X12.752Y-2.874
X12.752Y-2.9134
X12.8287Y-0.5807
X12.8425Y-2.6339
X12.874Y-1.0945
X12.8777Y-1.8622
X12.8839Y-1.6988
X12.9016Y-1.9213
X12.9055Y-2.5197
X12.9055Y-2.6102
X12.9055Y-3.3937
X12.9134Y-3.622
X12.9134Y-3.6614
X12.9291Y-3.3091
X12.9528Y-3.622
X12.9528Y-3.6614
X12.956Y-2.561
X13.0Y-1.6988
X13.0551Y-0.1732
X13.0551Y-0.2008
X13.0827Y-0.1732
X13.0827Y-0.2008
X13.126Y-0.5709
X13.128Y-4.1319
X13.1339Y-2.687
X13.1352Y-2.5591
X13.1378Y-0.9094
X13.1378Y-0.937
X13.1555Y-3.2756
X13.1654Y-0.9094
X13.1654Y-0.937
X13.1822Y-3.2756
X13.189Y-1.378
X13.189Y-1.4173
X13.189Y-4.0157
X13.1929Y-4.1102
X13.1969Y-4.2835
X13.2089Y-3.2756
X13.2283Y-1.378
X13.2283Y-1.4173
X13.2356Y-3.2756
X13.2362Y-0.9094
X13.2362Y-0.937
X13.2375Y-4.0571
X13.2623Y-3.2756
X13.2638Y-0.9094
X13.2638Y-0.937
X13.2889Y-3.2756
X13.2913Y-0.5709
X13.2953Y-4.811
X13.2992Y-1.9547
X13.3071Y-2.689
X13.311Y-0.2461
X13.313Y-0.4862
X13.3858Y-0.6299
X13.3858Y-0.6575
X13.3898Y-1.8031
X13.3902Y-3.3661
X13.4134Y-0.6299
X13.4134Y-0.6575
X13.4449Y-0.1732
X13.4449Y-0.2008
X13.4646Y-4.3701
X13.4646Y-4.4094
X13.4724Y-0.1732
X13.4724Y-0.2008
X13.4764Y-1.9547
X13.5039Y-4.3701
X13.5039Y-4.4094
X13.5433Y-2.126
X13.5433Y-2.1654
X13.5728Y-1.3355
X13.5807Y-0.4862
X13.5807Y-3.3248
X13.5827Y-2.126
X13.5827Y-2.1654
X13.5984Y-0.3366
X13.5995Y-1.3355
X13.6188Y-1.8622
X13.6299Y-0.1291
X13.6614Y-0.8703
X13.6772Y-4.8937
X13.7008Y-0.1772
X13.7008Y-0.2047
X13.7283Y-0.1772
X13.7283Y-0.2047
X13.7402Y-2.8701
X13.7402Y-2.9094
X13.7638Y-1.815
X13.7795Y-2.8701
X13.7795Y-2.9094
X13.7913Y-0.2461
X13.8031Y-2.6378
X13.8169Y-1.0709
X13.8169Y-1.1201
X13.8189Y-1.0197
X13.8209Y-0.9705
X13.8228Y-0.9193
X13.8543Y-0.8583
X13.8543Y-0.8858
X13.8819Y-0.8583
X13.8819Y-0.8858
X13.9016Y-1.0197
X13.9035Y-0.9705
X13.9219Y-1.0709
X13.937Y-1.3819
X13.937Y-1.4213
X13.9528Y-3.3071
X13.9764Y-0.6693
X13.9764Y-0.7087
X13.9764Y-1.3819
X13.9764Y-1.4213
X14.002Y-4.1161
X14.0157Y-0.6693
X14.0157Y-0.7087
X14.0256Y-1.1203
X14.0354Y-1.2205
X14.0433Y-0.8701
X14.0453Y-0.9449
X14.0945Y-1.1378
X14.1339Y-3.626
X14.1339Y-3.6654
X14.1417Y-1.1476
X14.1457Y-1.8031
X14.1634Y-0.248
X14.1654Y-1.2205
X14.1654Y-1.248
X14.1732Y-3.626
X14.1732Y-3.6654
X14.1929Y-1.2205
X14.1929Y-1.248
X14.1949Y-4.8228
X14.2008Y-0.8583
X14.2008Y-1.1476
X14.227Y-3.3661
X14.2776Y-1.1476
X14.2953Y-2.126
X14.2953Y-2.1654
X14.3209Y-0.8734
X14.3346Y-2.126
X14.3346Y-2.1654
X14.3465Y-3.3307
X14.3524Y-4.1299
X14.3543Y-0.9193
X14.3858Y-0.9449
X14.3878Y-0.8937
X14.4055Y-4.3661
X14.4055Y-4.4055
X14.4442Y-1.8622
X14.4449Y-4.3661
X14.4449Y-4.4055
X14.4882Y-2.874
X14.4882Y-2.9134
X14.498Y-1.0197
X14.502Y-1.0709
X14.5079Y-1.2205
X14.5118Y-1.1201
X14.5276Y-2.874
X14.5276Y-2.9134
X14.5315Y-2.626
X14.5335Y-1.813
X14.5925Y-1.1203
X14.5945Y-1.0703
X14.5965Y-1.0203
X14.6043Y-0.9705
X14.628Y-4.8091
X14.6391Y-2.5571
X14.685Y-1.4528
X14.685Y-1.4921
X14.7067Y-3.3071
X14.7303Y-0.8701
X14.7461Y-0.9449
X14.7638Y-0.6693
X14.7638Y-0.7087
X14.7913Y-0.9213
X14.8031Y-0.6693
X14.8031Y-0.7087
X14.8228Y-1.1444
X14.8819Y-3.622
X14.8819Y-3.6614
X14.8898Y-1.1444
X14.8917Y-1.8031
X14.9213Y-3.622
X14.9213Y-3.6614
X14.935Y-0.2441
X14.9469Y-2.6142
X14.9475Y-3.3622
X14.9626Y-1.1444
X15.0276Y-1.1713
X15.0433Y-0.9213
X15.0433Y-2.126
X15.0433Y-2.1654
X15.0827Y-2.126
X15.0827Y-2.1654
X15.0925Y-3.311
X15.1122Y-4.1457
X15.1409Y-1.8661
X15.1969Y-1.2205
X15.2323Y-2.874
X15.2323Y-2.9134
X15.2717Y-2.874
X15.2717Y-2.9134
X15.2776Y-1.8169
X15.2894Y-2.626
X15.397Y-2.5571
X15.3976Y-0.9449
X15.4193Y-0.8701
X15.4291Y-1.3819
X15.4291Y-1.4213
X15.4331Y-1.2087
X15.4508Y-3.3031
X15.4685Y-1.3819
X15.4685Y-1.4213
X15.5059Y-1.1444
X15.5118Y-0.6693
X15.5118Y-0.7087
X15.5512Y-0.6693
X15.5512Y-0.7087
X15.6299Y-3.622
X15.6299Y-3.6614
X15.6365Y-1.1713
X15.6398Y-1.8071
X15.6476Y-1.1444
X15.6693Y-3.622
X15.6693Y-3.6614
X15.6752Y-0.2559
X15.6818Y-3.3661
X15.6929Y-2.6201
X15.7539Y-0.9213
X15.7559Y-1.2205
X15.7835Y-2.126
X15.7835Y-2.1654
X15.8228Y-2.126
X15.8228Y-2.1654
X15.8386Y-3.3228
X15.8484Y-4.126
X15.9423Y-1.8602
X15.9843Y-2.8701
X15.9843Y-2.9094
X16.0236Y-2.8701
X16.0236Y-2.9094
X16.0315Y-2.6319
X16.0315Y-5.0591
X16.0315Y-5.0866
X16.0374Y-1.815
X16.0591Y-5.0591
X16.0591Y-5.0866
X16.0906Y-0.9449
X16.1043Y-0.8701
X16.1161Y-1.1713
X16.122Y-1.2205
X16.143Y-2.561
X16.1772Y-1.3819
X16.1772Y-1.4213
X16.1929Y-1.1444
X16.1988Y-3.3071
X16.2165Y-1.3819
X16.2165Y-1.4213
X16.2598Y-0.6693
X16.2598Y-0.7087
X16.2677Y-1.1444
X16.2953Y-1.2126
X16.2953Y-1.2402
X16.2992Y-0.6693
X16.2992Y-0.7087
X16.3228Y-1.2126
X16.3228Y-1.2402
X16.3228Y-3.0866
X16.3228Y-3.1142
X16.3307Y-4.5039
X16.3307Y-4.5315
X16.3327Y-1.1444
X16.3386Y-2.4488
X16.3386Y-2.4764
X16.3504Y-3.0866
X16.3504Y-3.1142
X16.3583Y-4.5039
X16.3583Y-4.5315
X16.3661Y-2.4488
X16.3661Y-2.4764
X16.3701Y-1.2205
X16.3819Y-3.622
X16.3819Y-3.6614
X16.3858Y-4.5669
X16.3937Y-1.8031
X16.4193Y-0.2598
X16.4213Y-3.622
X16.4213Y-3.6614
X16.4278Y-3.3661
X16.4331Y-1.2205
X16.439Y-0.9213
X16.4409Y-4.6142
X16.4409Y-4.6417
X16.4429Y-2.6161
X16.4488Y-4.8661
X16.4685Y-4.6142
X16.4685Y-4.6417
X16.5394Y-2.126
X16.5394Y-2.1654
X16.5787Y-2.126
X16.5787Y-2.1654
X16.5866Y-3.315
X16.5945Y-4.1339
X16.684Y-1.2697
X16.684Y-1.8602
X16.7362Y-2.874
X16.7362Y-2.9134
X16.7657Y-0.9449
X16.7677Y-1.8189
X16.7717Y-1.2205
X16.7756Y-2.874
X16.7756Y-2.9134
X16.7854Y-0.8701
X16.7874Y-2.6299
X16.8543Y-1.2165
X16.878Y-1.1444
X16.895Y-2.5571
X16.9291Y-1.378
X16.9291Y-1.4173
X16.9508Y-3.3071
X16.9547Y-1.1444
X16.9685Y-1.378
X16.9685Y-1.4173
X16.9961Y-4.8209
X17.0217Y-1.1444
X17.1083Y-0.9213
X17.1161Y-1.2224
X17.126Y-3.622
X17.126Y-3.6614
X17.1398Y-1.8031
X17.1654Y-3.622
X17.1654Y-3.6614
X17.189Y-2.6161
X17.2047Y-4.3701
X17.2047Y-4.4094
X17.2087Y-3.3661
X17.2441Y-4.3701
X17.2441Y-4.4094
X17.2913Y-2.126
X17.2913Y-2.1654
X17.3307Y-2.126
X17.3307Y-2.1654
X17.3346Y-3.3189
X17.3386Y-4.1378
X17.3622Y-4.9252
X17.3622Y-4.9528
X17.3688Y-1.2618
X17.3688Y-1.8622
X17.3898Y-4.9252
X17.3898Y-4.9528
X17.4016Y-0.6732
X17.4016Y-0.7126
X17.4409Y-0.6732
X17.4409Y-0.7126
X17.4488Y-1.1969
X17.4567Y-0.9449
X17.4665Y-0.8701
X17.4803Y-2.874
X17.4803Y-2.9134
X17.5177Y-1.8091
X17.5177Y-2.624
X17.5197Y-2.874
X17.5197Y-2.9134
X17.5394Y-0.2539
X17.565Y-1.1444
X17.6302Y-2.5571
X17.6339Y-1.1444
X17.6772Y-1.378
X17.6772Y-1.4173
X17.7008Y-3.3071
X17.7067Y-1.1444
X17.7165Y-1.378
X17.7165Y-1.4173
X17.7756Y-0.9213
X17.8031Y-3.9961
X17.8071Y-1.2224
X17.8661Y-3.622
X17.8661Y-3.6614
X17.8937Y-1.8031
X17.9055Y-3.622
X17.9055Y-3.6614
X17.9259Y-3.3661
X17.937Y-2.6201
X18.0354Y-2.126
X18.0354Y-2.1654
X18.0748Y-2.126
X18.0748Y-2.1654
X18.0866Y-3.3228
X18.1024Y-4.1339
X18.1398Y-0.9449
X18.1496Y-0.6693
X18.1496Y-0.7087
X18.1496Y-1.1929
X18.1575Y-0.8701
X18.1699Y-1.8661
X18.185Y-1.2238
X18.189Y-0.6693
X18.189Y-0.7087
X18.2323Y-2.874
X18.2323Y-2.9134
X18.25Y-1.1444
X18.2717Y-2.874
X18.2717Y-2.9134
X18.2756Y-2.6378
X18.2815Y-0.2618
X18.2835Y-1.8209
X18.3268Y-1.1444
X18.3878Y-1.1444
X18.4252Y-1.378
X18.4252Y-1.4173
X18.4626Y-3.3091
X18.4646Y-1.378
X18.4646Y-1.4173
X18.4685Y-0.9213
X18.476Y-2.561
X18.4921Y-1.2205
X18.5512Y-4.0079
X18.622Y-3.6181
X18.622Y-3.6575
X18.6424Y-3.3661
X18.6516Y-1.8071
X18.6614Y-3.6181
X18.6614Y-3.6575
X18.6929Y-2.6161
X18.7835Y-2.126
X18.7835Y-2.1654
X18.8228Y-2.126
X18.8228Y-2.1654
X18.8248Y-3.3327
X18.8268Y-0.9449
X18.8307Y-1.1929
X18.8404Y-0.8703
X18.8504Y-4.1555
X18.8661Y-1.2238
X18.8976Y-0.6693
X18.8976Y-0.7087
X18.9145Y-1.8681
X18.935Y-1.1444
X18.937Y-0.6693
X18.937Y-0.7087
X18.9764Y-2.874
X18.9764Y-2.9134
X19.0059Y-1.1444
X19.0157Y-2.874
X19.0157Y-2.9134
X19.0295Y-1.8228
X19.0531Y-2.6378
X19.0571Y-0.2441
X19.0591Y-1.3425
X19.0591Y-1.3819
X19.0768Y-1.1444
X19.0984Y-1.3425
X19.0984Y-1.3819
X19.1693Y-0.9213
X19.1752Y-1.2205
X19.2028Y-3.3091
X19.2992Y-3.9961
X19.3701Y-3.622
X19.3701Y-3.6614
X19.3714Y-2.6142
X19.3917Y-1.8071
X19.4094Y-3.622
X19.4094Y-3.6614
X19.414Y-3.3661
X19.4409Y-2.6142
X19.5157Y-1.1969
X19.5217Y-0.9429
X19.5276Y-0.8701
X19.5512Y-1.2223
X19.5512Y-2.126
X19.5512Y-2.1654
X19.5906Y-2.126
X19.5906Y-2.1654
X19.6004Y-4.1299
X19.6043Y-3.315
X19.6201Y-1.1444
X19.6417Y-0.6693
X19.6417Y-0.7087
X19.6811Y-0.6693
X19.6811Y-0.7087
X19.6929Y-1.1444
X19.6975Y-1.8602
X19.7244Y-2.878
X19.7244Y-2.9173
X19.7559Y-4.8228
X19.7579Y-1.1444
X19.7638Y-2.878
X19.7638Y-2.9173
X19.7717Y-1.8189
X19.7972Y-0.2618
X19.8071Y-2.6457
X19.8386Y-1.2205
X19.8445Y-0.9213
X19.9213Y-1.378
X19.9213Y-1.4173
X19.9252Y-4.3701
X19.9252Y-4.4094
X19.9606Y-1.378
X19.9606Y-1.4173
X19.9646Y-4.3701
X19.9646Y-4.4094
X19.9777Y-2.5571
X20.0354Y-3.9803
X20.063Y-1.2205
X20.0827Y-4.937
X20.1004Y-0.2605
X20.1063Y-0.3661
X20.1063Y-0.3937
X20.1181Y-3.626
X20.1181Y-3.6654
X20.1339Y-0.3661
X20.1339Y-0.3937
X20.1535Y-0.1969
X20.1575Y-3.626
X20.1575Y-3.6654
X20.1791Y-0.3543
X20.185Y-2.6161
X20.1929Y-0.1969
X20.1995Y-0.4094
X20.2087Y-0.9449
X20.2106Y-1.252
X20.2165Y-0.8701
X20.2559Y-0.9193
X20.2638Y-1.1457
X20.2756Y-2.126
X20.2756Y-2.1654
X20.3071Y-0.8701
X20.3084Y-0.9449
X20.315Y-2.126
X20.315Y-2.1654
X20.3346Y-3.3209
X20.3563Y-4.1535
X20.4471Y-0.8701
X20.4471Y-0.9449
X20.4472Y-1.1457
X20.4803Y-0.1693
X20.4803Y-0.1969
X20.502Y-1.8287
X20.5079Y-0.1693
X20.5079Y-0.1969
X20.5118Y-2.874
X20.5118Y-2.9134
X20.5138Y-4.8189
X20.5157Y-1.2028
X20.5236Y-0.9203
X20.5276Y-2.689
X20.5512Y-2.874
X20.5512Y-2.9134
X20.6693Y-4.3701
X20.6693Y-4.4094
X20.6732Y-1.378
X20.6732Y-1.4173
X20.7087Y-4.3701
X20.7087Y-4.4094
X20.7126Y-1.378
X20.7126Y-1.4173
X20.748Y-0.6693
X20.748Y-0.7087
X20.7598Y-0.9705
X20.7598Y-1.0197
X20.7598Y-1.0689
X20.7598Y-1.1181
X20.7795Y-3.9921
X20.7874Y-0.6693
X20.7874Y-0.7087
X20.8346Y-4.937
X20.8661Y-3.622
X20.8661Y-3.6614
X20.8839Y-0.8701
X20.8917Y-0.9449
X20.9035Y-0.2657
X20.9055Y-3.622
X20.9055Y-3.6614
X20.9528Y-0.8701
X20.9528Y-0.9182
X20.9528Y-0.9449
X20.9528Y-1.0591
X20.9882Y-1.1594
X21.0276Y-2.1299
X21.0276Y-2.1693
X21.0315Y-1.0846
X21.058Y-1.0813
X21.0669Y-2.1299
X21.0669Y-2.1693
X21.0787Y-3.3209
X21.0846Y-1.0804
X21.1201Y-4.128
X21.122Y-1.1319
X21.1535Y-0.8104
X21.1811Y-0.8104
X21.2539Y-4.8346
X21.2598Y-2.874
X21.2598Y-2.9134
X21.2657Y-1.8228
X21.2972Y-2.6358
X21.2992Y-2.874
X21.2992Y-2.9134
X21.4173Y-4.3701
X21.4173Y-4.4094
X21.4213Y-1.378
X21.4213Y-1.4173
X21.4409Y-5.0354
X21.4409Y-5.063
X21.4567Y-4.3701
X21.4567Y-4.4094
X21.4606Y-1.378
X21.4606Y-1.4173
X21.4685Y-5.0354
X21.4685Y-5.063
X21.4961Y-0.6693
X21.4961Y-0.7087
X21.5039Y-0.8701
X21.5315Y-1.0551
X21.5354Y-0.6693
X21.5354Y-0.7087
X21.5354Y-0.8701
X21.563Y-1.0551
X21.5669Y-0.8701
X21.5866Y-4.9488
X21.5906Y-1.0551
X21.6752Y-0.2677
X21.7677Y-2.126
X21.7677Y-2.1654
X21.8071Y-2.126
X21.8071Y-2.1654
X21.8819Y-3.9961
X22.0079Y-3.622
X22.0079Y-3.6614
X22.0472Y-3.622
X22.0472Y-3.6614
X22.0512Y-1.0591
X22.065Y-2.689
X22.0866Y-0.9409
X22.0906Y-1.0591
X22.126Y-0.9409
X22.1575Y-1.0433
X22.2402Y-0.6693
X22.2402Y-0.7087
X22.2421Y-4.126
X22.2795Y-0.6693
X22.2795Y-0.7087
X22.3139Y-1.0492
X22.3307Y-3.315
X22.3425Y-1.0328
X22.376Y-4.9961
X22.3878Y-1.8189
X22.4094Y-0.2638
X22.437Y-1.0748
X22.4449Y-2.874
X22.4449Y-2.9134
X22.4843Y-2.874
X22.4843Y-2.9134
X22.4882Y-0.8858
X22.5197Y-1.0984
X22.5551Y-1.378
X22.5551Y-1.4173
X22.5591Y-1.0984
X22.5591Y-4.563
X22.5591Y-4.6024
X22.5945Y-1.378
X22.5945Y-1.4173
X22.5984Y-4.563
X22.5984Y-4.6024
X22.6732Y-0.9409
X22.7126Y-0.9409
X22.7165Y-5.0945
X22.7205Y-2.1299
X22.7205Y-2.1693
X22.7598Y-2.1299
X22.7598Y-2.1693
X22.7795Y-1.8031
X22.8051Y-1.1319
X22.8543Y-0.7795
X22.8543Y-0.8071
X22.8819Y-0.7795
X22.8819Y-0.8071
X22.9193Y-4.0571
X22.9764Y-2.626
X22.9882Y-0.6299
X22.9882Y-0.6693
X22.9921Y-2.5571
X23.0512Y-4.1988
X23.0827Y-0.7756
X23.0827Y-0.8031
X23.0866Y-0.9055
X23.0866Y-0.9331
X23.0906Y-0.3858
X23.0906Y-0.4134
X23.1102Y-0.7756
X23.1102Y-0.8031
X23.1142Y-0.9055
X23.1142Y-0.9331
X23.1142Y-1.1181
X23.1181Y-0.3858
X23.1181Y-0.4134
X23.1319Y-4.1673
X23.1398Y-5.0039
X23.1535Y-4.2441
X23.1791Y-4.3071
X23.2008Y-0.8346
X23.2559Y-1.0787
X23.2559Y-1.1063
X23.2835Y-1.0787
X23.2835Y-1.1063
X23.2868Y-1.8661
X23.3071Y-3.8189
X23.3071Y-3.8583
X23.3071Y-4.563
X23.3071Y-4.6024
X23.3091Y-1.7756
X23.3248Y-0.2677
X23.3248Y-0.8386
X23.329Y-1.4488
X23.329Y-1.4757
X23.3327Y-1.3583
X23.3425Y-3.4311
X23.3465Y-3.8189
X23.3465Y-3.8583
X23.3465Y-4.563
X23.3465Y-4.6024
X23.374Y-0.1535
X23.3858Y-0.3268
X23.3898Y-0.4724
X23.3937Y-1.7953
X23.3937Y-1.8228
X23.3972Y-3.4685
X23.4094Y-0.5906
X23.4213Y-1.7953
X23.4213Y-1.8228
X23.4239Y-3.4685
X23.4291Y-1.311
X23.4291Y-1.3583
X23.4506Y-3.4685
X23.4587Y-1.9547
X23.4685Y-2.689
X23.4722Y-2.5551
X23.4773Y-3.4685
X23.4823Y-1.1791
X23.5039Y-3.4685
X23.5197Y-1.4285
X23.5197Y-5.0945
X23.5217Y-0.4193
X23.5324Y-3.4685
X23.5591Y-3.4685
X23.563Y-1.2213
X23.563Y-1.248
X23.563Y-1.628
X23.5669Y-0.5118
X23.5833Y-1.6024
X23.5866Y-4.2874
X23.5906Y-0.2677
X23.5906Y-0.2953
X23.5906Y-3.4665
X23.5945Y-0.1457
X23.5945Y-0.1732
X23.6109Y-3.3622
X23.6181Y-0.2677
X23.6181Y-0.2953
X23.6201Y-2.689
X23.622Y-0.1457
X23.622Y-0.1732
X23.622Y-1.1328
X23.622Y-1.9547
X23.6339Y-3.4409
X23.6487Y-1.1328
X23.6732Y-1.7244
X23.6732Y-1.752
X23.6804Y-1.565
X23.685Y-0.5118
X23.7008Y-1.2047
X23.7008Y-1.2323
X23.7008Y-1.5965
X23.7008Y-1.7244
X23.7008Y-1.752
X23.7008Y-2.2835
X23.7008Y-2.3228
X23.7087Y-0.7165
X23.7087Y-0.7441
X23.7224Y-0.4193
X23.7283Y-1.2047
X23.7283Y-1.2323
X23.7323Y-1.5354
X23.7362Y-0.7165
X23.7362Y-0.7441
X23.7402Y-2.2835
X23.7402Y-2.3228
X23.7913Y-0.4461
X23.8189Y-0.6535
X23.8189Y-0.6811
X23.8248Y-1.6988
X23.8465Y-0.6535
X23.8465Y-0.6811
X23.8504Y-0.1535
X23.8543Y-1.4528
X23.8583Y-1.5236
X23.8622Y-0.3346
X23.8701Y-1.2461
X23.8747Y-4.25
X23.8878Y-5.0059
X23.9574Y-3.3622
X23.9587Y-1.4488
X23.9606Y-1.5591
X23.9685Y-1.6969
X24.0472Y-0.8622
X24.0551Y-4.5669
X24.0551Y-4.6063
X24.0709Y-0.1693
X24.0709Y-0.1969
X24.0866Y-1.8209
X24.0945Y-3.3091
X24.0945Y-4.5669
X24.0945Y-4.6063
X24.0984Y-0.1693
X24.0984Y-0.1969
X24.1024Y-4.1831
X24.1299Y-3.9882
X24.1772Y-4.1594
X24.2126Y-2.126
X24.2126Y-2.1654
X24.252Y-1.374
X24.252Y-1.4134
X24.252Y-2.126
X24.252Y-2.1654
X24.252Y-2.874
X24.252Y-2.9134
X24.252Y-3.626
X24.252Y-3.6654
X24.2913Y-1.374
X24.2913Y-1.4134
X24.2913Y-2.874
X24.2913Y-2.9134
X24.2913Y-3.626
X24.2913Y-3.6654
X24.3228Y-0.6654
X24.3228Y-0.7047
X24.3228Y-5.063
X24.3484Y-4.1988
X24.3622Y-0.6654
X24.3622Y-0.7047
X24.3701Y-3.4409
X24.4134Y-1.1102
X24.4134Y-1.2205
X24.4488Y-3.3031
X24.4705Y-2.6299
X24.4724Y-4.128
X24.4744Y-0.2598
X24.4744Y-1.147
X24.5Y-4.6693
X24.5Y-4.6969
X24.5276Y-4.6693
X24.5276Y-4.6969
X24.5669Y-0.9449
X24.5669Y-0.9843
X24.6109Y-1.1673
X24.614Y-2.5571
X24.6201Y-3.2283
X24.6343Y-1.189
T3
X12.2749Y-0.4754
X12.2749Y-1.6004
X12.3686Y-4.6004
X12.4624Y-2.3504
X12.5561Y-3.1004
X12.6749Y-0.4754
X12.6749Y-1.6004
X12.7436Y-3.8504
X12.7686Y-4.6004
X12.8624Y-2.3504
X12.9561Y-3.1004
X13.0249Y-1.6004
X13.1436Y-3.8504
X13.3061Y-4.6004
X13.3999Y-2.3504
X13.4249Y-1.6004
X13.5874Y-3.1004
X13.7061Y-4.6004
X13.7749Y-1.6004
X13.7749Y-0.4754
X13.7999Y-2.3504
X13.9624Y-3.8504
X13.9874Y-3.1004
X14.1499Y-2.3504
X14.1749Y-1.6004
X14.1749Y-0.4754
X14.2436Y-4.6004
X14.3374Y-3.1004
X14.3624Y-3.8504
X14.5249Y-0.4754
X14.5249Y-1.6004
X14.5499Y-2.3504
X14.6436Y-4.6004
X14.7124Y-3.8504
X14.7374Y-3.1004
X14.8999Y-2.3504
X14.9249Y-0.4754
X14.9249Y-1.6004
X15.0874Y-3.1004
X15.1124Y-3.8504
X15.2749Y-1.6004
X15.2749Y-0.4754
X15.2999Y-2.3504
X15.4624Y-3.8504
X15.4874Y-3.1004
X15.6499Y-2.3504
X15.6749Y-1.6004
X15.6749Y-0.4754
X15.8374Y-3.1004
X15.8624Y-3.8504
X16.0248Y-0.4754
X16.0249Y-1.6004
X16.0499Y-2.3504
X16.2124Y-3.8504
X16.2374Y-3.1004
X16.3999Y-2.3504
X16.4248Y-0.4754
X16.4249Y-1.6004
X16.5874Y-3.1004
X16.6124Y-3.8504
X16.7749Y-1.6004
X16.7999Y-2.3504
X16.9624Y-3.8504
X16.9874Y-3.1004
X17.0561Y-4.6004
X17.1499Y-2.3504
X17.1499Y-0.4754
X17.1749Y-1.6004
X17.3374Y-3.1004
X17.3624Y-3.8504
X17.4561Y-4.6004
X17.5249Y-1.6004
X17.5499Y-2.3504
X17.5499Y-0.4754
X17.7124Y-3.8504
X17.7374Y-3.1004
X17.8999Y-2.3504
X17.8999Y-0.4754
X17.9249Y-1.6004
X18.0874Y-3.1004
X18.1124Y-3.8504
X18.2749Y-1.6004
X18.2999Y-2.3504
X18.2999Y-0.4754
X18.4624Y-3.8504
X18.4874Y-3.1004
X18.6499Y-2.3504
X18.6499Y-0.4754
X18.6749Y-1.6004
X18.8374Y-3.1004
X18.8624Y-3.8504
X19.0249Y-1.6004
X19.0499Y-2.3504
X19.0499Y-0.4754
X19.2124Y-3.8504
X19.2374Y-3.1004
X19.3999Y-2.3504
X19.3999Y-0.4754
X19.4249Y-1.6004
X19.5874Y-3.1004
X19.6124Y-3.8504
X19.7749Y-1.6004
X19.7749Y-4.6004
X19.7999Y-2.3504
X19.7999Y-0.4754
X19.9624Y-3.8504
X19.9874Y-3.1004
X20.1499Y-2.3504
X20.1749Y-1.6004
X20.1749Y-4.6004
X20.3374Y-3.1004
X20.3624Y-3.8504
X20.5249Y-1.6004
X20.5249Y-4.6004
X20.5249Y-0.4754
X20.5499Y-2.3504
X20.7124Y-3.8504
X20.7374Y-3.1004
X20.8999Y-2.3504
X20.9249Y-1.6004
X20.9249Y-4.6004
X20.9249Y-0.4754
X21.0874Y-3.1004
X21.1124Y-3.8504
X21.2749Y-1.6004
X21.2749Y-4.6004
X21.2749Y-0.4754
X21.2999Y-2.3504
X21.4874Y-3.1004
X21.6499Y-2.3504
X21.6749Y-1.6004
X21.6749Y-4.6004
X21.6749Y-0.4754
X21.8374Y-3.8504
X22.0249Y-0.4754
X22.0499Y-2.3504
X22.2374Y-3.8504
X22.3061Y-3.1004
X22.3999Y-1.6004
X22.3999Y-4.7879
X22.4249Y-0.4754
X22.5874Y-2.3504
X22.7061Y-3.1004
X22.7749Y-0.4754
X22.7999Y-1.6004
X22.7999Y-4.7879
X22.9874Y-2.3504
X23.1499Y-4.0379
X23.1499Y-4.7879
X23.1749Y-0.4754
X23.5499Y-4.0379
X23.5499Y-4.7879
X23.8999Y-4.7879
X24.0874Y-0.4754
X24.0874Y-1.6004
X24.0874Y-2.3504
X24.0874Y-3.1004
X24.0874Y-3.8504
X24.2999Y-4.7879
X24.4874Y-0.4754
X24.4874Y-1.6004
X24.4874Y-2.3504
X24.4874Y-3.1004
X24.4874Y-3.8504
T4
X12.3249Y-1.5004
X12.3749Y-0.6754
X12.4186Y-4.5004
X12.5124Y-2.2504
X12.5749Y-1.4004
X12.6061Y-3.0004
X12.6249Y-0.5754
X12.6686Y-4.4004
X12.7624Y-2.1504
X12.7936Y-3.7504
X12.8561Y-2.9004
X13.0436Y-3.6504
X13.0749Y-1.5004
X13.3249Y-1.4004
X13.3561Y-4.5004
X13.4499Y-2.2504
X13.6061Y-4.4004
X13.6374Y-3.0004
X13.6999Y-2.1504
X13.8249Y-1.5004
X13.8749Y-0.6754
X13.8874Y-2.9004
X14.0124Y-3.7504
X14.0749Y-1.4004
X14.1249Y-0.5754
X14.1999Y-2.2504
X14.2624Y-3.6504
X14.2936Y-4.5004
X14.3874Y-3.0004
X14.4499Y-2.1504
X14.5436Y-4.4004
X14.5749Y-1.5004
X14.6249Y-0.6754
X14.6374Y-2.9004
X14.7624Y-3.7504
X14.8249Y-1.4004
X14.8749Y-0.5754
X14.9499Y-2.2504
X15.0124Y-3.6504
X15.1374Y-3.0004
X15.1999Y-2.1504
X15.3249Y-1.5004
X15.3749Y-0.6754
X15.3874Y-2.9004
X15.5124Y-3.7504
X15.5749Y-1.4004
X15.6249Y-0.5754
X15.6999Y-2.2504
X15.7624Y-3.6504
X15.8874Y-3.0004
X15.9499Y-2.1504
X16.0749Y-1.5004
X16.1248Y-0.6754
X16.1374Y-2.9004
X16.2624Y-3.7504
X16.3249Y-1.4004
X16.3748Y-0.5754
X16.4499Y-2.2504
X16.5124Y-3.6504
X16.6374Y-3.0004
X16.6999Y-2.1504
X16.8249Y-1.5004
X16.8874Y-2.9004
X17.0124Y-3.7504
X17.0749Y-1.4004
X17.1061Y-4.5004
X17.1999Y-2.2504
X17.2499Y-0.6754
X17.2624Y-3.6504
X17.3561Y-4.4004
X17.3874Y-3.0004
X17.4499Y-2.1504
X17.4999Y-0.5754
X17.5749Y-1.5004
X17.6374Y-2.9004
X17.7624Y-3.7504
X17.8249Y-1.4004
X17.9499Y-2.2504
X17.9999Y-0.6754
X18.0124Y-3.6504
X18.1374Y-3.0004
X18.1999Y-2.1504
X18.2499Y-0.5754
X18.3249Y-1.5004
X18.3874Y-2.9004
X18.5124Y-3.7504
X18.5749Y-1.4004
X18.6999Y-2.2504
X18.7499Y-0.6754
X18.7624Y-3.6504
X18.8874Y-3.0004
X18.9499Y-2.1504
X18.9999Y-0.5754
X19.0749Y-1.5004
X19.1374Y-2.9004
X19.2624Y-3.7504
X19.3249Y-1.4004
X19.4499Y-2.2504
X19.4999Y-0.6754
X19.5124Y-3.6504
X19.6374Y-3.0004
X19.6999Y-2.1504
X19.7499Y-0.5754
X19.8249Y-1.5004
X19.8249Y-4.5004
X19.8874Y-2.9004
X20.0124Y-3.7504
X20.0749Y-1.4004
X20.0749Y-4.4004
X20.1999Y-2.2504
X20.2624Y-3.6504
X20.3874Y-3.0004
X20.4499Y-2.1504
X20.5749Y-1.5004
X20.5749Y-4.5004
X20.6249Y-0.6754
X20.6374Y-2.9004
X20.7624Y-3.7504
X20.8249Y-1.4004
X20.8249Y-4.4004
X20.8749Y-0.5754
X20.9499Y-2.2504
X21.0124Y-3.6504
X21.1374Y-3.0004
X21.1999Y-2.1504
X21.3249Y-1.5004
X21.3249Y-4.5004
X21.3749Y-0.6754
X21.3874Y-2.9004
X21.5749Y-1.4004
X21.5749Y-4.4004
X21.6249Y-0.5754
X21.6999Y-2.2504
X21.8874Y-3.7504
X21.9499Y-2.1504
X22.1249Y-0.6754
X22.1374Y-3.6504
X22.3561Y-3.0004
X22.3749Y-0.5754
X22.4499Y-1.5004
X22.4499Y-4.6879
X22.6061Y-2.9004
X22.6374Y-2.2504
X22.6999Y-1.4004
X22.6999Y-4.5879
X22.8749Y-0.6754
X22.8874Y-2.1504
X23.1249Y-0.5754
X23.1999Y-3.9379
X23.1999Y-4.6879
X23.4499Y-3.8379
X23.4499Y-4.5879
X23.9499Y-4.6879
X24.1374Y-1.5004
X24.1374Y-2.2504
X24.1374Y-3.0004
X24.1374Y-3.7504
X24.1874Y-0.6754
X24.1999Y-4.5879
X24.3874Y-1.4004
X24.3874Y-2.1504
X24.3874Y-2.9004
X24.3874Y-3.6504
X24.4374Y-0.5754
T5
X12.4749Y-0.4754
X12.4749Y-1.6004
X12.5686Y-4.6004
X12.6624Y-2.3504
X12.7561Y-3.1004
X12.9436Y-3.8504
X13.2249Y-1.6004
X13.5061Y-4.6004
X13.5999Y-2.3504
X13.7874Y-3.1004
X13.9749Y-1.6004
X13.9749Y-0.4754
X14.1624Y-3.8504
X14.3499Y-2.3504
X14.4436Y-4.6004
X14.5374Y-3.1004
X14.7249Y-0.4754
X14.7249Y-1.6004
X14.9124Y-3.8504
X15.0999Y-2.3504
X15.2874Y-3.1004
X15.4749Y-1.6004
X15.4749Y-0.4754
X15.6624Y-3.8504
X15.8499Y-2.3504
X16.0374Y-3.1004
X16.2248Y-0.4754
X16.2249Y-1.6004
X16.4124Y-3.8504
X16.5999Y-2.3504
X16.7874Y-3.1004
X16.9749Y-1.6004
X17.1624Y-3.8504
X17.2561Y-4.6004
X17.3499Y-2.3504
X17.3499Y-0.4754
X17.5374Y-3.1004
X17.7249Y-1.6004
X17.9124Y-3.8504
X18.0999Y-2.3504
X18.0999Y-0.4754
X18.2874Y-3.1004
X18.4749Y-1.6004
X18.6624Y-3.8504
X18.8499Y-2.3504
X18.8499Y-0.4754
X19.0374Y-3.1004
X19.2249Y-1.6004
X19.4124Y-3.8504
X19.5999Y-2.3504
X19.5999Y-0.4754
X19.7874Y-3.1004
X19.9749Y-1.6004
X19.9749Y-4.6004
X20.1624Y-3.8504
X20.3499Y-2.3504
X20.5374Y-3.1004
X20.7249Y-1.6004
X20.7249Y-4.6004
X20.7249Y-0.4754
X20.9124Y-3.8504
X21.0999Y-2.3504
X21.2874Y-3.1004
X21.4749Y-1.6004
X21.4749Y-4.6004
X21.4749Y-0.4754
X21.8499Y-2.3504
X22.0374Y-3.8504
X22.2249Y-0.4754
X22.5061Y-3.1004
X22.5999Y-1.6004
X22.5999Y-4.7879
X22.7874Y-2.3504
X22.9749Y-0.4754
X23.3499Y-4.0379
X23.3499Y-4.7879
X24.0999Y-4.7879
X24.2874Y-0.4754
X24.2874Y-1.6004
X24.2874Y-2.3504
X24.2874Y-3.1004
X24.2874Y-3.8504
T2
G00X23.446Y-0.1463
M15
G01X23.446Y-0.1738
M16
G05
G00X23.446Y-0.3077
M15
G01X23.446Y-0.3431
M16
G05
G00X23.7862Y-0.1463
M15
G01X23.7862Y-0.1738
M16
G05
G00X23.7862Y-0.3077
M15
G01X23.7862Y-0.3431
M16
G05
M30
