%TF.GenerationSoftware,KiCad,Pcbnew,8.0.8*%
%TF.CreationDate,2025-06-28T21:49:14+08:00*%
%TF.ProjectId,KeyBoard,4b657942-6f61-4726-942e-6b696361645f,rev?*%
%TF.SameCoordinates,Original*%
%TF.FileFunction,Soldermask,Top*%
%TF.FilePolarity,Negative*%
%FSLAX46Y46*%
G04 Gerber Fmt 4.6, Leading zero omitted, Abs format (unit mm)*
G04 Created by KiCad (PCBNEW 8.0.8) date 2025-06-28 21:49:14*
%MOMM*%
%LPD*%
G01*
G04 APERTURE LIST*
%ADD10C,0.012500*%
%ADD11C,3.000000*%
%ADD12O,1.199000X1.801000*%
%ADD13O,1.100000X1.999000*%
G04 APERTURE END LIST*
D10*
%TO.C,KEY42*%
X426399650Y-78749600D03*
X431479650Y-78749600D03*
X421319650Y-78749600D03*
D11*
X422589650Y-76209600D03*
X428939650Y-73669600D03*
%TD*%
D10*
%TO.C,KEY10*%
X545461800Y-12074400D03*
X540381800Y-12074400D03*
X550541800Y-12074400D03*
D11*
X549271800Y-14614400D03*
X542921800Y-17154400D03*
%TD*%
D10*
%TO.C,KEY3*%
X616899650Y-40649600D03*
X621979650Y-40649600D03*
X611819650Y-40649600D03*
D11*
X613089650Y-38109600D03*
X619439650Y-35569600D03*
%TD*%
D10*
%TO.C,KEY47*%
X393061775Y-12074400D03*
X387981775Y-12074400D03*
X398141775Y-12074400D03*
D11*
X396871775Y-14614400D03*
X390521775Y-17154400D03*
%TD*%
D10*
%TO.C,KEY77*%
X593086650Y-102562300D03*
X598166650Y-102562300D03*
X588006650Y-102562300D03*
D11*
X589276650Y-100022300D03*
X595626650Y-97482300D03*
%TD*%
D10*
%TO.C,KEY76*%
X512124650Y-97799800D03*
X517204650Y-97799800D03*
X507044650Y-97799800D03*
D11*
X508314650Y-95259800D03*
X514664650Y-92719800D03*
%TD*%
D10*
%TO.C,KEY53*%
X397824150Y-97799800D03*
X402904150Y-97799800D03*
X392744150Y-97799800D03*
D11*
X394014150Y-95259800D03*
X400364150Y-92719800D03*
%TD*%
D10*
%TO.C,KEY61*%
X359724150Y-97799800D03*
X364804150Y-97799800D03*
X354644150Y-97799800D03*
D11*
X355914150Y-95259800D03*
X362264150Y-92719800D03*
%TD*%
D10*
%TO.C,KEY13*%
X574036650Y-40649600D03*
X579116650Y-40649600D03*
X568956650Y-40649600D03*
D11*
X570226650Y-38109600D03*
X576576650Y-35569600D03*
%TD*%
D10*
%TO.C,KEY45*%
X354961775Y-12074400D03*
X349881775Y-12074400D03*
X360041775Y-12074400D03*
D11*
X358771775Y-14614400D03*
X352421775Y-17154400D03*
%TD*%
D10*
%TO.C,KEY35*%
X474024650Y-97799800D03*
X479104650Y-97799800D03*
X468944650Y-97799800D03*
D11*
X470214650Y-95259800D03*
X476564650Y-92719800D03*
%TD*%
D10*
%TO.C,KEY4*%
X616899075Y-12074400D03*
X611819075Y-12074400D03*
X621979075Y-12074400D03*
D11*
X620709075Y-14614400D03*
X614359075Y-17154400D03*
%TD*%
D10*
%TO.C,KEY34*%
X483549650Y-78749600D03*
X488629650Y-78749600D03*
X478469650Y-78749600D03*
D11*
X479739650Y-76209600D03*
X486089650Y-73669600D03*
%TD*%
D10*
%TO.C,KEY28*%
X497836800Y-12074400D03*
X492756800Y-12074400D03*
X502916800Y-12074400D03*
D11*
X501646800Y-14614400D03*
X495296800Y-17154400D03*
%TD*%
D10*
%TO.C,KEY59*%
X383536650Y-59699600D03*
X388616650Y-59699600D03*
X378456650Y-59699600D03*
D11*
X379726650Y-57159600D03*
X386076650Y-54619600D03*
%TD*%
D10*
%TO.C,KEY64*%
X354961650Y-40649600D03*
X360041650Y-40649600D03*
X349881650Y-40649600D03*
D11*
X351151650Y-38109600D03*
X357501650Y-35569600D03*
%TD*%
D10*
%TO.C,KEY5*%
X616899650Y-97799800D03*
X621979650Y-97799800D03*
X611819650Y-97799800D03*
D11*
X613089650Y-95259800D03*
X619439650Y-92719800D03*
%TD*%
D10*
%TO.C,KEY73*%
X438305650Y-116849780D03*
X443385650Y-116849780D03*
X433225650Y-116849780D03*
D11*
X434495650Y-114309780D03*
X440845650Y-111769780D03*
%TD*%
D10*
%TO.C,KEY63*%
X364486650Y-59699600D03*
X369566650Y-59699600D03*
X359406650Y-59699600D03*
D11*
X360676650Y-57159600D03*
X367026650Y-54619600D03*
%TD*%
D10*
%TO.C,KEY29*%
X488311650Y-40649600D03*
X493391650Y-40649600D03*
X483231650Y-40649600D03*
D11*
X484501650Y-38109600D03*
X490851650Y-35569600D03*
%TD*%
D10*
%TO.C,KEY41*%
X435924650Y-97799800D03*
X441004650Y-97799800D03*
X430844650Y-97799800D03*
D11*
X432114650Y-95259800D03*
X438464650Y-92719800D03*
%TD*%
D10*
%TO.C,KEY49*%
X416874650Y-97799800D03*
X421954650Y-97799800D03*
X411794650Y-97799800D03*
D11*
X413064650Y-95259800D03*
X419414650Y-92719800D03*
%TD*%
D10*
%TO.C,KEY54*%
X388299150Y-78749600D03*
X393379150Y-78749600D03*
X383219150Y-78749600D03*
D11*
X384489150Y-76209600D03*
X390839150Y-73669600D03*
%TD*%
D10*
%TO.C,KEY2*%
X616899650Y-59699600D03*
X621979650Y-59699600D03*
X611819650Y-59699600D03*
D11*
X613089650Y-57159600D03*
X619439650Y-54619600D03*
%TD*%
D10*
%TO.C,KEY24*%
X502599650Y-78749600D03*
X507679650Y-78749600D03*
X497519650Y-78749600D03*
D11*
X498789650Y-76209600D03*
X505139650Y-73669600D03*
%TD*%
D10*
%TO.C,KEY69*%
X366867950Y-116849780D03*
X371947950Y-116849780D03*
X361787950Y-116849780D03*
D11*
X363057950Y-114309780D03*
X369407950Y-111769780D03*
%TD*%
D10*
%TO.C,KEY71*%
X319243050Y-116849780D03*
X324323050Y-116849780D03*
X314163050Y-116849780D03*
D11*
X315433050Y-114309780D03*
X321783050Y-111769780D03*
%TD*%
D10*
%TO.C,KEY1*%
X616899650Y-78749600D03*
X621979650Y-78749600D03*
X611819650Y-78749600D03*
D11*
X613089650Y-76209600D03*
X619439650Y-73669600D03*
%TD*%
D10*
%TO.C,KEY81*%
X345436650Y-59699600D03*
X350516650Y-59699600D03*
X340356650Y-59699600D03*
D11*
X341626650Y-57159600D03*
X347976650Y-54619600D03*
%TD*%
D10*
%TO.C,KEY62*%
X350199150Y-78749600D03*
X355279150Y-78749600D03*
X345119150Y-78749600D03*
D11*
X346389150Y-76209600D03*
X352739150Y-73669600D03*
%TD*%
D10*
%TO.C,KEY66*%
X321624350Y-59699600D03*
X326704350Y-59699600D03*
X316544350Y-59699600D03*
D11*
X317814350Y-57159600D03*
X324164350Y-54619600D03*
%TD*%
D10*
%TO.C,KEY15*%
X526411650Y-40649600D03*
X531491650Y-40649600D03*
X521331650Y-40649600D03*
D11*
X522601650Y-38109600D03*
X528951650Y-35569600D03*
%TD*%
D10*
%TO.C,KEY30*%
X497836650Y-59699600D03*
X502916650Y-59699600D03*
X492756650Y-59699600D03*
D11*
X494026650Y-57159600D03*
X500376650Y-54619600D03*
%TD*%
D10*
%TO.C,KEY9*%
X526412075Y-12074400D03*
X521332075Y-12074400D03*
X531492075Y-12074400D03*
D11*
X530222075Y-14614400D03*
X523872075Y-17154400D03*
%TD*%
D10*
%TO.C,KEY14*%
X545461650Y-40649600D03*
X550541650Y-40649600D03*
X540381650Y-40649600D03*
D11*
X541651650Y-38109600D03*
X548001650Y-35569600D03*
%TD*%
D10*
%TO.C,KEY72*%
X328768050Y-97799800D03*
X333848050Y-97799800D03*
X323688050Y-97799800D03*
D11*
X324958050Y-95259800D03*
X331308050Y-92719800D03*
%TD*%
D10*
%TO.C,KEY38*%
X445449650Y-78749600D03*
X450529650Y-78749600D03*
X440369650Y-78749600D03*
D11*
X441639650Y-76209600D03*
X447989650Y-73669600D03*
%TD*%
D10*
%TO.C,KEY36*%
X464499650Y-78749600D03*
X469579650Y-78749600D03*
X459419650Y-78749600D03*
D11*
X460689650Y-76209600D03*
X467039650Y-73669600D03*
%TD*%
D10*
%TO.C,KEY57*%
X378774150Y-97799800D03*
X383854150Y-97799800D03*
X373694150Y-97799800D03*
D11*
X374964150Y-95259800D03*
X381314150Y-92719800D03*
%TD*%
D10*
%TO.C,KEY60*%
X374011650Y-40649600D03*
X379091650Y-40649600D03*
X368931650Y-40649600D03*
D11*
X370201650Y-38109600D03*
X376551650Y-35569600D03*
%TD*%
D10*
%TO.C,KEY16*%
X507361650Y-40649600D03*
X512441650Y-40649600D03*
X502281650Y-40649600D03*
D11*
X503551650Y-38109600D03*
X509901650Y-35569600D03*
%TD*%
D10*
%TO.C,KEY82*%
X335911525Y-40649600D03*
X340991525Y-40649600D03*
X330831525Y-40649600D03*
D11*
X332101525Y-38109600D03*
X338451525Y-35569600D03*
%TD*%
D10*
%TO.C,KEY20*%
X516886650Y-59699600D03*
X521966650Y-59699600D03*
X511806650Y-59699600D03*
D11*
X513076650Y-57159600D03*
X519426650Y-54619600D03*
%TD*%
D10*
%TO.C,KEY40*%
X450211650Y-40649600D03*
X455291650Y-40649600D03*
X445131650Y-40649600D03*
D11*
X446401650Y-38109600D03*
X452751650Y-35569600D03*
%TD*%
D10*
%TO.C,KEY78*%
X545461650Y-116849780D03*
X550541650Y-116849780D03*
X540381650Y-116849780D03*
D11*
X541651650Y-114309780D03*
X548001650Y-111769780D03*
%TD*%
D10*
%TO.C,KEY23*%
X521649650Y-78749600D03*
X526729650Y-78749600D03*
X516569650Y-78749600D03*
D11*
X517839650Y-76209600D03*
X524189650Y-73669600D03*
%TD*%
D10*
%TO.C,KEY75*%
X531174650Y-97799800D03*
X536254650Y-97799800D03*
X526094650Y-97799800D03*
D11*
X527364650Y-95259800D03*
X533714650Y-92719800D03*
%TD*%
D10*
%TO.C,KEY65*%
X324005550Y-78749600D03*
X329085550Y-78749600D03*
X318925550Y-78749600D03*
D11*
X320195550Y-76209600D03*
X326545550Y-73669600D03*
%TD*%
D10*
%TO.C,KEY48*%
X412110950Y-12074400D03*
X407030950Y-12074400D03*
X417190950Y-12074400D03*
D11*
X415920950Y-14614400D03*
X409570950Y-17154400D03*
%TD*%
D10*
%TO.C,KEY27*%
X478786800Y-12074400D03*
X473706800Y-12074400D03*
X483866800Y-12074400D03*
D11*
X482596800Y-14614400D03*
X476246800Y-17154400D03*
%TD*%
D10*
%TO.C,KEY33*%
X469261650Y-40649600D03*
X474341650Y-40649600D03*
X464181650Y-40649600D03*
D11*
X465451650Y-38109600D03*
X471801650Y-35569600D03*
%TD*%
D10*
%TO.C,KEY80*%
X507361650Y-116849780D03*
X512441650Y-116849780D03*
X502281650Y-116849780D03*
D11*
X503551650Y-114309780D03*
X509901650Y-111769780D03*
%TD*%
D10*
%TO.C,KEY25*%
X440686800Y-12074400D03*
X435606800Y-12074400D03*
X445766800Y-12074400D03*
D11*
X444496800Y-14614400D03*
X438146800Y-17154400D03*
%TD*%
D10*
%TO.C,KEY31*%
X493074650Y-97799800D03*
X498154650Y-97799800D03*
X487994650Y-97799800D03*
D11*
X489264650Y-95259800D03*
X495614650Y-92719800D03*
%TD*%
D10*
%TO.C,KEY70*%
X343055450Y-116849780D03*
X348135450Y-116849780D03*
X337975450Y-116849780D03*
D11*
X339245450Y-114309780D03*
X345595450Y-111769780D03*
%TD*%
D10*
%TO.C,KEY56*%
X393061650Y-40649600D03*
X398141650Y-40649600D03*
X387981650Y-40649600D03*
D11*
X389251650Y-38109600D03*
X395601650Y-35569600D03*
%TD*%
D10*
%TO.C,KEY12*%
X583561800Y-12074400D03*
X578481800Y-12074400D03*
X588641800Y-12074400D03*
D11*
X587371800Y-14614400D03*
X581021800Y-17154400D03*
%TD*%
D10*
%TO.C,KEY18*%
X554986650Y-59699600D03*
X560066650Y-59699600D03*
X549906650Y-59699600D03*
D11*
X551176650Y-57159600D03*
X557526650Y-54619600D03*
%TD*%
D10*
%TO.C,KEY6*%
X612136650Y-121612270D03*
X617216650Y-121612270D03*
X607056650Y-121612270D03*
D11*
X608326650Y-119072270D03*
X614676650Y-116532270D03*
%TD*%
D10*
%TO.C,KEY74*%
X559749650Y-97799800D03*
X564829650Y-97799800D03*
X554669650Y-97799800D03*
D11*
X555939650Y-95259800D03*
X562289650Y-92719800D03*
%TD*%
D10*
%TO.C,KEY37*%
X454974650Y-97799800D03*
X460054650Y-97799800D03*
X449894650Y-97799800D03*
D11*
X451164650Y-95259800D03*
X457514650Y-92719800D03*
%TD*%
D10*
%TO.C,KEY17*%
X578799650Y-59699600D03*
X583879650Y-59699600D03*
X573719650Y-59699600D03*
D11*
X574989650Y-57159600D03*
X581339650Y-54619600D03*
%TD*%
D10*
%TO.C,KEY22*%
X540699650Y-78749600D03*
X545779650Y-78749600D03*
X535619650Y-78749600D03*
D11*
X536889650Y-76209600D03*
X543239650Y-73669600D03*
%TD*%
D10*
%TO.C,KEY79*%
X526411650Y-116849780D03*
X531491650Y-116849780D03*
X521331650Y-116849780D03*
D11*
X522601650Y-114309780D03*
X528951650Y-111769780D03*
%TD*%
D10*
%TO.C,KEY19*%
X535936650Y-59699600D03*
X541016650Y-59699600D03*
X530856650Y-59699600D03*
D11*
X532126650Y-57159600D03*
X538476650Y-54619600D03*
%TD*%
D10*
%TO.C,KEY7*%
X593086650Y-121612270D03*
X598166650Y-121612270D03*
X588006650Y-121612270D03*
D11*
X589276650Y-119072270D03*
X595626650Y-116532270D03*
%TD*%
D10*
%TO.C,KEY11*%
X564512075Y-12074400D03*
X559432075Y-12074400D03*
X569592075Y-12074400D03*
D11*
X568322075Y-14614400D03*
X561972075Y-17154400D03*
%TD*%
D10*
%TO.C,KEY67*%
X316861725Y-40649600D03*
X321941725Y-40649600D03*
X311781725Y-40649600D03*
D11*
X313051725Y-38109600D03*
X319401725Y-35569600D03*
%TD*%
D10*
%TO.C,KEY68*%
X316861725Y-12074400D03*
X311781725Y-12074400D03*
X321941725Y-12074400D03*
D11*
X320671725Y-14614400D03*
X314321725Y-17154400D03*
%TD*%
D10*
%TO.C,KEY52*%
X412111650Y-40649600D03*
X417191650Y-40649600D03*
X407031650Y-40649600D03*
D11*
X408301650Y-38109600D03*
X414651650Y-35569600D03*
%TD*%
D10*
%TO.C,KEY26*%
X459737075Y-12074400D03*
X454657075Y-12074400D03*
X464817075Y-12074400D03*
D11*
X463547075Y-14614400D03*
X457197075Y-17154400D03*
%TD*%
D10*
%TO.C,KEY44*%
X431161650Y-40649600D03*
X436241650Y-40649600D03*
X426081650Y-40649600D03*
D11*
X427351650Y-38109600D03*
X433701650Y-35569600D03*
%TD*%
D10*
%TO.C,KEY21*%
X571655650Y-78749600D03*
X576735650Y-78749600D03*
X566575650Y-78749600D03*
D11*
X567845650Y-76209600D03*
X574195650Y-73669600D03*
%TD*%
D10*
%TO.C,KEY51*%
X421636650Y-59699600D03*
X426716650Y-59699600D03*
X416556650Y-59699600D03*
D11*
X417826650Y-57159600D03*
X424176650Y-54619600D03*
%TD*%
D10*
%TO.C,KEY58*%
X369249150Y-78749600D03*
X374329150Y-78749600D03*
X364169150Y-78749600D03*
D11*
X365439150Y-76209600D03*
X371789150Y-73669600D03*
%TD*%
D10*
%TO.C,KEY32*%
X478786650Y-59699600D03*
X483866650Y-59699600D03*
X473706650Y-59699600D03*
D11*
X474976650Y-57159600D03*
X481326650Y-54619600D03*
%TD*%
D12*
%TO.C,USBC1*%
X595529500Y-4066000D03*
D13*
X595529500Y-8264500D03*
D12*
X604170500Y-4066000D03*
D13*
X604170500Y-8264500D03*
%TD*%
D10*
%TO.C,KEY39*%
X459736650Y-59699600D03*
X464816650Y-59699600D03*
X454656650Y-59699600D03*
D11*
X455926650Y-57159600D03*
X462276650Y-54619600D03*
%TD*%
D10*
%TO.C,KEY55*%
X402586650Y-59699600D03*
X407666650Y-59699600D03*
X397506650Y-59699600D03*
D11*
X398776650Y-57159600D03*
X405126650Y-54619600D03*
%TD*%
D10*
%TO.C,KEY8*%
X574036650Y-121612270D03*
X579116650Y-121612270D03*
X568956650Y-121612270D03*
D11*
X570226650Y-119072270D03*
X576576650Y-116532270D03*
%TD*%
D10*
%TO.C,KEY50*%
X407349650Y-78749600D03*
X412429650Y-78749600D03*
X402269650Y-78749600D03*
D11*
X403539650Y-76209600D03*
X409889650Y-73669600D03*
%TD*%
D10*
%TO.C,KEY46*%
X374011650Y-12074400D03*
X368931650Y-12074400D03*
X379091650Y-12074400D03*
D11*
X377821650Y-14614400D03*
X371471650Y-17154400D03*
%TD*%
D10*
%TO.C,KEY43*%
X440686650Y-59699600D03*
X445766650Y-59699600D03*
X435606650Y-59699600D03*
D11*
X436876650Y-57159600D03*
X443226650Y-54619600D03*
%TD*%
M02*
