%TF.GenerationSoftware,KiCad,Pcbnew,8.0.8*%
%TF.CreationDate,2025-06-28T21:49:14+08:00*%
%TF.ProjectId,KeyBoard,4b657942-6f61-4726-942e-6b696361645f,rev?*%
%TF.SameCoordinates,Original*%
%TF.FileFunction,Legend,Top*%
%TF.FilePolarity,Positive*%
%FSLAX46Y46*%
G04 Gerber Fmt 4.6, Leading zero omitted, Abs format (unit mm)*
G04 Created by KiCad (PCBNEW 8.0.8) date 2025-06-28 21:49:14*
%MOMM*%
%LPD*%
G01*
G04 APERTURE LIST*
%ADD10C,0.177800*%
%ADD11C,0.100000*%
G04 APERTURE END LIST*
D10*
X312243210Y-109849900D02*
X312243210Y-110850300D01*
X532898300Y-72750400D02*
X532898300Y-75849600D01*
X532898300Y-84750200D02*
X533699300Y-84750200D01*
X533699300Y-85749200D02*
X547699300Y-85749200D01*
X361448700Y-75849600D02*
X362249500Y-75849600D01*
X357198800Y-85749200D02*
X357198800Y-84750200D01*
X357487000Y-66699200D02*
X371486300Y-66699200D01*
X558762300Y-41149300D02*
X558762300Y-47419200D01*
X605137300Y-128611870D02*
X619136300Y-128611870D01*
X447686300Y-9174900D02*
X448487300Y-9174900D01*
X485786300Y-53700400D02*
X485786300Y-52700000D01*
X326242700Y-119749700D02*
X326242700Y-113949600D01*
X312243210Y-123849380D02*
X326242700Y-123849380D01*
X537661300Y-18074900D02*
X538462300Y-18074900D01*
X471787300Y-65700200D02*
X471787300Y-66699200D01*
X486654300Y-110399700D02*
X486654300Y-111320200D01*
X567548300Y-103800300D02*
X567548300Y-100699700D01*
X394786200Y-65700200D02*
X395587000Y-65700200D01*
X578655300Y-81649600D02*
X578655300Y-81050200D01*
X328624000Y-66699200D02*
X328624000Y-65700200D01*
X533411300Y-14974900D02*
X533411300Y-9174900D01*
X311442580Y-113949600D02*
X312243210Y-113949600D01*
X327043300Y-119749700D02*
X326242700Y-119749700D01*
X433399300Y-84750200D02*
X434198300Y-84750200D01*
X544474300Y-98299200D02*
X544474300Y-104569200D01*
X582562300Y-42950200D02*
X582562300Y-47419200D01*
X409073300Y-100699700D02*
X409073300Y-103800300D01*
X419910300Y-18074900D02*
X419910300Y-14974900D01*
X580179300Y-73220300D02*
X580179300Y-76450400D01*
X490036300Y-18074900D02*
X490837300Y-18074900D01*
X395298800Y-75849600D02*
X396098200Y-75849600D01*
X326242700Y-113949600D02*
X327043300Y-113949600D01*
X361961300Y-34650400D02*
X361961300Y-33650000D01*
X371486300Y-53700400D02*
X371486300Y-52700000D01*
X491348300Y-75849600D02*
X491348300Y-72750400D01*
X309861950Y-5074900D02*
X309861950Y-6075900D01*
X371486300Y-56799600D02*
X372287100Y-56799600D01*
X623899300Y-103800300D02*
X624698300Y-103800300D01*
X371774500Y-104799400D02*
X385773800Y-104799400D01*
X529448300Y-72750400D02*
X528649300Y-72750400D01*
X491680300Y-123619230D02*
X491680300Y-117349200D01*
X419399300Y-71750000D02*
X419399300Y-72750400D01*
X457499300Y-84750200D02*
X457499300Y-85749200D01*
X344868200Y-98299200D02*
X344868200Y-95500400D01*
X609899300Y-103800300D02*
X609899300Y-104799400D01*
X624698300Y-14974900D02*
X623899300Y-14974900D01*
X556711300Y-6075900D02*
X556711300Y-9174900D01*
X533411300Y-113949600D02*
X534212300Y-113949600D01*
X518611300Y-9174900D02*
X519412300Y-9174900D01*
X576562300Y-9174900D02*
X576562300Y-14974900D01*
X477062300Y-37749600D02*
X477062300Y-34650400D01*
X342911300Y-37749600D02*
X343712100Y-37749600D01*
X471787300Y-53700400D02*
X470986300Y-53700400D01*
X405110600Y-18074900D02*
X405110600Y-19073900D01*
X321768200Y-104799400D02*
X335767700Y-104799400D01*
X457499300Y-81649600D02*
X456698300Y-81649600D01*
D11*
X478787300Y-6075900D02*
X478787075Y-9174900D01*
D10*
X377048200Y-75849600D02*
X377048200Y-72750400D01*
X381812100Y-14974900D02*
X381011300Y-14974900D01*
X567037300Y-34650400D02*
X566236300Y-34650400D01*
X600887300Y-115611500D02*
X600086300Y-115611500D01*
X347962000Y-19073900D02*
X361961300Y-19073900D01*
X609899300Y-37749600D02*
X609899300Y-43549600D01*
X443212300Y-46650200D02*
X443212300Y-47649200D01*
X500074300Y-104799400D02*
X500074300Y-103800300D01*
D11*
X557512300Y-19073900D02*
X571511300Y-5074900D01*
D10*
X509599300Y-75849600D02*
X510398300Y-75849600D01*
X447686300Y-19073900D02*
X447686300Y-18074900D01*
X317004330Y-81649600D02*
X316205080Y-81649600D01*
X373867600Y-123849380D02*
X373867600Y-122850280D01*
X549498300Y-92270300D02*
X549498300Y-91349600D01*
X357198800Y-81649600D02*
X357198800Y-75849600D01*
X404823800Y-100699700D02*
X404823800Y-94899600D01*
X564654300Y-71750000D02*
X564654300Y-72750400D01*
D11*
X586087000Y-95562700D02*
X600086300Y-109561900D01*
D10*
X313823830Y-62599600D02*
X313823830Y-65700200D01*
X567037300Y-33650000D02*
X567037300Y-34650400D01*
X471787300Y-56799600D02*
X471787300Y-62599600D01*
X466736300Y-53700400D02*
X466736300Y-52700000D01*
X424160300Y-46650200D02*
X424160300Y-47649200D01*
X564654300Y-75849600D02*
X564654300Y-76450400D01*
X410387300Y-53700400D02*
X409586300Y-53700400D01*
D11*
X461974300Y-103800300D02*
X447974300Y-103800300D01*
D10*
X514361300Y-110850300D02*
X514361300Y-109849900D01*
D11*
X605137000Y-114612670D02*
X619136300Y-128611870D01*
D10*
X351923700Y-103800300D02*
X352724500Y-103800300D01*
X419910300Y-6075900D02*
X419111300Y-6075900D01*
X400860700Y-34650400D02*
X400061300Y-34650400D01*
X390536300Y-56799600D02*
X391337100Y-56799600D01*
X409586300Y-56799600D02*
X410387300Y-56799600D01*
D11*
X578799300Y-65700200D02*
X578799075Y-68799200D01*
X454974300Y-103800300D02*
X454974075Y-106899300D01*
D10*
X432886300Y-18074900D02*
X433687300Y-18074900D01*
X624698300Y-75849600D02*
X624698300Y-72750400D01*
X580179300Y-85519200D02*
X581904300Y-85519200D01*
X335767700Y-91800400D02*
X335767700Y-90800000D01*
X575848300Y-95500400D02*
X575024300Y-95500400D01*
X538174300Y-94899600D02*
X538973300Y-94899600D01*
X571511300Y-6075900D02*
X571511300Y-5074900D01*
X453248300Y-81649600D02*
X452449300Y-81649600D01*
X470986300Y-62599600D02*
X470986300Y-65700200D01*
X320967600Y-91800400D02*
X320967600Y-94899600D01*
X586087300Y-99662100D02*
X586087300Y-105462200D01*
X571799300Y-56799600D02*
X571799300Y-62599600D01*
X481312300Y-34650400D02*
X480511300Y-34650400D01*
X538973300Y-94899600D02*
X538973300Y-91800400D01*
X423874300Y-94899600D02*
X424673300Y-94899600D01*
X385261200Y-46650200D02*
X386062000Y-46650200D01*
X447686300Y-52700000D02*
X433687300Y-52700000D01*
X312243210Y-119749700D02*
X311442580Y-119749700D01*
D11*
X467025000Y-90800200D02*
X481024300Y-104799400D01*
X552750000Y-90800200D02*
X566749300Y-104799400D01*
D10*
X317004330Y-84750200D02*
X317004330Y-85749200D01*
X562787300Y-56799600D02*
X562787300Y-53700400D01*
X505637300Y-9174900D02*
X505637300Y-6075900D01*
X609899300Y-47649200D02*
X623899300Y-47649200D01*
X553262300Y-6075900D02*
X552461300Y-6075900D01*
X538462300Y-109849900D02*
X538462300Y-110850300D01*
X481312300Y-46650200D02*
X481312300Y-47649200D01*
X386062000Y-19073900D02*
X400061300Y-19073900D01*
X381011300Y-43549600D02*
X381011300Y-37749600D01*
X381011300Y-19073900D02*
X381011300Y-18074900D01*
X431304300Y-113949600D02*
X431304300Y-114550400D01*
X581837300Y-124512220D02*
X581036300Y-124512220D01*
X366211200Y-6075900D02*
X366211200Y-9174900D01*
D11*
X416874300Y-103800300D02*
X416874075Y-106899300D01*
D10*
X336568300Y-94899600D02*
X336568300Y-91800400D01*
X371774500Y-90800000D02*
X371774500Y-91800400D01*
X405110600Y-43549600D02*
X404311200Y-43549600D01*
X386573200Y-91800400D02*
X385773800Y-91800400D01*
D11*
X321768400Y-90800200D02*
X335767700Y-104799400D01*
D10*
X586087300Y-124512220D02*
X585286300Y-124512220D01*
X395587000Y-66699200D02*
X409586300Y-66699200D01*
X466223300Y-94899600D02*
X467024300Y-94899600D01*
X466223300Y-103800300D02*
X467024300Y-103800300D01*
X445305300Y-119150300D02*
X484929300Y-119150300D01*
X385261200Y-37749600D02*
X386062000Y-37749600D01*
D11*
X514650000Y-71750000D02*
X528649300Y-85749200D01*
D10*
X430505300Y-119749700D02*
X430505300Y-122850280D01*
X438449300Y-71750000D02*
X438449300Y-72750400D01*
X466736300Y-18074900D02*
X467537300Y-18074900D01*
X351923700Y-100699700D02*
X351923700Y-103800300D01*
X524687300Y-56799600D02*
X524687300Y-53700400D01*
X317004330Y-85749200D02*
X331005200Y-85749200D01*
X609899300Y-94899600D02*
X609899300Y-100699700D01*
X381812100Y-34650400D02*
X381011300Y-34650400D01*
X563853300Y-75849600D02*
X564654300Y-75849600D01*
X433687300Y-56799600D02*
X433687300Y-62599600D01*
X385261200Y-34650400D02*
X385261200Y-37749600D01*
X374668400Y-122850280D02*
X374668400Y-119749700D01*
X600086300Y-127611410D02*
X600887300Y-127611410D01*
X344868200Y-95500400D02*
X344042700Y-95500400D01*
X438449300Y-72750400D02*
X437648300Y-72750400D01*
X538174300Y-100699700D02*
X538174300Y-94899600D01*
X309861950Y-37749600D02*
X309861950Y-43549600D01*
X551224300Y-95500400D02*
X551224300Y-92270300D01*
X590561300Y-5074900D02*
X576562300Y-5074900D01*
D11*
X433687000Y-52700000D02*
X447686300Y-66699200D01*
D10*
X431304300Y-119150300D02*
X431304300Y-119749700D01*
X370973700Y-91800400D02*
X370973700Y-94899600D01*
D11*
X538462000Y-33650000D02*
X552461300Y-47649200D01*
D10*
X342911300Y-43549600D02*
X342911300Y-37749600D01*
D11*
X457500000Y-71750000D02*
X471499300Y-85749200D01*
D10*
X361448700Y-81649600D02*
X361448700Y-84750200D01*
X448487300Y-56799600D02*
X448487300Y-53700400D01*
X547987300Y-52700000D02*
X547987300Y-53700400D01*
X590561300Y-14974900D02*
X590561300Y-9174900D01*
X447173300Y-94899600D02*
X447974300Y-94899600D01*
X442924300Y-90800000D02*
X428924300Y-90800000D01*
X381812100Y-6075900D02*
X381011300Y-6075900D01*
X623899300Y-56799600D02*
X624698300Y-56799600D01*
X467537300Y-6075900D02*
X466736300Y-6075900D01*
X481024300Y-104799400D02*
X481024300Y-103800300D01*
X537661300Y-46650200D02*
X538462300Y-46650200D01*
X447686300Y-5074900D02*
X433687300Y-5074900D01*
X569998300Y-104569200D02*
X569998300Y-105550400D01*
X533411300Y-122850280D02*
X534212300Y-122850280D01*
X609899300Y-33650000D02*
X609899300Y-34650400D01*
X518611300Y-37749600D02*
X519412300Y-37749600D01*
X585799300Y-62599600D02*
X585799300Y-56799600D01*
X590137300Y-41149300D02*
X590137300Y-38350400D01*
X490837300Y-65700200D02*
X490837300Y-66699200D01*
X564654300Y-84750200D02*
X564654300Y-85749200D01*
X352436300Y-65700200D02*
X353237100Y-65700200D01*
X578655300Y-81050200D02*
X580179300Y-81050200D01*
X489955300Y-110399700D02*
X486654300Y-110399700D01*
X581837300Y-115611500D02*
X581036300Y-115611500D01*
X528136300Y-53700400D02*
X528136300Y-56799600D01*
X528649300Y-85749200D02*
X528649300Y-84750200D01*
X390824500Y-90800000D02*
X390824500Y-91800400D01*
X336054300Y-113949600D02*
X336054300Y-119749700D01*
D11*
X361961300Y-5074900D02*
X347962000Y-19073900D01*
X450212300Y-46650200D02*
X450212075Y-49749200D01*
D10*
X428924300Y-104799400D02*
X442924300Y-104799400D01*
X448487300Y-62599600D02*
X447686300Y-62599600D01*
X352724500Y-103800300D02*
X352724500Y-104799400D01*
X404311200Y-18074900D02*
X405110600Y-18074900D01*
X376537000Y-52700000D02*
X376537000Y-53700400D01*
X623899300Y-33650000D02*
X609899300Y-33650000D01*
X485786300Y-9174900D02*
X486587300Y-9174900D01*
D11*
X421637300Y-65700200D02*
X421637075Y-68799200D01*
D10*
X442411300Y-37749600D02*
X443212300Y-37749600D01*
X490837300Y-62599600D02*
X490036300Y-62599600D01*
D11*
X447975000Y-90800200D02*
X461974300Y-104799400D01*
D10*
X609098300Y-14974900D02*
X609098300Y-18074900D01*
X414349300Y-84750200D02*
X415148300Y-84750200D01*
X320967600Y-100699700D02*
X320967600Y-103800300D01*
D11*
X504836300Y-5074900D02*
X490837300Y-19073900D01*
X388299500Y-84750200D02*
X388299275Y-87849200D01*
D10*
X324662100Y-18074900D02*
X324662100Y-14974900D01*
X457211300Y-37749600D02*
X458012300Y-37749600D01*
X537661300Y-14974900D02*
X537661300Y-18074900D01*
X484929300Y-111320200D02*
X484929300Y-114550400D01*
X376248800Y-84750200D02*
X377048200Y-84750200D01*
X490549300Y-71750000D02*
X476549300Y-71750000D01*
X328111300Y-37749600D02*
X328912000Y-37749600D01*
X619136300Y-127611410D02*
X619937300Y-127611410D01*
D11*
X400061300Y-5074900D02*
X386062000Y-19073900D01*
D10*
X552461300Y-34650400D02*
X552461300Y-33650000D01*
X327043300Y-110850300D02*
X326242700Y-110850300D01*
X496112300Y-34650400D02*
X495311300Y-34650400D01*
D11*
X359724500Y-103800300D02*
X359724275Y-106899300D01*
X433687000Y-66699200D02*
X447686300Y-52700000D01*
D10*
X438449300Y-75849600D02*
X438449300Y-81649600D01*
X519412300Y-18074900D02*
X519412300Y-19073900D01*
X424160300Y-33650000D02*
X424160300Y-34650400D01*
D11*
X328624460Y-65700200D02*
X314624460Y-65700200D01*
X528937000Y-66699200D02*
X542936300Y-52700000D01*
D10*
X390824500Y-100699700D02*
X390023700Y-100699700D01*
X456698300Y-84750200D02*
X457499300Y-84750200D01*
X623899300Y-72750400D02*
X623899300Y-71750000D01*
X394786200Y-53700400D02*
X394786200Y-56799600D01*
X519923300Y-103800300D02*
X519923300Y-100699700D01*
X428636300Y-52700000D02*
X414637300Y-52700000D01*
X586598300Y-65700200D02*
X586598300Y-62599600D01*
D11*
X609900000Y-47649200D02*
X623899300Y-33650000D01*
X343199500Y-85749200D02*
X357198800Y-71750000D01*
X357487000Y-52700000D02*
X371486300Y-66699200D01*
D10*
X623899300Y-9174900D02*
X624698300Y-9174900D01*
X509887300Y-65700200D02*
X509887300Y-66699200D01*
X335255100Y-113949600D02*
X336054300Y-113949600D01*
X390023700Y-91800400D02*
X390023700Y-94899600D01*
X564654300Y-72750400D02*
X563853300Y-72750400D01*
X385773800Y-94899600D02*
X386573200Y-94899600D01*
X313823830Y-56799600D02*
X314624460Y-56799600D01*
X362762100Y-43549600D02*
X361961300Y-43549600D01*
D11*
X371774500Y-104799400D02*
X385773800Y-90800200D01*
D10*
X352436300Y-52700000D02*
X338437000Y-52700000D01*
D11*
X390824500Y-104799400D02*
X404823800Y-90800200D01*
D10*
X605137300Y-115611500D02*
X604336300Y-115611500D01*
X404823800Y-90800000D02*
X390824500Y-90800000D01*
X400061300Y-33650000D02*
X386062000Y-33650000D01*
X555555300Y-79249300D02*
X556379300Y-79249300D01*
X347962000Y-46650200D02*
X347962000Y-47649200D01*
X569998300Y-92270300D02*
X568274300Y-92270300D01*
X329423200Y-65700200D02*
X329423200Y-62599600D01*
X342398800Y-81649600D02*
X342398800Y-84750200D01*
D11*
X457212300Y-46650200D02*
X443212300Y-46650200D01*
D10*
X538462300Y-43549600D02*
X537661300Y-43549600D01*
X347962000Y-6075900D02*
X347161200Y-6075900D01*
X357487000Y-65700200D02*
X357487000Y-66699200D01*
D11*
X409587000Y-65700200D02*
X395587000Y-65700200D01*
D10*
X446104300Y-122850280D02*
X446104300Y-119749700D01*
X500074300Y-100699700D02*
X500074300Y-94899600D01*
X538462300Y-47649200D02*
X552461300Y-47649200D01*
X581837300Y-43549600D02*
X581036300Y-43549600D01*
X331804500Y-75849600D02*
X331804500Y-72750400D01*
X533411300Y-6075900D02*
X533411300Y-5074900D01*
X367012000Y-14974900D02*
X366211200Y-14974900D01*
X335255100Y-119749700D02*
X335255100Y-122850280D01*
X376248800Y-85749200D02*
X376248800Y-84750200D01*
X553262300Y-37749600D02*
X553262300Y-34650400D01*
X342317500Y-91349600D02*
X339017100Y-91349600D01*
X538973300Y-91800400D02*
X538174300Y-91800400D01*
X515162300Y-113949600D02*
X515162300Y-110850300D01*
X381812100Y-43549600D02*
X381011300Y-43549600D01*
X419399300Y-75849600D02*
X419399300Y-81649600D01*
X405623200Y-91800400D02*
X404823800Y-91800400D01*
X350055100Y-109849900D02*
X336054300Y-109849900D01*
X452737300Y-14974900D02*
X451936300Y-14974900D01*
X547987300Y-56799600D02*
X547987300Y-62599600D01*
X514649300Y-75849600D02*
X514649300Y-81649600D01*
X452737300Y-18074900D02*
X452737300Y-19073900D01*
D11*
X316861950Y-46650200D02*
X316861725Y-49749200D01*
D10*
X328912000Y-46650200D02*
X328912000Y-47649200D01*
X519412300Y-113949600D02*
X519412300Y-119749700D01*
X558104300Y-85519200D02*
X558104300Y-86500300D01*
X499561300Y-122850280D02*
X500362300Y-122850280D01*
X490036300Y-56799600D02*
X490837300Y-56799600D01*
X399548700Y-75849600D02*
X400349500Y-75849600D01*
X461461300Y-46650200D02*
X462262300Y-46650200D01*
X467537300Y-56799600D02*
X467537300Y-53700400D01*
X586087300Y-105462200D02*
X585286300Y-105462200D01*
X567037300Y-42950200D02*
X567037300Y-43549600D01*
D11*
X462262000Y-33650000D02*
X476261300Y-47649200D01*
D10*
X419111300Y-14974900D02*
X419111300Y-9174900D01*
X324662100Y-14974900D02*
X323861500Y-14974900D01*
X386573200Y-100699700D02*
X385773800Y-100699700D01*
X546198300Y-105550400D02*
X549498300Y-105550400D01*
X624698300Y-81649600D02*
X623899300Y-81649600D01*
X500074300Y-94899600D02*
X500873300Y-94899600D01*
X476261300Y-43549600D02*
X476261300Y-37749600D01*
X490837300Y-19073900D02*
X504836300Y-19073900D01*
X624698300Y-103800300D02*
X624698300Y-100699700D01*
X532898300Y-75849600D02*
X533699300Y-75849600D01*
X433687300Y-19073900D02*
X447686300Y-19073900D01*
X309061310Y-46650200D02*
X309861950Y-46650200D01*
X453248300Y-84750200D02*
X453248300Y-81649600D01*
X609899300Y-56799600D02*
X609899300Y-62599600D01*
X558104300Y-72299600D02*
X558104300Y-73220300D01*
X471787300Y-14974900D02*
X470986300Y-14974900D01*
X623899300Y-43549600D02*
X623899300Y-37749600D01*
X443212300Y-37749600D02*
X443212300Y-43549600D01*
X419910300Y-43549600D02*
X419111300Y-43549600D01*
X433687300Y-6075900D02*
X432886300Y-6075900D01*
X372287100Y-62599600D02*
X371486300Y-62599600D01*
X433687300Y-62599600D02*
X432886300Y-62599600D01*
D11*
X516887300Y-65700200D02*
X516887075Y-68799200D01*
D10*
X323861500Y-33650000D02*
X309861950Y-33650000D01*
X400860700Y-6075900D02*
X400061300Y-6075900D01*
D11*
X466737300Y-6075900D02*
X452737300Y-6075900D01*
X497837300Y-6075900D02*
X497837075Y-9174900D01*
X540699300Y-84750200D02*
X540699075Y-87849200D01*
D10*
X561986300Y-56799600D02*
X562787300Y-56799600D01*
X423874300Y-103800300D02*
X424673300Y-103800300D01*
X343712100Y-46650200D02*
X343712100Y-43549600D01*
X528649300Y-71750000D02*
X514649300Y-71750000D01*
X485786300Y-66699200D02*
X485786300Y-65700200D01*
X533699300Y-81649600D02*
X532898300Y-81649600D01*
D11*
X367012000Y-47649200D02*
X381011300Y-33650000D01*
X616899300Y-65700200D02*
X616899075Y-68799200D01*
D10*
X538462300Y-46650200D02*
X538462300Y-47649200D01*
X537661300Y-110850300D02*
X537661300Y-113949600D01*
X556379300Y-85519200D02*
X558104300Y-85519200D01*
X514361300Y-37749600D02*
X515162300Y-37749600D01*
X430505300Y-113949600D02*
X431304300Y-113949600D01*
D11*
X623899300Y-19073900D02*
X609899300Y-5074900D01*
D10*
X519124300Y-94899600D02*
X519923300Y-94899600D01*
X424673300Y-91800400D02*
X423874300Y-91800400D01*
X419111300Y-19073900D02*
X419111300Y-18074900D01*
X495311300Y-47649200D02*
X495311300Y-46650200D01*
D11*
X367012000Y-9174900D02*
X381011300Y-9174900D01*
D10*
X600086300Y-99662100D02*
X600887300Y-99662100D01*
X395298800Y-71750000D02*
X381299500Y-71750000D01*
X533411300Y-34650400D02*
X533411300Y-33650000D01*
X370973700Y-94899600D02*
X371774500Y-94899600D01*
D11*
X585799300Y-65700200D02*
X571799300Y-65700200D01*
D10*
X490837300Y-14974900D02*
X490036300Y-14974900D01*
X551224300Y-100100300D02*
X552749300Y-100100300D01*
X505124300Y-100699700D02*
X504323300Y-100699700D01*
X605137300Y-114612400D02*
X605137300Y-115611500D01*
X586087300Y-109561900D02*
X600086300Y-109561900D01*
X451936300Y-14974900D02*
X451936300Y-18074900D01*
X476261300Y-33650000D02*
X462262300Y-33650000D01*
X309061310Y-6075900D02*
X309061310Y-9174900D01*
D11*
X314624700Y-66699200D02*
X328624000Y-52700000D01*
X559749300Y-103800300D02*
X559749075Y-106899300D01*
D10*
X362249500Y-71750000D02*
X362249500Y-72750400D01*
X542936300Y-53700400D02*
X542936300Y-52700000D01*
X623899300Y-75849600D02*
X624698300Y-75849600D01*
X390824500Y-91800400D02*
X390023700Y-91800400D01*
X490837300Y-52700000D02*
X490837300Y-53700400D01*
X563853300Y-84750200D02*
X564654300Y-84750200D01*
D11*
X552461300Y-19073900D02*
X538462300Y-5074900D01*
D10*
X533411300Y-123849380D02*
X533411300Y-122850280D01*
X409586300Y-65700200D02*
X410387300Y-65700200D01*
X561986300Y-53700400D02*
X561986300Y-52700000D01*
X327043300Y-113949600D02*
X327043300Y-110850300D01*
X513848300Y-84750200D02*
X514649300Y-84750200D01*
X462262300Y-33650000D02*
X462262300Y-34650400D01*
X357198800Y-72750400D02*
X357198800Y-71750000D01*
X560485300Y-34199600D02*
X560485300Y-35120300D01*
X552461300Y-110850300D02*
X552461300Y-109849900D01*
X624698300Y-65700200D02*
X624698300Y-62599600D01*
D11*
X623899300Y-46650200D02*
X609899300Y-46650200D01*
D10*
X467024300Y-100699700D02*
X466223300Y-100699700D01*
D11*
X354961775Y-12074400D02*
X354961775Y-9174900D01*
D10*
X573299300Y-104569200D02*
X575024300Y-104569200D01*
D11*
X390824500Y-90800200D02*
X404823800Y-104799400D01*
D10*
X609899300Y-71750000D02*
X609899300Y-72750400D01*
X514649300Y-84750200D02*
X514649300Y-85749200D01*
X518611300Y-14974900D02*
X518611300Y-18074900D01*
X344042700Y-92270300D02*
X342317500Y-92270300D01*
X476261300Y-47649200D02*
X476261300Y-46650200D01*
X584287300Y-35120300D02*
X582562300Y-35120300D01*
X336054300Y-122850280D02*
X336054300Y-123849380D01*
X471787300Y-66699200D02*
X485786300Y-66699200D01*
X609899300Y-6075900D02*
X609098300Y-6075900D01*
D11*
X326243210Y-122850280D02*
X312243210Y-122850280D01*
D10*
X514361300Y-109849900D02*
X500362300Y-109849900D01*
X524687300Y-65700200D02*
X524687300Y-62599600D01*
X415148300Y-81649600D02*
X414349300Y-81649600D01*
D11*
X552462300Y-46650200D02*
X538462300Y-46650200D01*
D10*
X515162300Y-43549600D02*
X514361300Y-43549600D01*
X619136300Y-115611500D02*
X619136300Y-114612400D01*
X433399300Y-72750400D02*
X433399300Y-71750000D01*
X309861950Y-33650000D02*
X309861950Y-34650400D01*
X343199500Y-85749200D02*
X357198800Y-85749200D01*
X561986300Y-52700000D02*
X547987300Y-52700000D01*
X543737300Y-56799600D02*
X543737300Y-53700400D01*
X451936300Y-53700400D02*
X451936300Y-56799600D01*
D11*
X428925000Y-90800200D02*
X442924300Y-104799400D01*
D10*
X587754300Y-76450400D02*
X586930300Y-76450400D01*
X514649300Y-72750400D02*
X513848300Y-72750400D01*
D11*
X526412075Y-12074400D02*
X526412075Y-9174900D01*
D10*
X529448300Y-81649600D02*
X528649300Y-81649600D01*
D11*
X386062000Y-9174900D02*
X400061550Y-9174900D01*
D10*
X342317500Y-105550400D02*
X342317500Y-104569200D01*
D11*
X381012000Y-6075900D02*
X367012000Y-6075900D01*
D10*
X623899300Y-34650400D02*
X623899300Y-33650000D01*
X367012000Y-6075900D02*
X366211200Y-6075900D01*
X586087300Y-96561500D02*
X585286300Y-96561500D01*
X523886300Y-53700400D02*
X523886300Y-52700000D01*
X571511300Y-18074900D02*
X572312300Y-18074900D01*
X567037300Y-38350400D02*
X565511300Y-38350400D01*
X343199500Y-71750000D02*
X343199500Y-72750400D01*
D11*
X574037300Y-46650200D02*
X574037075Y-49749200D01*
D10*
X552461300Y-113949600D02*
X553262300Y-113949600D01*
X543649300Y-95500400D02*
X543649300Y-98299200D01*
X461461300Y-37749600D02*
X462262300Y-37749600D01*
X475748300Y-72750400D02*
X475748300Y-75849600D01*
X565511300Y-35120300D02*
X563786300Y-35120300D01*
X367012000Y-19073900D02*
X381011300Y-19073900D01*
X480511300Y-43549600D02*
X480511300Y-46650200D01*
X600887300Y-96561500D02*
X600086300Y-96561500D01*
D11*
X373868300Y-122850280D02*
X359868300Y-122850280D01*
D10*
X538462300Y-33650000D02*
X538462300Y-34650400D01*
D11*
X433687300Y-5074900D02*
X447686300Y-19073900D01*
D10*
X357198800Y-71750000D02*
X343199500Y-71750000D01*
X377048200Y-81649600D02*
X376248800Y-81649600D01*
X353237100Y-62599600D02*
X352436300Y-62599600D01*
D11*
X476262300Y-46650200D02*
X462262300Y-46650200D01*
D10*
X371486300Y-52700000D02*
X357487000Y-52700000D01*
X528649300Y-72750400D02*
X528649300Y-71750000D01*
D11*
X414637000Y-66699200D02*
X428636300Y-52700000D01*
D10*
X400349500Y-85749200D02*
X414349300Y-85749200D01*
X624698300Y-9174900D02*
X624698300Y-6075900D01*
X600086300Y-96561500D02*
X600086300Y-95562500D01*
X391680400Y-114550400D02*
X391680400Y-111320200D01*
X585799300Y-53700400D02*
X585799300Y-52700000D01*
X533699300Y-71750000D02*
X533699300Y-72750400D01*
X320242700Y-92270300D02*
X318517400Y-92270300D01*
X359067500Y-110850300D02*
X359067500Y-113949600D01*
X567037300Y-118712100D02*
X567037300Y-124512220D01*
D11*
X581037300Y-46650200D02*
X567037300Y-46650200D01*
D10*
X570998300Y-56799600D02*
X571799300Y-56799600D01*
X400061300Y-19073900D02*
X400061300Y-18074900D01*
X557512300Y-9174900D02*
X557512300Y-14974900D01*
X323861500Y-5074900D02*
X309861950Y-5074900D01*
X604336300Y-118712100D02*
X605137300Y-118712100D01*
X557936300Y-38350400D02*
X557936300Y-41149300D01*
D11*
X500362000Y-109850180D02*
X514361300Y-123849380D01*
D10*
X486587300Y-14974900D02*
X485786300Y-14974900D01*
X466736300Y-6075900D02*
X466736300Y-5074900D01*
X575761300Y-18074900D02*
X576562300Y-18074900D01*
D11*
X500074300Y-103800300D02*
X486074300Y-103800300D01*
D10*
X553262300Y-46650200D02*
X553262300Y-43549600D01*
X538462300Y-5074900D02*
X538462300Y-6075900D01*
X337636300Y-62599600D02*
X337636300Y-65700200D01*
X390536300Y-66699200D02*
X390536300Y-65700200D01*
X400061300Y-34650400D02*
X400061300Y-33650000D01*
X544474300Y-104569200D02*
X546198300Y-104569200D01*
X490549300Y-85749200D02*
X490549300Y-84750200D01*
D11*
X352437000Y-65700200D02*
X338437000Y-65700200D01*
D10*
X321768200Y-100100300D02*
X321768200Y-100699700D01*
X490549300Y-81649600D02*
X490549300Y-75849600D01*
X336568300Y-91800400D02*
X335767700Y-91800400D01*
X432886300Y-65700200D02*
X433687300Y-65700200D01*
X500362300Y-122850280D02*
X500362300Y-123849380D01*
X366211200Y-14974900D02*
X366211200Y-18074900D01*
X431304300Y-123849380D02*
X445305300Y-123849380D01*
X409586300Y-52700000D02*
X395587000Y-52700000D01*
D11*
X509599300Y-84750200D02*
X495599300Y-84750200D01*
D10*
X437648300Y-84750200D02*
X438449300Y-84750200D01*
X311442580Y-122850280D02*
X312243210Y-122850280D01*
X371774500Y-94899600D02*
X371774500Y-100699700D01*
X361961300Y-19073900D02*
X361961300Y-18074900D01*
X466736300Y-62599600D02*
X466736300Y-56799600D01*
D11*
X438450000Y-85749200D02*
X452449300Y-71750000D01*
D10*
X389954900Y-124599040D02*
X389954900Y-123619230D01*
X386062000Y-33650000D02*
X386062000Y-34650400D01*
D11*
X535937300Y-65700200D02*
X535937075Y-68799200D01*
X616899300Y-84750200D02*
X616899075Y-87849200D01*
D10*
X312243210Y-113949600D02*
X312243210Y-119749700D01*
X432886300Y-56799600D02*
X433687300Y-56799600D01*
X604336300Y-115611500D02*
X604336300Y-118712100D01*
X448487300Y-65700200D02*
X448487300Y-62599600D01*
X359067500Y-122850280D02*
X359868300Y-122850280D01*
X519923300Y-100699700D02*
X519124300Y-100699700D01*
X347161200Y-46650200D02*
X347962000Y-46650200D01*
X351923700Y-94899600D02*
X352724500Y-94899600D01*
X437648300Y-81649600D02*
X437648300Y-84750200D01*
D11*
X352724500Y-104799400D02*
X366723800Y-90800200D01*
D10*
X452737300Y-19073900D02*
X466736300Y-19073900D01*
X552461300Y-6075900D02*
X552461300Y-5074900D01*
X623899300Y-65700200D02*
X624698300Y-65700200D01*
X467537300Y-62599600D02*
X466736300Y-62599600D01*
X423361300Y-43549600D02*
X423361300Y-46650200D01*
X342317500Y-92270300D02*
X342317500Y-91349600D01*
X600887300Y-127611410D02*
X600887300Y-124512220D01*
D11*
X538462000Y-47649200D02*
X552461300Y-33650000D01*
D10*
X335255100Y-110850300D02*
X335255100Y-113949600D01*
X329423200Y-62599600D02*
X328624000Y-62599600D01*
X572312300Y-6075900D02*
X571511300Y-6075900D01*
X362249500Y-72750400D02*
X361448700Y-72750400D01*
X489955300Y-111320200D02*
X489955300Y-110399700D01*
X366723800Y-104799400D02*
X366723800Y-103800300D01*
D11*
X369249500Y-84750200D02*
X369249275Y-87849200D01*
D10*
X566749300Y-95500400D02*
X566749300Y-94899600D01*
D11*
X471787300Y-19073900D02*
X485786300Y-5074900D01*
D10*
X428636300Y-62599600D02*
X428636300Y-56799600D01*
X357487000Y-56799600D02*
X357487000Y-62599600D01*
X499561300Y-34650400D02*
X499561300Y-37749600D01*
X419111300Y-18074900D02*
X419910300Y-18074900D01*
X324662100Y-43549600D02*
X323861500Y-43549600D01*
X309061310Y-37749600D02*
X309861950Y-37749600D01*
X414637300Y-65700200D02*
X414637300Y-66699200D01*
X386654300Y-111320200D02*
X384929300Y-111320200D01*
X552461300Y-47649200D02*
X552461300Y-46650200D01*
X537661300Y-6075900D02*
X537661300Y-9174900D01*
X386062000Y-9174900D02*
X386062000Y-14974900D01*
X434198300Y-75849600D02*
X434198300Y-72750400D01*
X443723300Y-91800400D02*
X442924300Y-91800400D01*
X331804500Y-84750200D02*
X331804500Y-81649600D01*
X529448300Y-75849600D02*
X529448300Y-72750400D01*
X390536300Y-53700400D02*
X390536300Y-52700000D01*
X467537300Y-9174900D02*
X467537300Y-6075900D01*
D11*
X616899300Y-103800300D02*
X616899075Y-106899300D01*
D10*
X585286300Y-124512220D02*
X585286300Y-127611410D01*
X384929300Y-117349200D02*
X384929300Y-123619230D01*
X575761300Y-14974900D02*
X575761300Y-18074900D01*
X553262300Y-110850300D02*
X552461300Y-110850300D01*
X386654300Y-124599040D02*
X389954900Y-124599040D01*
D11*
X547987000Y-52700000D02*
X561986300Y-66699200D01*
D10*
X542936300Y-56799600D02*
X543737300Y-56799600D01*
X585205300Y-85519200D02*
X586930300Y-85519200D01*
X491348300Y-81649600D02*
X490549300Y-81649600D01*
X523886300Y-56799600D02*
X524687300Y-56799600D01*
X538462300Y-18074900D02*
X538462300Y-19073900D01*
X581837300Y-118712100D02*
X581837300Y-115611500D01*
X563130300Y-85519200D02*
X563130300Y-81050200D01*
D11*
X523887300Y-65700200D02*
X509887300Y-65700200D01*
D10*
X347962000Y-18074900D02*
X347962000Y-19073900D01*
X532898300Y-81649600D02*
X532898300Y-84750200D01*
X423874300Y-90800000D02*
X409874300Y-90800000D01*
X519124300Y-103800300D02*
X519923300Y-103800300D01*
X384929300Y-111320200D02*
X384929300Y-114550400D01*
X385773800Y-91800400D02*
X385773800Y-90800000D01*
X447686300Y-66699200D02*
X447686300Y-65700200D01*
X519412300Y-123849380D02*
X533411300Y-123849380D01*
X447974300Y-90800000D02*
X447974300Y-91800400D01*
D11*
X324004330Y-84750200D02*
X324004105Y-87849200D01*
D10*
X317004330Y-72750400D02*
X316205080Y-72750400D01*
X328111300Y-43549600D02*
X328111300Y-46650200D01*
D11*
X395587000Y-52700000D02*
X409586300Y-66699200D01*
X564512300Y-6075900D02*
X564512075Y-9174900D01*
D10*
X589311300Y-41149300D02*
X590137300Y-41149300D01*
X604336300Y-127611410D02*
X605137300Y-127611410D01*
X509599300Y-84750200D02*
X510398300Y-84750200D01*
X428924300Y-91800400D02*
X428123300Y-91800400D01*
X331005200Y-72750400D02*
X331005200Y-71750000D01*
X495311300Y-37749600D02*
X496112300Y-37749600D01*
X623899300Y-81649600D02*
X623899300Y-75849600D01*
X447686300Y-56799600D02*
X448487300Y-56799600D01*
X624698300Y-56799600D02*
X624698300Y-53700400D01*
X377048200Y-84750200D02*
X377048200Y-81649600D01*
X405110600Y-9174900D02*
X405110600Y-14974900D01*
X400061300Y-18074900D02*
X400860700Y-18074900D01*
X374668400Y-119749700D02*
X373867600Y-119749700D01*
X567037300Y-37749600D02*
X567037300Y-38350400D01*
D11*
X519124300Y-103800300D02*
X505124300Y-103800300D01*
D10*
X350055100Y-122850280D02*
X350854500Y-122850280D01*
X461974300Y-94899600D02*
X462773300Y-94899600D01*
X547987300Y-66699200D02*
X561986300Y-66699200D01*
X323861500Y-14974900D02*
X323861500Y-9174900D01*
X471787300Y-62599600D02*
X470986300Y-62599600D01*
D11*
X476550000Y-85749200D02*
X490549300Y-71750000D01*
D10*
X586087300Y-114612400D02*
X586087300Y-115611500D01*
X400061300Y-6075900D02*
X400061300Y-5074900D01*
X467024300Y-91800400D02*
X466223300Y-91800400D01*
X352724500Y-91800400D02*
X351923700Y-91800400D01*
X372287100Y-56799600D02*
X372287100Y-53700400D01*
X419111300Y-6075900D02*
X419111300Y-5074900D01*
X558104300Y-86500300D02*
X561403300Y-86500300D01*
X495599300Y-75849600D02*
X495599300Y-81649600D01*
X434198300Y-81649600D02*
X433399300Y-81649600D01*
X433399300Y-75849600D02*
X434198300Y-75849600D01*
X446104300Y-110850300D02*
X445305300Y-110850300D01*
X458012300Y-43549600D02*
X457211300Y-43549600D01*
X471499300Y-81649600D02*
X471499300Y-75849600D01*
D11*
X486075000Y-90800200D02*
X500074300Y-104799400D01*
D10*
X431304300Y-114550400D02*
X391680400Y-114550400D01*
D11*
X623899300Y-5074900D02*
X609899300Y-19073900D01*
X402587000Y-65700200D02*
X402586775Y-68799200D01*
X359868300Y-109850180D02*
X373867600Y-123849380D01*
X309861950Y-33650000D02*
X323861500Y-47649200D01*
D10*
X623899300Y-19073900D02*
X623899300Y-18074900D01*
X557936300Y-41149300D02*
X558762300Y-41149300D01*
D11*
X481024300Y-103800300D02*
X467024300Y-103800300D01*
D10*
X552749300Y-100100300D02*
X552749300Y-100699700D01*
X438449300Y-84750200D02*
X438449300Y-85749200D01*
X409874300Y-100699700D02*
X409073300Y-100699700D01*
X476261300Y-37749600D02*
X477062300Y-37749600D01*
X451936300Y-56799600D02*
X452737300Y-56799600D01*
X428924300Y-90800000D02*
X428924300Y-91800400D01*
X534212300Y-37749600D02*
X534212300Y-34650400D01*
X431304300Y-122850280D02*
X431304300Y-123849380D01*
X579454300Y-81649600D02*
X578655300Y-81649600D01*
X486587300Y-62599600D02*
X485786300Y-62599600D01*
X313823830Y-65700200D02*
X314624460Y-65700200D01*
X490837300Y-56799600D02*
X490837300Y-62599600D01*
D11*
X323861950Y-6075900D02*
X309861950Y-6075900D01*
D10*
X543737300Y-65700200D02*
X543737300Y-62599600D01*
X538462300Y-113949600D02*
X538462300Y-119749700D01*
X443723300Y-94899600D02*
X443723300Y-91800400D01*
X551224300Y-92270300D02*
X549498300Y-92270300D01*
D11*
X442924300Y-103800300D02*
X428924300Y-103800300D01*
X500362000Y-33650000D02*
X514361300Y-47649200D01*
X571512300Y-6075900D02*
X557512300Y-6075900D01*
D10*
X347962000Y-47649200D02*
X361961300Y-47649200D01*
X410387300Y-56799600D02*
X410387300Y-53700400D01*
X523373300Y-91800400D02*
X523373300Y-94899600D01*
X500362300Y-110850300D02*
X499561300Y-110850300D01*
X396098200Y-84750200D02*
X396098200Y-81649600D01*
X351923700Y-91800400D02*
X351923700Y-94899600D01*
X543737300Y-62599600D02*
X542936300Y-62599600D01*
X590561300Y-9174900D02*
X591362300Y-9174900D01*
D11*
X357199500Y-84750200D02*
X343199500Y-84750200D01*
D10*
X494798300Y-72750400D02*
X494798300Y-75849600D01*
X563786300Y-34199600D02*
X560485300Y-34199600D01*
X438161300Y-33650000D02*
X424160300Y-33650000D01*
X523373300Y-103800300D02*
X524174300Y-103800300D01*
X390536300Y-52700000D02*
X376537000Y-52700000D01*
X428636300Y-53700400D02*
X428636300Y-52700000D01*
X585799300Y-66699200D02*
X585799300Y-65700200D01*
X581036300Y-118712100D02*
X581837300Y-118712100D01*
X357198800Y-84750200D02*
X357998200Y-84750200D01*
X585799300Y-56799600D02*
X586598300Y-56799600D01*
X538462300Y-19073900D02*
X552461300Y-19073900D01*
X350854500Y-110850300D02*
X350055100Y-110850300D01*
X423874300Y-91800400D02*
X423874300Y-90800000D01*
D11*
X395587000Y-66699200D02*
X409586300Y-52700000D01*
D10*
X438449300Y-85749200D02*
X452449300Y-85749200D01*
X384929300Y-114550400D02*
X384105200Y-114550400D01*
X505124300Y-90800000D02*
X505124300Y-91800400D01*
X566749300Y-94899600D02*
X567548300Y-94899600D01*
X367012000Y-18074900D02*
X367012000Y-19073900D01*
X470986300Y-14974900D02*
X470986300Y-18074900D01*
X624698300Y-94899600D02*
X624698300Y-91800400D01*
X350854500Y-113949600D02*
X350854500Y-110850300D01*
X485786300Y-5074900D02*
X471787300Y-5074900D01*
X336054300Y-123849380D02*
X350055100Y-123849380D01*
D11*
X552462300Y-6075900D02*
X538462300Y-6075900D01*
D10*
X413836300Y-62599600D02*
X413836300Y-65700200D01*
X514361300Y-113949600D02*
X515162300Y-113949600D01*
D11*
X519412000Y-123849380D02*
X533411300Y-109850180D01*
D10*
X484929300Y-123619230D02*
X486654300Y-123619230D01*
X385773800Y-103800300D02*
X386573200Y-103800300D01*
X553262300Y-113949600D02*
X553262300Y-110850300D01*
X353237100Y-65700200D02*
X353237100Y-62599600D01*
X533699300Y-75849600D02*
X533699300Y-81649600D01*
X476261300Y-46650200D02*
X477062300Y-46650200D01*
X338437000Y-53700400D02*
X337636300Y-53700400D01*
D11*
X593087300Y-127611410D02*
X593087075Y-130710410D01*
X512124300Y-103800300D02*
X512124075Y-106899300D01*
D10*
X619136300Y-118712100D02*
X619937300Y-118712100D01*
X576562300Y-19073900D02*
X590561300Y-19073900D01*
X518611300Y-6075900D02*
X518611300Y-9174900D01*
D11*
X319243210Y-122850280D02*
X319242985Y-125949280D01*
D10*
X580179300Y-81050200D02*
X580179300Y-85519200D01*
X480511300Y-37749600D02*
X481312300Y-37749600D01*
X361961300Y-37749600D02*
X362762100Y-37749600D01*
X571511300Y-5074900D02*
X557512300Y-5074900D01*
X505637300Y-53700400D02*
X504836300Y-53700400D01*
X567548300Y-91800400D02*
X566749300Y-91800400D01*
X558762300Y-38350400D02*
X557936300Y-38350400D01*
X320967600Y-103800300D02*
X321768200Y-103800300D01*
X586087300Y-108561400D02*
X586087300Y-109561900D01*
X551224300Y-104569200D02*
X551224300Y-100100300D01*
X582562300Y-38350400D02*
X581036300Y-38350400D01*
X564654300Y-85749200D02*
X578655300Y-85749200D01*
X409586300Y-53700400D02*
X409586300Y-52700000D01*
X485273300Y-94899600D02*
X486074300Y-94899600D01*
X528136300Y-65700200D02*
X528937300Y-65700200D01*
X328111300Y-46650200D02*
X328912000Y-46650200D01*
X337636300Y-65700200D02*
X338437000Y-65700200D01*
X433687300Y-9174900D02*
X433687300Y-14974900D01*
X313493100Y-104569200D02*
X315218390Y-104569200D01*
X413836300Y-65700200D02*
X414637300Y-65700200D01*
X544474300Y-95500400D02*
X543649300Y-95500400D01*
D11*
X424162000Y-47649200D02*
X438161300Y-33650000D01*
D10*
X442924300Y-91800400D02*
X442924300Y-90800000D01*
X328111300Y-34650400D02*
X328111300Y-37749600D01*
X551948300Y-103800300D02*
X552749300Y-103800300D01*
X519923300Y-94899600D02*
X519923300Y-91800400D01*
X504836300Y-62599600D02*
X504836300Y-56799600D01*
X347161200Y-9174900D02*
X347962000Y-9174900D01*
X556711300Y-18074900D02*
X557512300Y-18074900D01*
X528937300Y-65700200D02*
X528937300Y-66699200D01*
D11*
X564656000Y-71750000D02*
X578655300Y-85749200D01*
D10*
X321768200Y-103800300D02*
X321768200Y-104799400D01*
X589311300Y-35120300D02*
X587586300Y-35120300D01*
X453248300Y-72750400D02*
X452449300Y-72750400D01*
X624698300Y-43549600D02*
X623899300Y-43549600D01*
X309861950Y-46650200D02*
X309861950Y-47649200D01*
X578655300Y-72750400D02*
X578655300Y-71750000D01*
X486074300Y-104799400D02*
X500074300Y-104799400D01*
X567037300Y-43549600D02*
X566236300Y-43549600D01*
D11*
X404824500Y-103800300D02*
X390824500Y-103800300D01*
D10*
X472298300Y-84750200D02*
X472298300Y-81649600D01*
X367523200Y-100699700D02*
X366723800Y-100699700D01*
X518611300Y-43549600D02*
X518611300Y-46650200D01*
X429437300Y-62599600D02*
X428636300Y-62599600D01*
X481823300Y-103800300D02*
X481823300Y-100699700D01*
X328624000Y-56799600D02*
X329423200Y-56799600D01*
X619937300Y-127611410D02*
X619937300Y-124512220D01*
X538973300Y-100699700D02*
X538174300Y-100699700D01*
D11*
X471787000Y-66699200D02*
X485786300Y-52700000D01*
X504837300Y-65700200D02*
X490837300Y-65700200D01*
D10*
X542936300Y-65700200D02*
X543737300Y-65700200D01*
X343199500Y-81649600D02*
X342398800Y-81649600D01*
X381011300Y-6075900D02*
X381011300Y-5074900D01*
X544474300Y-92270300D02*
X544474300Y-95500400D01*
X495599300Y-72750400D02*
X494798300Y-72750400D01*
X542936300Y-62599600D02*
X542936300Y-56799600D01*
X335767700Y-104799400D02*
X335767700Y-103800300D01*
X494798300Y-81649600D02*
X494798300Y-84750200D01*
D11*
X419400000Y-85749200D02*
X433399300Y-71750000D01*
X445304300Y-122850280D02*
X431304300Y-122850280D01*
D10*
X462773300Y-94899600D02*
X462773300Y-91800400D01*
D11*
X309861950Y-47649200D02*
X323861500Y-33650000D01*
X538174300Y-103800300D02*
X524174300Y-103800300D01*
D10*
X505637300Y-6075900D02*
X504836300Y-6075900D01*
D11*
X419110600Y-46650200D02*
X405110600Y-46650200D01*
D10*
X570998300Y-65700200D02*
X571799300Y-65700200D01*
X347161200Y-18074900D02*
X347962000Y-18074900D01*
X490837300Y-53700400D02*
X490036300Y-53700400D01*
D11*
X609900000Y-33650000D02*
X623899300Y-47649200D01*
D10*
X433399300Y-81649600D02*
X433399300Y-75849600D01*
X409073300Y-94899600D02*
X409874300Y-94899600D01*
X549498300Y-104569200D02*
X551224300Y-104569200D01*
X542936300Y-66699200D02*
X542936300Y-65700200D01*
X451936300Y-65700200D02*
X452737300Y-65700200D01*
X471499300Y-85749200D02*
X471499300Y-84750200D01*
X484929300Y-119150300D02*
X484929300Y-123619230D01*
X391680400Y-111320200D02*
X389954900Y-111320200D01*
X385773800Y-104799400D02*
X385773800Y-103800300D01*
D11*
X405110600Y-9174900D02*
X419109900Y-9174900D01*
D10*
X575024300Y-92270300D02*
X573299300Y-92270300D01*
X579454300Y-72750400D02*
X578655300Y-72750400D01*
X352436300Y-56799600D02*
X353237100Y-56799600D01*
X519412300Y-46650200D02*
X519412300Y-47649200D01*
X458012300Y-46650200D02*
X458012300Y-43549600D01*
X324662100Y-46650200D02*
X324662100Y-43549600D01*
X477062300Y-34650400D02*
X476261300Y-34650400D01*
X486587300Y-56799600D02*
X486587300Y-53700400D01*
D11*
X600087300Y-108561400D02*
X586087300Y-108561400D01*
D10*
X587754300Y-79249300D02*
X587754300Y-76450400D01*
X623899300Y-94899600D02*
X624698300Y-94899600D01*
X514361300Y-34650400D02*
X514361300Y-33650000D01*
X431304300Y-109849900D02*
X431304300Y-110850300D01*
X366211200Y-18074900D02*
X367012000Y-18074900D01*
X476549300Y-71750000D02*
X476549300Y-72750400D01*
X514361300Y-47649200D02*
X514361300Y-46650200D01*
D11*
X526412300Y-46650200D02*
X526412075Y-49749200D01*
D10*
X390824500Y-104799400D02*
X404823800Y-104799400D01*
X524174300Y-94899600D02*
X524174300Y-100699700D01*
X609098300Y-75849600D02*
X609899300Y-75849600D01*
X587586300Y-34199600D02*
X584287300Y-34199600D01*
D11*
X440687075Y-12074400D02*
X440687075Y-9174900D01*
D10*
X418598300Y-72750400D02*
X418598300Y-75849600D01*
X331005200Y-84750200D02*
X331804500Y-84750200D01*
X428924300Y-100699700D02*
X428123300Y-100699700D01*
X581837300Y-46650200D02*
X581837300Y-43549600D01*
X586930300Y-79249300D02*
X587754300Y-79249300D01*
X600086300Y-105462200D02*
X600086300Y-99662100D01*
X448487300Y-14974900D02*
X447686300Y-14974900D01*
X513848300Y-81649600D02*
X513848300Y-84750200D01*
X533411300Y-119749700D02*
X533411300Y-113949600D01*
X452737300Y-9174900D02*
X452737300Y-14974900D01*
X432886300Y-62599600D02*
X432886300Y-65700200D01*
X336568300Y-103800300D02*
X336568300Y-100699700D01*
X466736300Y-19073900D02*
X466736300Y-18074900D01*
X585205300Y-86500300D02*
X585205300Y-85519200D01*
X386062000Y-47649200D02*
X400061300Y-47649200D01*
X533411300Y-9174900D02*
X534212300Y-9174900D01*
D11*
X345437000Y-65700200D02*
X345436775Y-68799200D01*
D10*
X476549300Y-85749200D02*
X490549300Y-85749200D01*
X384105200Y-117349200D02*
X384929300Y-117349200D01*
X485786300Y-18074900D02*
X486587300Y-18074900D01*
D11*
X347962000Y-33650000D02*
X361961300Y-47649200D01*
D10*
X390536300Y-65700200D02*
X391337100Y-65700200D01*
X524174300Y-90800000D02*
X524174300Y-91800400D01*
X485273300Y-91800400D02*
X485273300Y-94899600D01*
D11*
X505125000Y-104799400D02*
X519124300Y-90800200D01*
D10*
X569998300Y-91349600D02*
X569998300Y-92270300D01*
X385773800Y-90800000D02*
X371774500Y-90800000D01*
X476549300Y-84750200D02*
X476549300Y-85749200D01*
X495311300Y-34650400D02*
X495311300Y-33650000D01*
X400061300Y-9174900D02*
X400860700Y-9174900D01*
X575024300Y-95500400D02*
X575024300Y-92270300D01*
X447686300Y-14974900D02*
X447686300Y-9174900D01*
X571799300Y-66699200D02*
X585799300Y-66699200D01*
X315218390Y-105550400D02*
X318517400Y-105550400D01*
X486587300Y-18074900D02*
X486587300Y-14974900D01*
X367012000Y-37749600D02*
X367012000Y-43549600D01*
X432886300Y-14974900D02*
X432886300Y-18074900D01*
X457211300Y-46650200D02*
X458012300Y-46650200D01*
D11*
X362249500Y-85749200D02*
X376248800Y-71750000D01*
X338437000Y-66699200D02*
X352436300Y-52700000D01*
D10*
X523886300Y-65700200D02*
X524687300Y-65700200D01*
X557512300Y-18074900D02*
X557512300Y-19073900D01*
X328912000Y-47649200D02*
X342911300Y-47649200D01*
X490837300Y-9174900D02*
X490837300Y-14974900D01*
X384105200Y-114550400D02*
X384105200Y-117349200D01*
X623899300Y-14974900D02*
X623899300Y-9174900D01*
X581036300Y-37749600D02*
X581837300Y-37749600D01*
X447686300Y-65700200D02*
X448487300Y-65700200D01*
X419111300Y-9174900D02*
X419910300Y-9174900D01*
X366723800Y-94899600D02*
X367523200Y-94899600D01*
X314624460Y-53700400D02*
X313823830Y-53700400D01*
X549498300Y-91349600D02*
X546198300Y-91349600D01*
D11*
X567037000Y-33650000D02*
X581036300Y-47649200D01*
D10*
X361961300Y-6075900D02*
X361961300Y-5074900D01*
X552461300Y-14974900D02*
X552461300Y-9174900D01*
X528937300Y-56799600D02*
X528937300Y-62599600D01*
X472298300Y-72750400D02*
X471499300Y-72750400D01*
D11*
X317005900Y-85749200D02*
X331005200Y-71750000D01*
D10*
X414349300Y-81649600D02*
X414349300Y-75849600D01*
X307337385Y-131137818D02*
X307337385Y-2550900D01*
X362249500Y-85749200D02*
X376248800Y-85749200D01*
X446104300Y-113949600D02*
X446104300Y-110850300D01*
X581036300Y-114612400D02*
X567037300Y-114612400D01*
X461974300Y-100699700D02*
X461974300Y-94899600D01*
X534212300Y-43549600D02*
X533411300Y-43549600D01*
X533411300Y-37749600D02*
X534212300Y-37749600D01*
X600887300Y-124512220D02*
X600086300Y-124512220D01*
X400061300Y-46650200D02*
X400860700Y-46650200D01*
X423361300Y-46650200D02*
X424160300Y-46650200D01*
D11*
X564512075Y-12074400D02*
X564512075Y-9174900D01*
D10*
X371486300Y-65700200D02*
X372287100Y-65700200D01*
X356686200Y-53700400D02*
X356686200Y-56799600D01*
X499561300Y-37749600D02*
X500362300Y-37749600D01*
X362762100Y-37749600D02*
X362762100Y-34650400D01*
X513848300Y-72750400D02*
X513848300Y-75849600D01*
X566236300Y-37749600D02*
X567037300Y-37749600D01*
X585205300Y-72299600D02*
X581904300Y-72299600D01*
X361448700Y-72750400D02*
X361448700Y-75849600D01*
X396098200Y-72750400D02*
X395298800Y-72750400D01*
X386062000Y-34650400D02*
X385261200Y-34650400D01*
X579454300Y-75849600D02*
X579454300Y-72750400D01*
X495311300Y-33650000D02*
X481312300Y-33650000D01*
X331005200Y-71750000D02*
X317004330Y-71750000D01*
X490837300Y-66699200D02*
X504836300Y-66699200D01*
D11*
X493074300Y-103800300D02*
X493074075Y-106899300D01*
D10*
X367012000Y-43549600D02*
X366211200Y-43549600D01*
D11*
X507362300Y-46650200D02*
X507362075Y-49749200D01*
D10*
X548498300Y-75849600D02*
X548498300Y-72750400D01*
D11*
X467025000Y-104799400D02*
X481024300Y-90800200D01*
D10*
X514649300Y-71750000D02*
X514649300Y-72750400D01*
X575848300Y-98299200D02*
X575848300Y-95500400D01*
X336054300Y-109849900D02*
X336054300Y-110850300D01*
X366723800Y-103800300D02*
X367523200Y-103800300D01*
X424160300Y-47649200D02*
X438161300Y-47649200D01*
X394786200Y-62599600D02*
X394786200Y-65700200D01*
X448487300Y-6075900D02*
X447686300Y-6075900D01*
X509086300Y-65700200D02*
X509887300Y-65700200D01*
X619937300Y-115611500D02*
X619136300Y-115611500D01*
X331005200Y-75849600D02*
X331804500Y-75849600D01*
X419910300Y-9174900D02*
X419910300Y-6075900D01*
X576562300Y-14974900D02*
X575761300Y-14974900D01*
X509887300Y-56799600D02*
X509887300Y-62599600D01*
X490036300Y-62599600D02*
X490036300Y-65700200D01*
X414637300Y-62599600D02*
X413836300Y-62599600D01*
X589311300Y-47419200D02*
X589311300Y-41149300D01*
D11*
X469262300Y-46650200D02*
X469262075Y-49749200D01*
X609900000Y-52700000D02*
X623899300Y-66699200D01*
D10*
X609899300Y-5074900D02*
X609899300Y-6075900D01*
X524174300Y-100699700D02*
X523373300Y-100699700D01*
X338437000Y-65700200D02*
X338437000Y-66699200D01*
X390023700Y-103800300D02*
X390824500Y-103800300D01*
X404311200Y-34650400D02*
X404311200Y-37749600D01*
X357198800Y-75849600D02*
X357998200Y-75849600D01*
X562787300Y-65700200D02*
X562787300Y-62599600D01*
X489955300Y-123619230D02*
X491680300Y-123619230D01*
X538462300Y-122850280D02*
X538462300Y-123849380D01*
X624698300Y-100699700D02*
X623899300Y-100699700D01*
X466223300Y-100699700D02*
X466223300Y-103800300D01*
X519412300Y-109849900D02*
X519412300Y-110850300D01*
X552461300Y-109849900D02*
X538462300Y-109849900D01*
X462773300Y-100699700D02*
X461974300Y-100699700D01*
X376248800Y-81649600D02*
X376248800Y-75849600D01*
X538462300Y-14974900D02*
X537661300Y-14974900D01*
X537661300Y-9174900D02*
X538462300Y-9174900D01*
D11*
X481312000Y-33650000D02*
X495311300Y-47649200D01*
D10*
X609098300Y-65700200D02*
X609899300Y-65700200D01*
X437648300Y-75849600D02*
X438449300Y-75849600D01*
D11*
X519412000Y-33650000D02*
X533411300Y-47649200D01*
D10*
X400349500Y-71750000D02*
X400349500Y-72750400D01*
X429437300Y-53700400D02*
X428636300Y-53700400D01*
X623899300Y-90800000D02*
X609899300Y-90800000D01*
X623899300Y-46650200D02*
X624698300Y-46650200D01*
X434198300Y-84750200D02*
X434198300Y-81649600D01*
X529448300Y-84750200D02*
X529448300Y-81649600D01*
X581036300Y-34650400D02*
X581036300Y-33650000D01*
X366211200Y-37749600D02*
X367012000Y-37749600D01*
X609098300Y-91800400D02*
X609098300Y-94899600D01*
X357998200Y-75849600D02*
X357998200Y-72750400D01*
D11*
X374012000Y-6075900D02*
X374011775Y-9174900D01*
D10*
X320242700Y-95500400D02*
X320242700Y-92270300D01*
D11*
X609900000Y-104799400D02*
X623899300Y-90800200D01*
D10*
X533411300Y-43549600D02*
X533411300Y-37749600D01*
X361961300Y-18074900D02*
X362762100Y-18074900D01*
X565511300Y-42950200D02*
X567037300Y-42950200D01*
X490036300Y-6075900D02*
X490036300Y-9174900D01*
X533411300Y-33650000D02*
X519412300Y-33650000D01*
X576562300Y-5074900D02*
X576562300Y-6075900D01*
X428636300Y-65700200D02*
X429437300Y-65700200D01*
X481823300Y-91800400D02*
X481024300Y-91800400D01*
X485273300Y-103800300D02*
X486074300Y-103800300D01*
D11*
X328911750Y-47649200D02*
X342911300Y-33650000D01*
D10*
X390824500Y-94899600D02*
X390824500Y-100699700D01*
X585286300Y-127611410D02*
X586087300Y-127611410D01*
X504836300Y-53700400D02*
X504836300Y-52700000D01*
X490837300Y-5074900D02*
X490837300Y-6075900D01*
X451936300Y-6075900D02*
X451936300Y-9174900D01*
D11*
X471787300Y-9174900D02*
X485786850Y-9174900D01*
X452449300Y-84750200D02*
X438449300Y-84750200D01*
D10*
X419910300Y-46650200D02*
X419910300Y-43549600D01*
X448487300Y-18074900D02*
X448487300Y-14974900D01*
D11*
X571800000Y-52700000D02*
X585799300Y-66699200D01*
D10*
X609098300Y-46650200D02*
X609899300Y-46650200D01*
X486587300Y-9174900D02*
X486587300Y-6075900D01*
X476549300Y-72750400D02*
X475748300Y-72750400D01*
X566236300Y-34650400D02*
X566236300Y-37749600D01*
X404823800Y-103800300D02*
X405623200Y-103800300D01*
X419111300Y-43549600D02*
X419111300Y-37749600D01*
D11*
X309861950Y-9174900D02*
X323861500Y-9174900D01*
D10*
X567037300Y-114612400D02*
X567037300Y-115611500D01*
X470986300Y-9174900D02*
X471787300Y-9174900D01*
X376248800Y-75849600D02*
X377048200Y-75849600D01*
X311442580Y-119749700D02*
X311442580Y-122850280D01*
X362762100Y-9174900D02*
X362762100Y-6075900D01*
X609899300Y-18074900D02*
X609899300Y-19073900D01*
X586087300Y-95562500D02*
X586087300Y-96561500D01*
X413836300Y-56799600D02*
X414637300Y-56799600D01*
X609899300Y-66699200D02*
X623899300Y-66699200D01*
X337293200Y-100100300D02*
X337293200Y-104569200D01*
X367012000Y-9174900D02*
X367012000Y-14974900D01*
X534212300Y-113949600D02*
X534212300Y-110850300D01*
D11*
X538462000Y-109850180D02*
X552461300Y-123849380D01*
X440687300Y-6075900D02*
X440687075Y-9174900D01*
D10*
X528937300Y-52700000D02*
X528937300Y-53700400D01*
X405110600Y-33650000D02*
X405110600Y-34650400D01*
D11*
X464499300Y-84750200D02*
X464499075Y-87849200D01*
X435924300Y-103800300D02*
X435924075Y-106899300D01*
D10*
X481024300Y-91800400D02*
X481024300Y-90800000D01*
X342911300Y-34650400D02*
X342911300Y-33650000D01*
X466736300Y-9174900D02*
X467537300Y-9174900D01*
X320967600Y-94899600D02*
X321768200Y-94899600D01*
X404311200Y-43549600D02*
X404311200Y-46650200D01*
X561403300Y-73220300D02*
X561403300Y-72299600D01*
X347962000Y-43549600D02*
X347161200Y-43549600D01*
X359868300Y-109849900D02*
X359868300Y-110850300D01*
D11*
X352724500Y-90800200D02*
X366723800Y-104799400D01*
X361962000Y-46650200D02*
X347962000Y-46650200D01*
D10*
X515162300Y-34650400D02*
X514361300Y-34650400D01*
X312667630Y-95500400D02*
X312667630Y-98299200D01*
X419399300Y-81649600D02*
X418598300Y-81649600D01*
X504836300Y-6075900D02*
X504836300Y-5074900D01*
D11*
X590561300Y-19073900D02*
X576562300Y-5074900D01*
D10*
X480511300Y-34650400D02*
X480511300Y-37749600D01*
X385261200Y-9174900D02*
X386062000Y-9174900D01*
X510398300Y-84750200D02*
X510398300Y-81649600D01*
X496112300Y-43549600D02*
X495311300Y-43549600D01*
X375736200Y-53700400D02*
X375736200Y-56799600D01*
X504323300Y-100699700D02*
X504323300Y-103800300D01*
X323861500Y-47649200D02*
X323861500Y-46650200D01*
X471499300Y-84750200D02*
X472298300Y-84750200D01*
D11*
X371487000Y-65700200D02*
X357487000Y-65700200D01*
D10*
X467024300Y-94899600D02*
X467024300Y-100699700D01*
X586930300Y-73220300D02*
X585205300Y-73220300D01*
X547699300Y-71750000D02*
X533699300Y-71750000D01*
X437648300Y-72750400D02*
X437648300Y-75849600D01*
X462773300Y-103800300D02*
X462773300Y-100699700D01*
X320242700Y-100100300D02*
X321768200Y-100100300D01*
X519412300Y-19073900D02*
X533411300Y-19073900D01*
X623899300Y-66699200D02*
X623899300Y-65700200D01*
X552461300Y-46650200D02*
X553262300Y-46650200D01*
X461974300Y-90800000D02*
X447974300Y-90800000D01*
X538462300Y-37749600D02*
X538462300Y-43549600D01*
X481024300Y-103800300D02*
X481823300Y-103800300D01*
X564654300Y-81050200D02*
X564654300Y-81649600D01*
X543737300Y-53700400D02*
X542936300Y-53700400D01*
X414349300Y-71750000D02*
X400349500Y-71750000D01*
X619937300Y-124512220D02*
X619136300Y-124512220D01*
X438161300Y-43549600D02*
X438161300Y-37749600D01*
X352436300Y-66699200D02*
X352436300Y-65700200D01*
X414349300Y-72750400D02*
X414349300Y-71750000D01*
D11*
X619137300Y-127611410D02*
X605137300Y-127611410D01*
D10*
X567037300Y-127611410D02*
X567037300Y-128611870D01*
D11*
X381299500Y-71750000D02*
X395298800Y-85749200D01*
D10*
X448487300Y-9174900D02*
X448487300Y-6075900D01*
X563786300Y-35120300D02*
X563786300Y-34199600D01*
X386062000Y-6075900D02*
X385261200Y-6075900D01*
X471499300Y-75849600D02*
X472298300Y-75849600D01*
X528937300Y-62599600D02*
X528136300Y-62599600D01*
X309861950Y-18074900D02*
X309861950Y-19073900D01*
X590561300Y-19073900D02*
X590561300Y-18074900D01*
D11*
X576562300Y-9174900D02*
X590561850Y-9174900D01*
D10*
X600086300Y-109561900D02*
X600086300Y-108561400D01*
X400061300Y-14974900D02*
X400061300Y-9174900D01*
X400349500Y-72750400D02*
X399548700Y-72750400D01*
X571799300Y-53700400D02*
X570998300Y-53700400D01*
D11*
X347962000Y-5074900D02*
X361961300Y-19073900D01*
X323861500Y-5074900D02*
X309861950Y-19073900D01*
D10*
X509887300Y-52700000D02*
X509887300Y-53700400D01*
X312243210Y-110850300D02*
X311442580Y-110850300D01*
X428123300Y-91800400D02*
X428123300Y-94899600D01*
D11*
X386062000Y-47649200D02*
X400061300Y-33650000D01*
D10*
X366723800Y-91800400D02*
X366723800Y-90800000D01*
D11*
X447687300Y-65700200D02*
X433687300Y-65700200D01*
D10*
X409586300Y-66699200D02*
X409586300Y-65700200D01*
X481312300Y-43549600D02*
X480511300Y-43549600D01*
X486074300Y-103800300D02*
X486074300Y-104799400D01*
X563130300Y-73220300D02*
X561403300Y-73220300D01*
X475748300Y-75849600D02*
X476549300Y-75849600D01*
X419399300Y-72750400D02*
X418598300Y-72750400D01*
X515162300Y-122850280D02*
X515162300Y-119749700D01*
D11*
X462262000Y-47649200D02*
X476261300Y-33650000D01*
X347962000Y-9174900D02*
X361961550Y-9174900D01*
D10*
X315218390Y-91349600D02*
X315218390Y-92270300D01*
X563130300Y-76450400D02*
X563130300Y-73220300D01*
X428636300Y-56799600D02*
X429437300Y-56799600D01*
X309061310Y-18074900D02*
X309861950Y-18074900D01*
X359067500Y-119749700D02*
X359067500Y-122850280D01*
D11*
X367012000Y-9174900D02*
X381011550Y-9174900D01*
D10*
X318517400Y-91349600D02*
X315218390Y-91349600D01*
X538973300Y-103800300D02*
X538973300Y-100699700D01*
X486587300Y-53700400D02*
X485786300Y-53700400D01*
X405110600Y-6075900D02*
X404311200Y-6075900D01*
X624698300Y-18074900D02*
X624698300Y-14974900D01*
D11*
X583562075Y-12074400D02*
X583562075Y-9174900D01*
D10*
X395587000Y-52700000D02*
X395587000Y-53700400D01*
X514361300Y-123849380D02*
X514361300Y-122850280D01*
X609899300Y-14974900D02*
X609098300Y-14974900D01*
D11*
X378774500Y-103800300D02*
X378774275Y-106899300D01*
D10*
X534212300Y-14974900D02*
X533411300Y-14974900D01*
X356686200Y-62599600D02*
X356686200Y-65700200D01*
D11*
X414349500Y-84750200D02*
X400349500Y-84750200D01*
D10*
X623899300Y-6075900D02*
X623899300Y-5074900D01*
X547987300Y-62599600D02*
X547186300Y-62599600D01*
X447173300Y-100699700D02*
X447173300Y-103800300D01*
X323861500Y-37749600D02*
X324662100Y-37749600D01*
X353237100Y-53700400D02*
X352436300Y-53700400D01*
D11*
X567037000Y-114612670D02*
X581036300Y-128611870D01*
D10*
X504836300Y-9174900D02*
X505637300Y-9174900D01*
X533411300Y-47649200D02*
X533411300Y-46650200D01*
X314624460Y-65700200D02*
X314624460Y-66699200D01*
X323861500Y-43549600D02*
X323861500Y-37749600D01*
X591362300Y-18074900D02*
X591362300Y-14974900D01*
D11*
X519412300Y-9174900D02*
X533411850Y-9174900D01*
X405112000Y-33650000D02*
X419111300Y-47649200D01*
X443212000Y-47649200D02*
X457211300Y-33650000D01*
D10*
X581036300Y-115611500D02*
X581036300Y-114612400D01*
X552749300Y-103800300D02*
X552749300Y-104799400D01*
X357998200Y-72750400D02*
X357198800Y-72750400D01*
D11*
X317005900Y-71750000D02*
X331005200Y-85749200D01*
X490837300Y-5074900D02*
X504836300Y-19073900D01*
X524175000Y-104799400D02*
X538174300Y-90800200D01*
D10*
X509887300Y-66699200D02*
X523886300Y-66699200D01*
X557512300Y-5074900D02*
X557512300Y-6075900D01*
X338437000Y-62599600D02*
X337636300Y-62599600D01*
X491680300Y-111320200D02*
X489955300Y-111320200D01*
D11*
X321768400Y-104799400D02*
X335767700Y-90800200D01*
D10*
X519124300Y-90800000D02*
X505124300Y-90800000D01*
X490549300Y-84750200D02*
X491348300Y-84750200D01*
X551948300Y-100699700D02*
X551948300Y-103800300D01*
X623899300Y-85749200D02*
X623899300Y-84750200D01*
D11*
X419110600Y-6075900D02*
X405110600Y-6075900D01*
D10*
X624698300Y-62599600D02*
X623899300Y-62599600D01*
X547987300Y-53700400D02*
X547186300Y-53700400D01*
X578655300Y-71750000D02*
X564654300Y-71750000D01*
D11*
X312243400Y-123849380D02*
X326242700Y-109850180D01*
D10*
X409874300Y-104799400D02*
X423874300Y-104799400D01*
D11*
X328911750Y-33650000D02*
X342911300Y-47649200D01*
D10*
X537661300Y-119749700D02*
X537661300Y-122850280D01*
X533411300Y-18074900D02*
X534212300Y-18074900D01*
X405110600Y-37749600D02*
X405110600Y-43549600D01*
X496112300Y-46650200D02*
X496112300Y-43549600D01*
X370973700Y-103800300D02*
X371774500Y-103800300D01*
X500362300Y-34650400D02*
X499561300Y-34650400D01*
X400860700Y-43549600D02*
X400061300Y-43549600D01*
X331005200Y-81649600D02*
X331005200Y-75849600D01*
X434198300Y-72750400D02*
X433399300Y-72750400D01*
X443212300Y-43549600D02*
X442411300Y-43549600D01*
X320242700Y-104569200D02*
X320242700Y-100100300D01*
X578655300Y-76450400D02*
X578655300Y-75849600D01*
X514649300Y-81649600D02*
X513848300Y-81649600D01*
X581036300Y-43549600D02*
X581036300Y-42950200D01*
X533411300Y-109849900D02*
X519412300Y-109849900D01*
X326242700Y-109849900D02*
X312243210Y-109849900D01*
X347161200Y-43549600D02*
X347161200Y-46650200D01*
X335255100Y-122850280D02*
X336054300Y-122850280D01*
X371486300Y-66699200D02*
X371486300Y-65700200D01*
X331804500Y-81649600D02*
X331005200Y-81649600D01*
X586087300Y-118712100D02*
X586087300Y-124512220D01*
X475748300Y-81649600D02*
X475748300Y-84750200D01*
X504836300Y-5074900D02*
X490837300Y-5074900D01*
X546198300Y-104569200D02*
X546198300Y-105550400D01*
X518611300Y-18074900D02*
X519412300Y-18074900D01*
X424673300Y-103800300D02*
X424673300Y-100699700D01*
X586087300Y-128611870D02*
X600086300Y-128611870D01*
X552461300Y-119749700D02*
X552461300Y-113949600D01*
X361961300Y-43549600D02*
X361961300Y-37749600D01*
X568274300Y-100100300D02*
X568274300Y-104569200D01*
X321768200Y-91800400D02*
X320967600Y-91800400D01*
X560485300Y-35120300D02*
X558762300Y-35120300D01*
X584287300Y-48400300D02*
X587586300Y-48400300D01*
D11*
X574037300Y-127611410D02*
X574037075Y-130710410D01*
D10*
X568274300Y-92270300D02*
X568274300Y-95500400D01*
X374668400Y-113949600D02*
X374668400Y-110850300D01*
X309061310Y-34650400D02*
X309061310Y-37749600D01*
X347161200Y-14974900D02*
X347161200Y-18074900D01*
X467024300Y-103800300D02*
X467024300Y-104799400D01*
D11*
X609900000Y-90800200D02*
X623899300Y-104799400D01*
D10*
X491680300Y-114550400D02*
X491680300Y-111320200D01*
X445305300Y-123849380D02*
X445305300Y-122850280D01*
X405623200Y-103800300D02*
X405623200Y-100699700D01*
X549498300Y-105550400D02*
X549498300Y-104569200D01*
X547987300Y-65700200D02*
X547987300Y-66699200D01*
X466736300Y-65700200D02*
X467537300Y-65700200D01*
X395587000Y-65700200D02*
X395587000Y-66699200D01*
X423874300Y-100699700D02*
X423874300Y-94899600D01*
D11*
X623899300Y-84750200D02*
X609899300Y-84750200D01*
D10*
X534212300Y-110850300D02*
X533411300Y-110850300D01*
X537661300Y-43549600D02*
X537661300Y-46650200D01*
X466736300Y-5074900D02*
X452737300Y-5074900D01*
X466736300Y-66699200D02*
X466736300Y-65700200D01*
X375736200Y-65700200D02*
X376537000Y-65700200D01*
X418598300Y-75849600D02*
X419399300Y-75849600D01*
X343712100Y-34650400D02*
X342911300Y-34650400D01*
X504836300Y-19073900D02*
X504836300Y-18074900D01*
X624698300Y-53700400D02*
X623899300Y-53700400D01*
X562787300Y-62599600D02*
X561986300Y-62599600D01*
X309861950Y-47649200D02*
X323861500Y-47649200D01*
X350055100Y-113949600D02*
X350854500Y-113949600D01*
X547186300Y-56799600D02*
X547987300Y-56799600D01*
D11*
X424162000Y-33650000D02*
X438161300Y-47649200D01*
D10*
X600887300Y-99662100D02*
X600887300Y-96561500D01*
X386573200Y-103800300D02*
X386573200Y-100699700D01*
X609098300Y-72750400D02*
X609098300Y-75849600D01*
X547699300Y-72750400D02*
X547699300Y-71750000D01*
X328912000Y-33650000D02*
X328912000Y-34650400D01*
X395298800Y-84750200D02*
X396098200Y-84750200D01*
D11*
X457500000Y-85749200D02*
X471499300Y-71750000D01*
D10*
X564654300Y-81649600D02*
X563853300Y-81649600D01*
X328624000Y-52700000D02*
X314624460Y-52700000D01*
X400860700Y-14974900D02*
X400061300Y-14974900D01*
X452449300Y-75849600D02*
X453248300Y-75849600D01*
D11*
X385774500Y-103800300D02*
X371774500Y-103800300D01*
D10*
X323861500Y-18074900D02*
X324662100Y-18074900D01*
X609899300Y-72750400D02*
X609098300Y-72750400D01*
X505637300Y-56799600D02*
X505637300Y-53700400D01*
X376537000Y-62599600D02*
X375736200Y-62599600D01*
X572312300Y-14974900D02*
X571511300Y-14974900D01*
D11*
X400062000Y-6075900D02*
X386062000Y-6075900D01*
D10*
X581036300Y-38350400D02*
X581036300Y-37749600D01*
X438449300Y-81649600D02*
X437648300Y-81649600D01*
X538462300Y-34650400D02*
X537661300Y-34650400D01*
D11*
X545462300Y-46650200D02*
X545462075Y-49749200D01*
D10*
X339017100Y-105550400D02*
X342317500Y-105550400D01*
X447974300Y-94899600D02*
X447974300Y-100699700D01*
X404823800Y-91800400D02*
X404823800Y-90800000D01*
X404823800Y-104799400D02*
X404823800Y-103800300D01*
X309861950Y-43549600D02*
X309061310Y-43549600D01*
D11*
X490837000Y-52700000D02*
X504836300Y-66699200D01*
D10*
X623899300Y-37749600D02*
X624698300Y-37749600D01*
X495599300Y-84750200D02*
X495599300Y-85749200D01*
X490549300Y-72750400D02*
X490549300Y-71750000D01*
X486074300Y-94899600D02*
X486074300Y-100699700D01*
X494798300Y-84750200D02*
X495599300Y-84750200D01*
D11*
X490837000Y-66699200D02*
X504836300Y-52700000D01*
D10*
X566236300Y-46650200D02*
X567037300Y-46650200D01*
X500362300Y-109849900D02*
X500362300Y-110850300D01*
D11*
X478787300Y-65700200D02*
X478787075Y-68799200D01*
D10*
X552749300Y-91800400D02*
X551948300Y-91800400D01*
X586598300Y-56799600D02*
X586598300Y-53700400D01*
D11*
X452737000Y-52700000D02*
X466736300Y-66699200D01*
D10*
X357998200Y-81649600D02*
X357198800Y-81649600D01*
X552461300Y-123849380D02*
X552461300Y-122850280D01*
X342911300Y-33650000D02*
X328912000Y-33650000D01*
X445305300Y-114550400D02*
X445305300Y-113949600D01*
X461974300Y-104799400D02*
X461974300Y-103800300D01*
X443212300Y-47649200D02*
X457211300Y-47649200D01*
D11*
X357487000Y-66699200D02*
X371486300Y-52700000D01*
D10*
X504836300Y-66699200D02*
X504836300Y-65700200D01*
X609098300Y-43549600D02*
X609098300Y-46650200D01*
X548498300Y-81649600D02*
X547699300Y-81649600D01*
X335767700Y-103800300D02*
X336568300Y-103800300D01*
X314624460Y-62599600D02*
X313823830Y-62599600D01*
X390824500Y-103800300D02*
X390824500Y-104799400D01*
X538174300Y-104799400D02*
X538174300Y-103800300D01*
X509086300Y-62599600D02*
X509086300Y-65700200D01*
X356686200Y-65700200D02*
X357487000Y-65700200D01*
X324662100Y-37749600D02*
X324662100Y-34650400D01*
D11*
X381299500Y-85749200D02*
X395298800Y-71750000D01*
D10*
X395587000Y-53700400D02*
X394786200Y-53700400D01*
X419111300Y-37749600D02*
X419910300Y-37749600D01*
X496112300Y-37749600D02*
X496112300Y-34650400D01*
X328624000Y-53700400D02*
X328624000Y-52700000D01*
X307337385Y-2550900D02*
X626425300Y-2550900D01*
X471499300Y-71750000D02*
X457499300Y-71750000D01*
X609098300Y-18074900D02*
X609899300Y-18074900D01*
X366211200Y-46650200D02*
X367012000Y-46650200D01*
X581837300Y-37749600D02*
X581837300Y-34650400D01*
X523886300Y-52700000D02*
X509887300Y-52700000D01*
X415148300Y-72750400D02*
X414349300Y-72750400D01*
X504323300Y-91800400D02*
X504323300Y-94899600D01*
X447686300Y-53700400D02*
X447686300Y-52700000D01*
X533699300Y-72750400D02*
X532898300Y-72750400D01*
D11*
X335768200Y-103800300D02*
X321768200Y-103800300D01*
D10*
X567548300Y-100699700D02*
X566749300Y-100699700D01*
X316205080Y-84750200D02*
X317004330Y-84750200D01*
X505637300Y-18074900D02*
X505637300Y-14974900D01*
X495599300Y-85749200D02*
X509599300Y-85749200D01*
X553262300Y-122850280D02*
X553262300Y-119749700D01*
D11*
X316861725Y-12074400D02*
X316861725Y-9174900D01*
D10*
X575024300Y-98299200D02*
X575848300Y-98299200D01*
X491680300Y-117349200D02*
X492504300Y-117349200D01*
X419111300Y-47649200D02*
X419111300Y-46650200D01*
D11*
X623899300Y-6075900D02*
X609899300Y-6075900D01*
X438160300Y-46650200D02*
X424160300Y-46650200D01*
X328768200Y-103800300D02*
X328767975Y-106899300D01*
D10*
X581036300Y-42950200D02*
X582562300Y-42950200D01*
X467537300Y-18074900D02*
X467537300Y-14974900D01*
X445305300Y-113949600D02*
X446104300Y-113949600D01*
D11*
X495312300Y-46650200D02*
X481312300Y-46650200D01*
D10*
X571799300Y-52700000D02*
X571799300Y-53700400D01*
X609098300Y-94899600D02*
X609899300Y-94899600D01*
D11*
X423874300Y-103800300D02*
X409874300Y-103800300D01*
D10*
X509599300Y-72750400D02*
X509599300Y-71750000D01*
X524174300Y-91800400D02*
X523373300Y-91800400D01*
X359067500Y-113949600D02*
X359868300Y-113949600D01*
D11*
X431306000Y-123849380D02*
X445305300Y-109850180D01*
D10*
X586087300Y-127611410D02*
X586087300Y-128611870D01*
X600086300Y-118712100D02*
X600887300Y-118712100D01*
D11*
X309861950Y-5074900D02*
X323861500Y-19073900D01*
D10*
X405110600Y-14974900D02*
X404311200Y-14974900D01*
X419111300Y-46650200D02*
X419910300Y-46650200D01*
X553262300Y-14974900D02*
X552461300Y-14974900D01*
X578655300Y-85749200D02*
X578655300Y-84750200D01*
D11*
X397824500Y-103800300D02*
X397824275Y-106899300D01*
D10*
X590561300Y-18074900D02*
X591362300Y-18074900D01*
D11*
X500362000Y-47649200D02*
X514361300Y-33650000D01*
D10*
X609899300Y-85749200D02*
X623899300Y-85749200D01*
D11*
X519412000Y-47649200D02*
X533411300Y-33650000D01*
D10*
X381011300Y-5074900D02*
X367012000Y-5074900D01*
X328912000Y-34650400D02*
X328111300Y-34650400D01*
X500362300Y-43549600D02*
X499561300Y-43549600D01*
D11*
X514650000Y-85749200D02*
X528649300Y-71750000D01*
D10*
X600086300Y-124512220D02*
X600086300Y-118712100D01*
X324662100Y-34650400D02*
X323861500Y-34650400D01*
D11*
X583562300Y-6075900D02*
X583562075Y-9174900D01*
D10*
X609899300Y-84750200D02*
X609899300Y-85749200D01*
X553262300Y-119749700D02*
X552461300Y-119749700D01*
X581837300Y-127611410D02*
X581837300Y-124512220D01*
X587586300Y-35120300D02*
X587586300Y-34199600D01*
X499561300Y-110850300D02*
X499561300Y-113949600D01*
X326242700Y-122850280D02*
X327043300Y-122850280D01*
X381011300Y-34650400D02*
X381011300Y-33650000D01*
D11*
X395299500Y-84750200D02*
X381299500Y-84750200D01*
D10*
X452737300Y-66699200D02*
X466736300Y-66699200D01*
X361961300Y-46650200D02*
X362762100Y-46650200D01*
D11*
X407349500Y-84750200D02*
X407349275Y-87849200D01*
D10*
X481024300Y-100699700D02*
X481024300Y-94899600D01*
D11*
X374011775Y-12074400D02*
X374011775Y-9174900D01*
X557512300Y-9174900D02*
X571511850Y-9174900D01*
D10*
X586930300Y-76450400D02*
X586930300Y-73220300D01*
D11*
X566749300Y-103800300D02*
X552749300Y-103800300D01*
X609900000Y-85749200D02*
X623899300Y-71750000D01*
X500362000Y-123849380D02*
X514361300Y-109850180D01*
D10*
X384929300Y-123619230D02*
X386654300Y-123619230D01*
X395298800Y-81649600D02*
X395298800Y-75849600D01*
X566749300Y-91800400D02*
X566749300Y-90800000D01*
X581904300Y-72299600D02*
X581904300Y-73220300D01*
X489955300Y-124599040D02*
X489955300Y-123619230D01*
X519412300Y-5074900D02*
X519412300Y-6075900D01*
X581036300Y-124512220D02*
X581036300Y-118712100D01*
X500362300Y-113949600D02*
X500362300Y-119749700D01*
X443212300Y-34650400D02*
X442411300Y-34650400D01*
X509887300Y-53700400D02*
X509086300Y-53700400D01*
D11*
X331004330Y-84750200D02*
X317004330Y-84750200D01*
D10*
X571799300Y-62599600D02*
X570998300Y-62599600D01*
X347962000Y-34650400D02*
X347161200Y-34650400D01*
X486587300Y-6075900D02*
X485786300Y-6075900D01*
D11*
X414637000Y-52700000D02*
X428636300Y-66699200D01*
D10*
X367012000Y-46650200D02*
X367012000Y-47649200D01*
X551948300Y-91800400D02*
X551948300Y-94899600D01*
D11*
X409875000Y-104799400D02*
X423874300Y-90800200D01*
X438304300Y-122850280D02*
X438304075Y-125949280D01*
D10*
X609899300Y-104799400D02*
X623899300Y-104799400D01*
X366723800Y-90800000D02*
X352724500Y-90800000D01*
D11*
X526412300Y-122850280D02*
X526412075Y-125949280D01*
D10*
X553262300Y-43549600D02*
X552461300Y-43549600D01*
X518611300Y-46650200D02*
X519412300Y-46650200D01*
D11*
X533700000Y-85749200D02*
X547699300Y-71750000D01*
D10*
X357998200Y-84750200D02*
X357998200Y-81649600D01*
D11*
X400062000Y-46650200D02*
X386062000Y-46650200D01*
D10*
X419910300Y-14974900D02*
X419111300Y-14974900D01*
X609899300Y-19073900D02*
X623899300Y-19073900D01*
X499561300Y-43549600D02*
X499561300Y-46650200D01*
X447974300Y-100699700D02*
X447173300Y-100699700D01*
X373867600Y-119749700D02*
X373867600Y-113949600D01*
D11*
X524175000Y-90800200D02*
X538174300Y-104799400D01*
D10*
X424160300Y-34650400D02*
X423361300Y-34650400D01*
X585205300Y-73220300D02*
X585205300Y-72299600D01*
X329423200Y-53700400D02*
X328624000Y-53700400D01*
X361448700Y-84750200D02*
X362249500Y-84750200D01*
X490036300Y-65700200D02*
X490837300Y-65700200D01*
X318517400Y-104569200D02*
X320242700Y-104569200D01*
X362249500Y-84750200D02*
X362249500Y-85749200D01*
X565511300Y-38350400D02*
X565511300Y-35120300D01*
X566236300Y-118712100D02*
X567037300Y-118712100D01*
X314624460Y-56799600D02*
X314624460Y-62599600D01*
X509887300Y-62599600D02*
X509086300Y-62599600D01*
X557512300Y-6075900D02*
X556711300Y-6075900D01*
X423361300Y-37749600D02*
X424160300Y-37749600D01*
D11*
X447687300Y-6075900D02*
X433687300Y-6075900D01*
D10*
X433687300Y-52700000D02*
X433687300Y-53700400D01*
X350055100Y-110850300D02*
X350055100Y-109849900D01*
X553262300Y-34650400D02*
X552461300Y-34650400D01*
X432886300Y-9174900D02*
X433687300Y-9174900D01*
D11*
X338437000Y-52700000D02*
X352436300Y-66699200D01*
D10*
X467024300Y-90800000D02*
X467024300Y-91800400D01*
X350055100Y-119749700D02*
X350055100Y-113949600D01*
X457211300Y-43549600D02*
X457211300Y-37749600D01*
X562787300Y-53700400D02*
X561986300Y-53700400D01*
X462262300Y-43549600D02*
X461461300Y-43549600D01*
D11*
X393062000Y-46650200D02*
X393061775Y-49749200D01*
X495600000Y-85749200D02*
X509599300Y-71750000D01*
D10*
X609899300Y-46650200D02*
X609899300Y-47649200D01*
X515162300Y-46650200D02*
X515162300Y-43549600D01*
X381299500Y-71750000D02*
X381299500Y-72750400D01*
D11*
X497837075Y-12074400D02*
X497837075Y-9174900D01*
X445449300Y-84750200D02*
X445449075Y-87849200D01*
D10*
X452449300Y-84750200D02*
X453248300Y-84750200D01*
D11*
X400350000Y-85749200D02*
X414349300Y-71750000D01*
D10*
X343712100Y-43549600D02*
X342911300Y-43549600D01*
X452737300Y-56799600D02*
X452737300Y-62599600D01*
X352724500Y-94899600D02*
X352724500Y-100699700D01*
X400860700Y-18074900D02*
X400860700Y-14974900D01*
X563130300Y-81050200D02*
X564654300Y-81050200D01*
X561403300Y-86500300D02*
X561403300Y-85519200D01*
X581036300Y-46650200D02*
X581837300Y-46650200D01*
X509599300Y-81649600D02*
X509599300Y-75849600D01*
X523373300Y-100699700D02*
X523373300Y-103800300D01*
X381011300Y-14974900D02*
X381011300Y-9174900D01*
X505124300Y-91800400D02*
X504323300Y-91800400D01*
X513848300Y-75849600D02*
X514649300Y-75849600D01*
X609899300Y-81649600D02*
X609098300Y-81649600D01*
X547699300Y-81649600D02*
X547699300Y-75849600D01*
X561986300Y-65700200D02*
X562787300Y-65700200D01*
X350854500Y-119749700D02*
X350055100Y-119749700D01*
X404311200Y-37749600D02*
X405110600Y-37749600D01*
X609899300Y-34650400D02*
X609098300Y-34650400D01*
X324662100Y-6075900D02*
X323861500Y-6075900D01*
D11*
X502599300Y-84750200D02*
X502599075Y-87849200D01*
D10*
X547699300Y-85749200D02*
X547699300Y-84750200D01*
X467537300Y-14974900D02*
X466736300Y-14974900D01*
X500362300Y-46650200D02*
X500362300Y-47649200D01*
D11*
X466737300Y-65700200D02*
X452737300Y-65700200D01*
D10*
X313493100Y-95500400D02*
X312667630Y-95500400D01*
X385261200Y-14974900D02*
X385261200Y-18074900D01*
X510398300Y-75849600D02*
X510398300Y-72750400D01*
D11*
X419400000Y-71750000D02*
X433399300Y-85749200D01*
D10*
X432886300Y-6075900D02*
X432886300Y-9174900D01*
X587586300Y-47419200D02*
X589311300Y-47419200D01*
X376248800Y-71750000D02*
X362249500Y-71750000D01*
X317004330Y-71750000D02*
X317004330Y-72750400D01*
D11*
X474024300Y-103800300D02*
X474024075Y-106899300D01*
X400350000Y-71750000D02*
X414349300Y-85749200D01*
D10*
X518611300Y-34650400D02*
X518611300Y-37749600D01*
X623899300Y-100699700D02*
X623899300Y-94899600D01*
X553262300Y-18074900D02*
X553262300Y-14974900D01*
X376248800Y-72750400D02*
X376248800Y-71750000D01*
X404311200Y-14974900D02*
X404311200Y-18074900D01*
X571799300Y-65700200D02*
X571799300Y-66699200D01*
X442924300Y-94899600D02*
X443723300Y-94899600D01*
X428123300Y-94899600D02*
X428924300Y-94899600D01*
X485786300Y-52700000D02*
X471787300Y-52700000D01*
X452449300Y-81649600D02*
X452449300Y-75849600D01*
X396098200Y-75849600D02*
X396098200Y-72750400D01*
X572312300Y-18074900D02*
X572312300Y-14974900D01*
X400061300Y-37749600D02*
X400860700Y-37749600D01*
D11*
X367012000Y-5074900D02*
X381011300Y-19073900D01*
D10*
X367012000Y-33650000D02*
X367012000Y-34650400D01*
X619136300Y-124512220D02*
X619136300Y-118712100D01*
X462773300Y-91800400D02*
X461974300Y-91800400D01*
X409874300Y-90800000D02*
X409874300Y-91800400D01*
X566236300Y-124512220D02*
X566236300Y-127611410D01*
X552461300Y-18074900D02*
X553262300Y-18074900D01*
D11*
X600087300Y-127611410D02*
X586087300Y-127611410D01*
D10*
X481024300Y-90800000D02*
X467024300Y-90800000D01*
X518611300Y-113949600D02*
X519412300Y-113949600D01*
X556711300Y-14974900D02*
X556711300Y-18074900D01*
X370973700Y-100699700D02*
X370973700Y-103800300D01*
X500362300Y-33650000D02*
X500362300Y-34650400D01*
X566749300Y-103800300D02*
X567548300Y-103800300D01*
X453248300Y-75849600D02*
X453248300Y-72750400D01*
X381299500Y-72750400D02*
X380498700Y-72750400D01*
X534212300Y-18074900D02*
X534212300Y-14974900D01*
X561403300Y-85519200D02*
X563130300Y-85519200D01*
X339017100Y-104569200D02*
X339017100Y-105550400D01*
X471499300Y-72750400D02*
X471499300Y-71750000D01*
X604336300Y-124512220D02*
X604336300Y-127611410D01*
X556379300Y-79249300D02*
X556379300Y-85519200D01*
X500362300Y-123849380D02*
X514361300Y-123849380D01*
X581036300Y-127611410D02*
X581837300Y-127611410D01*
X429437300Y-65700200D02*
X429437300Y-62599600D01*
X347161200Y-34650400D02*
X347161200Y-37749600D01*
X490549300Y-75849600D02*
X491348300Y-75849600D01*
X500074300Y-90800000D02*
X486074300Y-90800000D01*
X418598300Y-81649600D02*
X418598300Y-84750200D01*
X528649300Y-75849600D02*
X529448300Y-75849600D01*
X509599300Y-85749200D02*
X509599300Y-84750200D01*
X534212300Y-122850280D02*
X534212300Y-119749700D01*
X442924300Y-103800300D02*
X443723300Y-103800300D01*
X381011300Y-18074900D02*
X381812100Y-18074900D01*
X566749300Y-100699700D02*
X566749300Y-100100300D01*
D11*
X426399300Y-84750200D02*
X426399075Y-87849200D01*
D10*
X419910300Y-34650400D02*
X419111300Y-34650400D01*
X389954900Y-110399700D02*
X386654300Y-110399700D01*
X565511300Y-47419200D02*
X565511300Y-42950200D01*
D11*
X507362300Y-122850280D02*
X507362075Y-125949280D01*
D10*
X576562300Y-18074900D02*
X576562300Y-19073900D01*
X600086300Y-128611870D02*
X600086300Y-127611410D01*
X451936300Y-62599600D02*
X451936300Y-65700200D01*
X395298800Y-72750400D02*
X395298800Y-71750000D01*
D11*
X612137300Y-127611410D02*
X612137075Y-130710410D01*
D10*
X481312300Y-33650000D02*
X481312300Y-34650400D01*
X362762100Y-34650400D02*
X361961300Y-34650400D01*
X458012300Y-34650400D02*
X457211300Y-34650400D01*
X428636300Y-66699200D02*
X428636300Y-65700200D01*
X361961300Y-47649200D02*
X361961300Y-46650200D01*
X400061300Y-47649200D02*
X400061300Y-46650200D01*
X342911300Y-47649200D02*
X342911300Y-46650200D01*
X470986300Y-56799600D02*
X471787300Y-56799600D01*
X490837300Y-18074900D02*
X490837300Y-19073900D01*
X548498300Y-84750200D02*
X548498300Y-81649600D01*
D11*
X459737075Y-12074400D02*
X459737075Y-9174900D01*
D10*
X552461300Y-43549600D02*
X552461300Y-37749600D01*
X457211300Y-47649200D02*
X457211300Y-46650200D01*
X553262300Y-9174900D02*
X553262300Y-6075900D01*
X343199500Y-75849600D02*
X343199500Y-81649600D01*
D11*
X586087000Y-128611870D02*
X600086300Y-114612670D01*
D10*
X385261200Y-43549600D02*
X385261200Y-46650200D01*
X309861950Y-34650400D02*
X309061310Y-34650400D01*
X538174300Y-90800000D02*
X524174300Y-90800000D01*
D11*
X571654300Y-84750200D02*
X571654075Y-87849200D01*
D10*
X314624460Y-52700000D02*
X314624460Y-53700400D01*
X462262300Y-47649200D02*
X476261300Y-47649200D01*
X510398300Y-81649600D02*
X509599300Y-81649600D01*
X623899300Y-62599600D02*
X623899300Y-56799600D01*
X466736300Y-52700000D02*
X452737300Y-52700000D01*
X316205080Y-75849600D02*
X317004330Y-75849600D01*
X391337100Y-62599600D02*
X390536300Y-62599600D01*
X560485300Y-47419200D02*
X560485300Y-48400300D01*
X528937300Y-53700400D02*
X528136300Y-53700400D01*
D11*
X497837300Y-65700200D02*
X497837075Y-68799200D01*
D10*
X335767700Y-90800000D02*
X321768200Y-90800000D01*
X447173300Y-103800300D02*
X447974300Y-103800300D01*
X352724500Y-104799400D02*
X366723800Y-104799400D01*
D11*
X386062000Y-5074900D02*
X400061300Y-19073900D01*
D10*
X451936300Y-9174900D02*
X452737300Y-9174900D01*
X400349500Y-84750200D02*
X400349500Y-85749200D01*
X619136300Y-128611870D02*
X619136300Y-127611410D01*
D11*
X578654300Y-84750200D02*
X564654300Y-84750200D01*
D10*
X353237100Y-56799600D02*
X353237100Y-53700400D01*
X571511300Y-14974900D02*
X571511300Y-9174900D01*
X446104300Y-119749700D02*
X445305300Y-119749700D01*
X336568300Y-100699700D02*
X335767700Y-100699700D01*
D11*
X438450000Y-71750000D02*
X452449300Y-85749200D01*
D10*
X471787300Y-52700000D02*
X471787300Y-53700400D01*
D11*
X471499300Y-84750200D02*
X457499300Y-84750200D01*
D10*
X538174300Y-91800400D02*
X538174300Y-90800000D01*
X475748300Y-84750200D02*
X476549300Y-84750200D01*
X492504300Y-114550400D02*
X491680300Y-114550400D01*
X505637300Y-65700200D02*
X505637300Y-62599600D01*
X600887300Y-118712100D02*
X600887300Y-115611500D01*
D11*
X431160300Y-46650200D02*
X431160075Y-49749200D01*
D10*
X534212300Y-119749700D02*
X533411300Y-119749700D01*
X389954900Y-111320200D02*
X389954900Y-110399700D01*
X624698300Y-84750200D02*
X624698300Y-81649600D01*
X552461300Y-33650000D02*
X538462300Y-33650000D01*
X331005200Y-85749200D02*
X331005200Y-84750200D01*
X605137300Y-127611410D02*
X605137300Y-128611870D01*
D11*
X581037300Y-127611410D02*
X567037300Y-127611410D01*
D10*
X375736200Y-56799600D02*
X376537000Y-56799600D01*
D11*
X366724500Y-103800300D02*
X352724500Y-103800300D01*
D10*
X609899300Y-90800000D02*
X609899300Y-91800400D01*
X586930300Y-85519200D02*
X586930300Y-79249300D01*
X485786300Y-56799600D02*
X486587300Y-56799600D01*
X466223300Y-91800400D02*
X466223300Y-94899600D01*
X519412300Y-34650400D02*
X518611300Y-34650400D01*
X605137300Y-124512220D02*
X604336300Y-124512220D01*
X578655300Y-84750200D02*
X579454300Y-84750200D01*
X582562300Y-35120300D02*
X582562300Y-38350400D01*
X381011300Y-33650000D02*
X367012000Y-33650000D01*
D11*
X561987300Y-65700200D02*
X547987300Y-65700200D01*
D10*
X376537000Y-65700200D02*
X376537000Y-66699200D01*
D11*
X481312000Y-47649200D02*
X495311300Y-33650000D01*
X514362300Y-46650200D02*
X500362300Y-46650200D01*
D10*
X537661300Y-122850280D02*
X538462300Y-122850280D01*
X371774500Y-103800300D02*
X371774500Y-104799400D01*
X352436300Y-62599600D02*
X352436300Y-56799600D01*
D11*
X623899300Y-103800300D02*
X609899300Y-103800300D01*
D10*
X309061310Y-14974900D02*
X309061310Y-18074900D01*
D11*
X447975000Y-104799400D02*
X461974300Y-90800200D01*
D10*
X504323300Y-94899600D02*
X505124300Y-94899600D01*
X328912000Y-43549600D02*
X328111300Y-43549600D01*
X486074300Y-100699700D02*
X485273300Y-100699700D01*
X480511300Y-46650200D02*
X481312300Y-46650200D01*
X481312300Y-47649200D02*
X495311300Y-47649200D01*
X438161300Y-34650400D02*
X438161300Y-33650000D01*
D11*
X431306000Y-109850180D02*
X445305300Y-123849380D01*
D10*
X343199500Y-84750200D02*
X343199500Y-85749200D01*
X313493100Y-98299200D02*
X313493100Y-104569200D01*
X350854500Y-122850280D02*
X350854500Y-119749700D01*
X586598300Y-62599600D02*
X585799300Y-62599600D01*
X491348300Y-72750400D02*
X490549300Y-72750400D01*
X575761300Y-6075900D02*
X575761300Y-9174900D01*
X499561300Y-113949600D02*
X500362300Y-113949600D01*
X609098300Y-34650400D02*
X609098300Y-37749600D01*
X438962300Y-37749600D02*
X438962300Y-34650400D01*
X471787300Y-9174900D02*
X471787300Y-14974900D01*
X555555300Y-76450400D02*
X555555300Y-79249300D01*
X357487000Y-53700400D02*
X356686200Y-53700400D01*
X471787300Y-19073900D02*
X485786300Y-19073900D01*
D11*
X428925000Y-104799400D02*
X442924300Y-90800200D01*
X381011300Y-5074900D02*
X367012000Y-19073900D01*
D10*
X533699300Y-84750200D02*
X533699300Y-85749200D01*
X377048200Y-72750400D02*
X376248800Y-72750400D01*
X551948300Y-94899600D02*
X552749300Y-94899600D01*
X470986300Y-6075900D02*
X470986300Y-9174900D01*
X561986300Y-66699200D02*
X561986300Y-65700200D01*
X309861950Y-9174900D02*
X309861950Y-14974900D01*
D11*
X533412300Y-6075900D02*
X519412300Y-6075900D01*
X531174300Y-103800300D02*
X531174075Y-106899300D01*
D10*
X404311200Y-9174900D02*
X405110600Y-9174900D01*
X485786300Y-65700200D02*
X486587300Y-65700200D01*
X367523200Y-94899600D02*
X367523200Y-91800400D01*
X359868300Y-122850280D02*
X359868300Y-123849380D01*
X609899300Y-62599600D02*
X609098300Y-62599600D01*
D11*
X509887000Y-52700000D02*
X523886300Y-66699200D01*
X509887000Y-66699200D02*
X523886300Y-52700000D01*
D10*
X485786300Y-14974900D02*
X485786300Y-9174900D01*
X514361300Y-46650200D02*
X515162300Y-46650200D01*
D11*
X359868300Y-123849380D02*
X373867600Y-109850180D01*
D10*
X581036300Y-128611870D02*
X581036300Y-127611410D01*
D11*
X504837300Y-6075900D02*
X490837300Y-6075900D01*
D10*
X534212300Y-34650400D02*
X533411300Y-34650400D01*
X573299300Y-105550400D02*
X573299300Y-104569200D01*
X376537000Y-56799600D02*
X376537000Y-62599600D01*
X366723800Y-100699700D02*
X366723800Y-94899600D01*
X587586300Y-48400300D02*
X587586300Y-47419200D01*
D11*
X547699300Y-84750200D02*
X533699300Y-84750200D01*
D10*
X519412300Y-122850280D02*
X519412300Y-123849380D01*
X600086300Y-115611500D02*
X600086300Y-114612400D01*
X495599300Y-71750000D02*
X495599300Y-72750400D01*
X337636300Y-56799600D02*
X338437000Y-56799600D01*
X317004330Y-75849600D02*
X317004330Y-81649600D01*
X338437000Y-52700000D02*
X338437000Y-53700400D01*
X357487000Y-62599600D02*
X356686200Y-62599600D01*
X537661300Y-34650400D02*
X537661300Y-37749600D01*
X447974300Y-104799400D02*
X461974300Y-104799400D01*
X515162300Y-119749700D02*
X514361300Y-119749700D01*
D11*
X316861950Y-6075900D02*
X316861725Y-9174900D01*
D10*
X619937300Y-118712100D02*
X619937300Y-115611500D01*
X414349300Y-85749200D02*
X414349300Y-84750200D01*
X395587000Y-56799600D02*
X395587000Y-62599600D01*
X462262300Y-37749600D02*
X462262300Y-43549600D01*
D11*
X533411300Y-5074900D02*
X519412300Y-19073900D01*
D10*
X336054300Y-119749700D02*
X335255100Y-119749700D01*
X485786300Y-62599600D02*
X485786300Y-56799600D01*
X567037300Y-124512220D02*
X566236300Y-124512220D01*
X467024300Y-104799400D02*
X481024300Y-104799400D01*
D11*
X538462300Y-9174900D02*
X552461850Y-9174900D01*
D10*
X486587300Y-65700200D02*
X486587300Y-62599600D01*
X424673300Y-94899600D02*
X424673300Y-91800400D01*
D11*
X533700000Y-71750000D02*
X547699300Y-85749200D01*
D10*
X390536300Y-62599600D02*
X390536300Y-56799600D01*
X428924300Y-94899600D02*
X428924300Y-100699700D01*
X538462300Y-119749700D02*
X537661300Y-119749700D01*
X547699300Y-75849600D02*
X548498300Y-75849600D01*
X309861950Y-19073900D02*
X323861500Y-19073900D01*
X519412300Y-9174900D02*
X519412300Y-14974900D01*
X438962300Y-43549600D02*
X438161300Y-43549600D01*
X505637300Y-14974900D02*
X504836300Y-14974900D01*
X570998300Y-53700400D02*
X570998300Y-56799600D01*
X609899300Y-91800400D02*
X609098300Y-91800400D01*
X558104300Y-73220300D02*
X556379300Y-73220300D01*
X367012000Y-34650400D02*
X366211200Y-34650400D01*
X361961300Y-33650000D02*
X347962000Y-33650000D01*
D11*
X478787075Y-12074400D02*
X478787075Y-9174900D01*
D10*
X371486300Y-62599600D02*
X371486300Y-56799600D01*
X438161300Y-37749600D02*
X438962300Y-37749600D01*
D11*
X376249500Y-84750200D02*
X362249500Y-84750200D01*
D10*
X466736300Y-14974900D02*
X466736300Y-9174900D01*
X331804500Y-72750400D02*
X331005200Y-72750400D01*
X381812100Y-46650200D02*
X381812100Y-43549600D01*
X409874300Y-103800300D02*
X409874300Y-104799400D01*
X391680400Y-119150300D02*
X431304300Y-119150300D01*
X500362300Y-47649200D02*
X514361300Y-47649200D01*
X373867600Y-109849900D02*
X359868300Y-109849900D01*
X472298300Y-75849600D02*
X472298300Y-72750400D01*
X519412300Y-110850300D02*
X518611300Y-110850300D01*
X566236300Y-115611500D02*
X566236300Y-118712100D01*
X590561300Y-6075900D02*
X590561300Y-5074900D01*
X515162300Y-37749600D02*
X515162300Y-34650400D01*
X500873300Y-94899600D02*
X500873300Y-91800400D01*
X609098300Y-56799600D02*
X609899300Y-56799600D01*
D11*
X533412300Y-46650200D02*
X519412300Y-46650200D01*
D10*
X585799300Y-65700200D02*
X586598300Y-65700200D01*
X591362300Y-6075900D02*
X590561300Y-6075900D01*
X374668400Y-110850300D02*
X373867600Y-110850300D01*
X381812100Y-37749600D02*
X381812100Y-34650400D01*
X538462300Y-9174900D02*
X538462300Y-14974900D01*
X609098300Y-9174900D02*
X609899300Y-9174900D01*
X309861950Y-14974900D02*
X309061310Y-14974900D01*
X431304300Y-119749700D02*
X430505300Y-119749700D01*
D11*
X586087000Y-114612670D02*
X600086300Y-128611870D01*
D10*
X609899300Y-65700200D02*
X609899300Y-66699200D01*
X519412300Y-14974900D02*
X518611300Y-14974900D01*
X609098300Y-81649600D02*
X609098300Y-84750200D01*
X563786300Y-47419200D02*
X565511300Y-47419200D01*
X626425300Y-2550900D02*
X626425300Y-131137818D01*
X433687300Y-66699200D02*
X447686300Y-66699200D01*
X400061300Y-43549600D02*
X400061300Y-37749600D01*
X452737300Y-65700200D02*
X452737300Y-66699200D01*
X442411300Y-46650200D02*
X443212300Y-46650200D01*
X323861500Y-9174900D02*
X324662100Y-9174900D01*
X342317500Y-104569200D02*
X344042700Y-104569200D01*
X567037300Y-46650200D02*
X567037300Y-47649200D01*
X347962000Y-14974900D02*
X347161200Y-14974900D01*
X400860700Y-9174900D02*
X400860700Y-6075900D01*
D11*
X409875000Y-90800200D02*
X423874300Y-104799400D01*
D10*
X573299300Y-91349600D02*
X569998300Y-91349600D01*
X447686300Y-62599600D02*
X447686300Y-56799600D01*
D11*
X605137000Y-128611870D02*
X619136300Y-114612670D01*
D10*
X623899300Y-5074900D02*
X609899300Y-5074900D01*
X519412300Y-119749700D02*
X518611300Y-119749700D01*
X452737300Y-53700400D02*
X451936300Y-53700400D01*
X433399300Y-85749200D02*
X433399300Y-84750200D01*
X533411300Y-110850300D02*
X533411300Y-109849900D01*
X499561300Y-46650200D02*
X500362300Y-46650200D01*
D11*
X545462075Y-12074400D02*
X545462075Y-9174900D01*
D10*
X567548300Y-94899600D02*
X567548300Y-91800400D01*
X461461300Y-43549600D02*
X461461300Y-46650200D01*
X609899300Y-100699700D02*
X609098300Y-100699700D01*
X576562300Y-6075900D02*
X575761300Y-6075900D01*
X461974300Y-103800300D02*
X462773300Y-103800300D01*
D11*
X528937000Y-52700000D02*
X542936300Y-66699200D01*
D10*
X537661300Y-37749600D02*
X538462300Y-37749600D01*
X523886300Y-66699200D02*
X523886300Y-65700200D01*
D11*
X447686300Y-5074900D02*
X433687300Y-19073900D01*
D10*
X386062000Y-14974900D02*
X385261200Y-14974900D01*
X500873300Y-91800400D02*
X500074300Y-91800400D01*
X419111300Y-5074900D02*
X405110600Y-5074900D01*
X337293200Y-92270300D02*
X337293200Y-95500400D01*
D11*
X371774500Y-90800200D02*
X385773800Y-104799400D01*
D10*
X359868300Y-110850300D02*
X359067500Y-110850300D01*
X585286300Y-105462200D02*
X585286300Y-108561400D01*
X394786200Y-56799600D02*
X395587000Y-56799600D01*
X481823300Y-94899600D02*
X481823300Y-91800400D01*
D11*
X390537000Y-65700200D02*
X376537000Y-65700200D01*
D10*
X428123300Y-103800300D02*
X428924300Y-103800300D01*
D11*
X490549300Y-84750200D02*
X476549300Y-84750200D01*
D10*
X395298800Y-85749200D02*
X395298800Y-84750200D01*
X380498700Y-75849600D02*
X381299500Y-75849600D01*
X552749300Y-94899600D02*
X552749300Y-95500400D01*
X343712100Y-37749600D02*
X343712100Y-34650400D01*
X590137300Y-38350400D02*
X589311300Y-38350400D01*
D11*
X405110600Y-5074900D02*
X419111300Y-19073900D01*
D10*
X347161200Y-37749600D02*
X347962000Y-37749600D01*
X585286300Y-96561500D02*
X585286300Y-99662100D01*
X609098300Y-100699700D02*
X609098300Y-103800300D01*
D11*
X552461300Y-5074900D02*
X538462300Y-19073900D01*
D10*
X424160300Y-37749600D02*
X424160300Y-43549600D01*
X477062300Y-46650200D02*
X477062300Y-43549600D01*
X438161300Y-46650200D02*
X438962300Y-46650200D01*
X533411300Y-5074900D02*
X519412300Y-5074900D01*
D11*
X552462300Y-122850280D02*
X538462300Y-122850280D01*
D10*
X452449300Y-71750000D02*
X438449300Y-71750000D01*
X405110600Y-5074900D02*
X405110600Y-6075900D01*
X415148300Y-84750200D02*
X415148300Y-81649600D01*
X445305300Y-109849900D02*
X431304300Y-109849900D01*
X568274300Y-95500400D02*
X566749300Y-95500400D01*
X558762300Y-47419200D02*
X560485300Y-47419200D01*
X414637300Y-53700400D02*
X413836300Y-53700400D01*
D11*
X419111300Y-5074900D02*
X405110600Y-19073900D01*
X343199500Y-71750000D02*
X357198800Y-85749200D01*
D10*
X452449300Y-85749200D02*
X452449300Y-84750200D01*
X477062300Y-43549600D02*
X476261300Y-43549600D01*
X337293200Y-104569200D02*
X339017100Y-104569200D01*
X519412300Y-43549600D02*
X518611300Y-43549600D01*
X338437000Y-66699200D02*
X352436300Y-66699200D01*
X336054300Y-110850300D02*
X335255100Y-110850300D01*
X538462300Y-110850300D02*
X537661300Y-110850300D01*
X414637300Y-66699200D02*
X428636300Y-66699200D01*
X462262300Y-34650400D02*
X461461300Y-34650400D01*
X372287100Y-65700200D02*
X372287100Y-62599600D01*
X528136300Y-56799600D02*
X528937300Y-56799600D01*
X386654300Y-123619230D02*
X386654300Y-124599040D01*
X461461300Y-34650400D02*
X461461300Y-37749600D01*
X471787300Y-6075900D02*
X470986300Y-6075900D01*
D11*
X586087000Y-109561900D02*
X600086300Y-95562700D01*
D10*
X624698300Y-6075900D02*
X623899300Y-6075900D01*
X359868300Y-123849380D02*
X373867600Y-123849380D01*
X433687300Y-14974900D02*
X432886300Y-14974900D01*
X452737300Y-62599600D02*
X451936300Y-62599600D01*
D11*
X616899075Y-12074400D02*
X616899075Y-9174900D01*
X483549300Y-84750200D02*
X483549075Y-87849200D01*
D10*
X362762100Y-14974900D02*
X361961300Y-14974900D01*
X557512300Y-14974900D02*
X556711300Y-14974900D01*
D11*
X374012000Y-46650200D02*
X374011775Y-49749200D01*
D10*
X485786300Y-6075900D02*
X485786300Y-5074900D01*
D11*
X312243400Y-109850180D02*
X326242700Y-123849380D01*
D10*
X390023700Y-100699700D02*
X390023700Y-103800300D01*
X470986300Y-65700200D02*
X471787300Y-65700200D01*
X505124300Y-104799400D02*
X519124300Y-104799400D01*
X519124300Y-100699700D02*
X519124300Y-94899600D01*
X321768200Y-100699700D02*
X320967600Y-100699700D01*
X433687300Y-18074900D02*
X433687300Y-19073900D01*
X409586300Y-62599600D02*
X409586300Y-56799600D01*
X423874300Y-104799400D02*
X423874300Y-103800300D01*
X410387300Y-65700200D02*
X410387300Y-62599600D01*
X359868300Y-113949600D02*
X359868300Y-119749700D01*
D11*
X412110600Y-46650200D02*
X412110375Y-49749200D01*
D10*
X552461300Y-122850280D02*
X553262300Y-122850280D01*
D11*
X466736300Y-19073900D02*
X452737300Y-5074900D01*
D10*
X404823800Y-94899600D02*
X405623200Y-94899600D01*
X538462300Y-123849380D02*
X552461300Y-123849380D01*
D11*
X343054300Y-122850280D02*
X343054075Y-125949280D01*
D10*
X556379300Y-76450400D02*
X555555300Y-76450400D01*
X347962000Y-5074900D02*
X347962000Y-6075900D01*
X391680400Y-123619230D02*
X391680400Y-119150300D01*
X414349300Y-75849600D02*
X415148300Y-75849600D01*
X585286300Y-99662100D02*
X586087300Y-99662100D01*
X316205080Y-81649600D02*
X316205080Y-84750200D01*
D11*
X452737300Y-19073900D02*
X466736300Y-5074900D01*
D10*
X433399300Y-71750000D02*
X419399300Y-71750000D01*
X505637300Y-62599600D02*
X504836300Y-62599600D01*
X619136300Y-114612400D02*
X605137300Y-114612400D01*
X347962000Y-37749600D02*
X347962000Y-43549600D01*
X623899300Y-47649200D02*
X623899300Y-46650200D01*
D11*
X366868300Y-122850280D02*
X366868075Y-125949280D01*
D10*
X481312300Y-37749600D02*
X481312300Y-43549600D01*
X533411300Y-19073900D02*
X533411300Y-18074900D01*
D11*
X342900000Y-46650200D02*
X328900000Y-46650200D01*
D10*
X389954900Y-123619230D02*
X391680400Y-123619230D01*
X534212300Y-9174900D02*
X534212300Y-6075900D01*
X500873300Y-103800300D02*
X500873300Y-100699700D01*
X313823830Y-53700400D02*
X313823830Y-56799600D01*
X367523200Y-91800400D02*
X366723800Y-91800400D01*
X391337100Y-53700400D02*
X390536300Y-53700400D01*
X623899300Y-71750000D02*
X609899300Y-71750000D01*
D11*
X354962000Y-46650200D02*
X354961775Y-49749200D01*
D10*
X504836300Y-65700200D02*
X505637300Y-65700200D01*
X499561300Y-119749700D02*
X499561300Y-122850280D01*
X430505300Y-110850300D02*
X430505300Y-113949600D01*
D11*
X609900000Y-71750000D02*
X623899300Y-85749200D01*
D10*
X519124300Y-104799400D02*
X519124300Y-103800300D01*
X500074300Y-103800300D02*
X500873300Y-103800300D01*
X564654300Y-76450400D02*
X563130300Y-76450400D01*
X524174300Y-103800300D02*
X524174300Y-104799400D01*
D11*
X490837300Y-9174900D02*
X504836850Y-9174900D01*
D10*
X357487000Y-52700000D02*
X357487000Y-53700400D01*
D11*
X405112000Y-47649200D02*
X419111300Y-33650000D01*
D10*
X519412300Y-33650000D02*
X519412300Y-34650400D01*
X381011300Y-46650200D02*
X381812100Y-46650200D01*
X552749300Y-100699700D02*
X551948300Y-100699700D01*
X316205080Y-72750400D02*
X316205080Y-75849600D01*
X380498700Y-84750200D02*
X381299500Y-84750200D01*
X552461300Y-9174900D02*
X553262300Y-9174900D01*
X528649300Y-81649600D02*
X528649300Y-75849600D01*
X362762100Y-46650200D02*
X362762100Y-43549600D01*
X580179300Y-76450400D02*
X578655300Y-76450400D01*
X476261300Y-34650400D02*
X476261300Y-33650000D01*
X481024300Y-94899600D02*
X481823300Y-94899600D01*
X404311200Y-46650200D02*
X405110600Y-46650200D01*
X312243210Y-122850280D02*
X312243210Y-123849380D01*
X567037300Y-115611500D02*
X566236300Y-115611500D01*
D11*
X485787300Y-6075900D02*
X471787300Y-6075900D01*
D10*
X386654300Y-110399700D02*
X386654300Y-111320200D01*
X385261200Y-18074900D02*
X386062000Y-18074900D01*
X381299500Y-81649600D02*
X380498700Y-81649600D01*
X457499300Y-75849600D02*
X457499300Y-81649600D01*
D11*
X405110600Y-9174900D02*
X419110150Y-9174900D01*
D10*
X433687300Y-65700200D02*
X433687300Y-66699200D01*
D11*
X459737300Y-6075900D02*
X459737075Y-9174900D01*
D10*
X462262300Y-46650200D02*
X462262300Y-47649200D01*
X600086300Y-114612400D02*
X586087300Y-114612400D01*
X569998300Y-105550400D02*
X573299300Y-105550400D01*
X514361300Y-122850280D02*
X515162300Y-122850280D01*
D11*
X616899300Y-46650200D02*
X616899075Y-49749200D01*
D10*
X326242700Y-123849380D02*
X326242700Y-122850280D01*
X557512300Y-19073900D02*
X571511300Y-19073900D01*
X518611300Y-119749700D02*
X518611300Y-122850280D01*
X600086300Y-95562500D02*
X586087300Y-95562500D01*
X381812100Y-18074900D02*
X381812100Y-14974900D01*
X405623200Y-100699700D02*
X404823800Y-100699700D01*
X381011300Y-47649200D02*
X381011300Y-46650200D01*
X321768200Y-95500400D02*
X320242700Y-95500400D01*
X409874300Y-94899600D02*
X409874300Y-100699700D01*
X452737300Y-6075900D02*
X451936300Y-6075900D01*
X490036300Y-9174900D02*
X490837300Y-9174900D01*
X352436300Y-53700400D02*
X352436300Y-52700000D01*
X486074300Y-90800000D02*
X486074300Y-91800400D01*
X335767700Y-100100300D02*
X337293200Y-100100300D01*
X492504300Y-117349200D02*
X492504300Y-114550400D01*
X342398800Y-84750200D02*
X343199500Y-84750200D01*
X442924300Y-104799400D02*
X442924300Y-103800300D01*
X600086300Y-108561400D02*
X600887300Y-108561400D01*
X352724500Y-90800000D02*
X352724500Y-91800400D01*
X367012000Y-5074900D02*
X367012000Y-6075900D01*
X409874300Y-91800400D02*
X409073300Y-91800400D01*
X504836300Y-18074900D02*
X505637300Y-18074900D01*
X448487300Y-53700400D02*
X447686300Y-53700400D01*
X523886300Y-62599600D02*
X523886300Y-56799600D01*
X432886300Y-53700400D02*
X432886300Y-56799600D01*
X528649300Y-84750200D02*
X529448300Y-84750200D01*
X409073300Y-103800300D02*
X409874300Y-103800300D01*
X509086300Y-56799600D02*
X509887300Y-56799600D01*
X381812100Y-9174900D02*
X381812100Y-6075900D01*
X547186300Y-65700200D02*
X547987300Y-65700200D01*
D11*
X386062000Y-9174900D02*
X400061300Y-9174900D01*
D10*
X400349500Y-75849600D02*
X400349500Y-81649600D01*
X609098300Y-53700400D02*
X609098300Y-56799600D01*
X609899300Y-52700000D02*
X609899300Y-53700400D01*
X311442580Y-110850300D02*
X311442580Y-113949600D01*
X519412300Y-37749600D02*
X519412300Y-43549600D01*
X486654300Y-124599040D02*
X489955300Y-124599040D01*
X609098300Y-62599600D02*
X609098300Y-65700200D01*
X504323300Y-103800300D02*
X505124300Y-103800300D01*
X445305300Y-119749700D02*
X445305300Y-119150300D01*
X585799300Y-52700000D02*
X571799300Y-52700000D01*
X442924300Y-100699700D02*
X442924300Y-94899600D01*
X315218390Y-92270300D02*
X313493100Y-92270300D01*
X546198300Y-92270300D02*
X544474300Y-92270300D01*
X485786300Y-19073900D02*
X485786300Y-18074900D01*
D11*
X383537000Y-65700200D02*
X383536775Y-68799200D01*
D10*
X624698300Y-34650400D02*
X623899300Y-34650400D01*
X371774500Y-100699700D02*
X370973700Y-100699700D01*
D11*
X354962000Y-6075900D02*
X354961775Y-9174900D01*
D10*
X566749300Y-104799400D02*
X566749300Y-103800300D01*
X519124300Y-91800400D02*
X519124300Y-90800000D01*
D11*
X335912000Y-46650200D02*
X335911775Y-49749200D01*
D10*
X373867600Y-122850280D02*
X374668400Y-122850280D01*
X339017100Y-92270300D02*
X337293200Y-92270300D01*
X362762100Y-6075900D02*
X361961300Y-6075900D01*
X476549300Y-81649600D02*
X475748300Y-81649600D01*
X486654300Y-111320200D02*
X484929300Y-111320200D01*
X552749300Y-95500400D02*
X551224300Y-95500400D01*
X561403300Y-72299600D02*
X558104300Y-72299600D01*
X486074300Y-91800400D02*
X485273300Y-91800400D01*
D11*
X443212000Y-33650000D02*
X457211300Y-47649200D01*
D10*
X362249500Y-75849600D02*
X362249500Y-81649600D01*
D11*
X347962000Y-47649200D02*
X361961300Y-33650000D01*
X336055800Y-123849380D02*
X350055100Y-109850180D01*
D10*
X495599300Y-81649600D02*
X494798300Y-81649600D01*
X386062000Y-46650200D02*
X386062000Y-47649200D01*
X424673300Y-100699700D02*
X423874300Y-100699700D01*
X342398800Y-72750400D02*
X342398800Y-75849600D01*
D11*
X381012000Y-46650200D02*
X367012000Y-46650200D01*
X428637300Y-65700200D02*
X414637300Y-65700200D01*
X459737300Y-65700200D02*
X459737075Y-68799200D01*
D10*
X438161300Y-47649200D02*
X438161300Y-46650200D01*
X309061310Y-43549600D02*
X309061310Y-46650200D01*
X566749300Y-90800000D02*
X552749300Y-90800000D01*
X566236300Y-127611410D02*
X567037300Y-127611410D01*
D11*
X314624700Y-52700000D02*
X328624000Y-66699200D01*
D10*
X404311200Y-6075900D02*
X404311200Y-9174900D01*
D11*
X433687300Y-9174900D02*
X447686850Y-9174900D01*
D10*
X371774500Y-91800400D02*
X370973700Y-91800400D01*
X339017100Y-91349600D02*
X339017100Y-92270300D01*
X623899300Y-104799400D02*
X623899300Y-103800300D01*
X486654300Y-123619230D02*
X486654300Y-124599040D01*
D11*
X350199500Y-84750200D02*
X350199275Y-87849200D01*
D10*
X572312300Y-9174900D02*
X572312300Y-6075900D01*
X447173300Y-91800400D02*
X447173300Y-94899600D01*
X537661300Y-113949600D02*
X538462300Y-113949600D01*
X457499300Y-71750000D02*
X457499300Y-72750400D01*
D11*
X533412300Y-122850280D02*
X519412300Y-122850280D01*
D10*
X386062000Y-18074900D02*
X386062000Y-19073900D01*
X505124300Y-103800300D02*
X505124300Y-104799400D01*
X509599300Y-71750000D02*
X495599300Y-71750000D01*
X323861500Y-6075900D02*
X323861500Y-5074900D01*
X547699300Y-84750200D02*
X548498300Y-84750200D01*
X609098300Y-6075900D02*
X609098300Y-9174900D01*
D11*
X623899300Y-65700200D02*
X609899300Y-65700200D01*
D10*
X424160300Y-43549600D02*
X423361300Y-43549600D01*
X445305300Y-110850300D02*
X445305300Y-109849900D01*
D11*
X336055800Y-109850180D02*
X350055100Y-123849380D01*
D10*
X586598300Y-53700400D02*
X585799300Y-53700400D01*
X327043300Y-122850280D02*
X327043300Y-119749700D01*
X519412300Y-47649200D02*
X533411300Y-47649200D01*
X586087300Y-115611500D02*
X585286300Y-115611500D01*
X347962000Y-33650000D02*
X347962000Y-34650400D01*
D11*
X393061775Y-12074400D02*
X393061775Y-9174900D01*
D10*
X367523200Y-103800300D02*
X367523200Y-100699700D01*
X552461300Y-5074900D02*
X538462300Y-5074900D01*
D11*
X412110600Y-6075900D02*
X412110375Y-9174900D01*
D10*
X419399300Y-85749200D02*
X433399300Y-85749200D01*
X456698300Y-72750400D02*
X456698300Y-75849600D01*
X552749300Y-90800000D02*
X552749300Y-91800400D01*
X405110600Y-47649200D02*
X419111300Y-47649200D01*
D11*
X526412300Y-6075900D02*
X526412075Y-9174900D01*
D10*
X375736200Y-62599600D02*
X375736200Y-65700200D01*
D11*
X433399300Y-84750200D02*
X419399300Y-84750200D01*
X545462300Y-122850280D02*
X545462075Y-125949280D01*
D10*
X386062000Y-43549600D02*
X385261200Y-43549600D01*
X524687300Y-62599600D02*
X523886300Y-62599600D01*
X584287300Y-47419200D02*
X584287300Y-48400300D01*
X457211300Y-33650000D02*
X443212300Y-33650000D01*
X443723300Y-100699700D02*
X442924300Y-100699700D01*
X386062000Y-5074900D02*
X386062000Y-6075900D01*
X514361300Y-119749700D02*
X514361300Y-113949600D01*
X386062000Y-37749600D02*
X386062000Y-43549600D01*
X343199500Y-72750400D02*
X342398800Y-72750400D01*
X546198300Y-91349600D02*
X546198300Y-92270300D01*
X318517400Y-92270300D02*
X318517400Y-91349600D01*
X504836300Y-52700000D02*
X490837300Y-52700000D01*
X609098300Y-37749600D02*
X609899300Y-37749600D01*
X609098300Y-84750200D02*
X609899300Y-84750200D01*
D11*
X412110375Y-12074400D02*
X412110375Y-9174900D01*
D10*
X328624000Y-65700200D02*
X329423200Y-65700200D01*
X552461300Y-37749600D02*
X553262300Y-37749600D01*
D11*
X538462000Y-123849380D02*
X552461300Y-109850180D01*
D10*
X505124300Y-94899600D02*
X505124300Y-100699700D01*
X373867600Y-110850300D02*
X373867600Y-109849900D01*
D11*
X616899300Y-6075900D02*
X616899075Y-9174900D01*
D10*
X337636300Y-53700400D02*
X337636300Y-56799600D01*
X456698300Y-75849600D02*
X457499300Y-75849600D01*
X514361300Y-33650000D02*
X500362300Y-33650000D01*
X626425300Y-131137818D02*
X307337385Y-131137818D01*
X372287100Y-53700400D02*
X371486300Y-53700400D01*
X452737300Y-52700000D02*
X452737300Y-53700400D01*
D11*
X347962000Y-9174900D02*
X361961300Y-9174900D01*
D10*
X380498700Y-72750400D02*
X380498700Y-75849600D01*
X400860700Y-37749600D02*
X400860700Y-34650400D01*
X456698300Y-81649600D02*
X456698300Y-84750200D01*
X323861500Y-34650400D02*
X323861500Y-33650000D01*
X414637300Y-56799600D02*
X414637300Y-62599600D01*
X552749300Y-104799400D02*
X566749300Y-104799400D01*
X500362300Y-37749600D02*
X500362300Y-43549600D01*
D11*
X321624460Y-65700200D02*
X321624235Y-68799200D01*
X609900000Y-66699200D02*
X623899300Y-52700000D01*
D10*
X504836300Y-14974900D02*
X504836300Y-9174900D01*
X356686200Y-56799600D02*
X357487000Y-56799600D01*
X471787300Y-5074900D02*
X471787300Y-6075900D01*
X415148300Y-75849600D02*
X415148300Y-72750400D01*
X609899300Y-53700400D02*
X609098300Y-53700400D01*
X490036300Y-14974900D02*
X490036300Y-18074900D01*
X500362300Y-119749700D02*
X499561300Y-119749700D01*
X366211200Y-43549600D02*
X366211200Y-46650200D01*
X344042700Y-95500400D02*
X344042700Y-92270300D01*
X495311300Y-43549600D02*
X495311300Y-37749600D01*
X609098300Y-103800300D02*
X609899300Y-103800300D01*
X566236300Y-43549600D02*
X566236300Y-46650200D01*
X605137300Y-118712100D02*
X605137300Y-124512220D01*
X452737300Y-5074900D02*
X452737300Y-6075900D01*
X491348300Y-84750200D02*
X491348300Y-81649600D01*
X624698300Y-46650200D02*
X624698300Y-43549600D01*
X452449300Y-72750400D02*
X452449300Y-71750000D01*
D11*
X367012000Y-33650000D02*
X381011300Y-47649200D01*
D10*
X447974300Y-91800400D02*
X447173300Y-91800400D01*
X524687300Y-53700400D02*
X523886300Y-53700400D01*
D11*
X505125000Y-90800200D02*
X519124300Y-104799400D01*
D10*
X337293200Y-95500400D02*
X335767700Y-95500400D01*
X386573200Y-94899600D02*
X386573200Y-91800400D01*
X323861500Y-19073900D02*
X323861500Y-18074900D01*
X523373300Y-94899600D02*
X524174300Y-94899600D01*
X623899300Y-91800400D02*
X623899300Y-90800000D01*
X361961300Y-14974900D02*
X361961300Y-9174900D01*
X624698300Y-72750400D02*
X623899300Y-72750400D01*
X591362300Y-14974900D02*
X590561300Y-14974900D01*
X623899300Y-18074900D02*
X624698300Y-18074900D01*
X578655300Y-75849600D02*
X579454300Y-75849600D01*
X390023700Y-94899600D02*
X390824500Y-94899600D01*
X466736300Y-56799600D02*
X467537300Y-56799600D01*
D11*
X471787000Y-52700000D02*
X485786300Y-66699200D01*
D10*
X585286300Y-118712100D02*
X586087300Y-118712100D01*
X484929300Y-114550400D02*
X445305300Y-114550400D01*
X347962000Y-9174900D02*
X347962000Y-14974900D01*
X347161200Y-6075900D02*
X347161200Y-9174900D01*
X589311300Y-38350400D02*
X589311300Y-35120300D01*
X451936300Y-18074900D02*
X452737300Y-18074900D01*
X563853300Y-72750400D02*
X563853300Y-75849600D01*
X581904300Y-85519200D02*
X581904300Y-86500300D01*
X428123300Y-100699700D02*
X428123300Y-103800300D01*
X533411300Y-46650200D02*
X534212300Y-46650200D01*
X581904300Y-73220300D02*
X580179300Y-73220300D01*
X470986300Y-53700400D02*
X470986300Y-56799600D01*
X461974300Y-91800400D02*
X461974300Y-90800000D01*
X350055100Y-123849380D02*
X350055100Y-122850280D01*
X458012300Y-37749600D02*
X458012300Y-34650400D01*
X419111300Y-33650000D02*
X405110600Y-33650000D01*
X396098200Y-81649600D02*
X395298800Y-81649600D01*
D11*
X609899300Y-9174900D02*
X623898850Y-9174900D01*
X564656000Y-85749200D02*
X578655300Y-71750000D01*
D10*
X494798300Y-75849600D02*
X495599300Y-75849600D01*
X405110600Y-34650400D02*
X404311200Y-34650400D01*
X609899300Y-9174900D02*
X609899300Y-14974900D01*
X419910300Y-37749600D02*
X419910300Y-34650400D01*
D11*
X567037000Y-128611870D02*
X581036300Y-114612670D01*
D10*
X547186300Y-62599600D02*
X547186300Y-65700200D01*
X344042700Y-104569200D02*
X344042700Y-98299200D01*
X567037300Y-128611870D02*
X581036300Y-128611870D01*
D11*
X361962000Y-6075900D02*
X347962000Y-6075900D01*
D10*
X528937300Y-66699200D02*
X542936300Y-66699200D01*
X538462300Y-6075900D02*
X537661300Y-6075900D01*
X442411300Y-34650400D02*
X442411300Y-37749600D01*
X410387300Y-62599600D02*
X409586300Y-62599600D01*
X485273300Y-100699700D02*
X485273300Y-103800300D01*
X400061300Y-5074900D02*
X386062000Y-5074900D01*
X534212300Y-46650200D02*
X534212300Y-43549600D01*
X543649300Y-98299200D02*
X544474300Y-98299200D01*
X467537300Y-53700400D02*
X466736300Y-53700400D01*
X573299300Y-92270300D02*
X573299300Y-91349600D01*
X563786300Y-48400300D02*
X563786300Y-47419200D01*
X367012000Y-47649200D02*
X381011300Y-47649200D01*
X309061310Y-9174900D02*
X309861950Y-9174900D01*
X515162300Y-110850300D02*
X514361300Y-110850300D01*
X581837300Y-34650400D02*
X581036300Y-34650400D01*
X315218390Y-104569200D02*
X315218390Y-105550400D01*
X381299500Y-84750200D02*
X381299500Y-85749200D01*
X584287300Y-34199600D02*
X584287300Y-35120300D01*
X510398300Y-72750400D02*
X509599300Y-72750400D01*
X591362300Y-9174900D02*
X591362300Y-6075900D01*
X457211300Y-34650400D02*
X457211300Y-33650000D01*
X391337100Y-56799600D02*
X391337100Y-53700400D01*
X361961300Y-9174900D02*
X362762100Y-9174900D01*
X400349500Y-81649600D02*
X399548700Y-81649600D01*
D11*
X350054300Y-122850280D02*
X336054300Y-122850280D01*
X485787300Y-65700200D02*
X471787300Y-65700200D01*
D10*
X433687300Y-5074900D02*
X433687300Y-6075900D01*
X335767700Y-100699700D02*
X335767700Y-100100300D01*
X600887300Y-108561400D02*
X600887300Y-105462200D01*
X490837300Y-6075900D02*
X490036300Y-6075900D01*
X571511300Y-19073900D02*
X571511300Y-18074900D01*
X395587000Y-62599600D02*
X394786200Y-62599600D01*
X585286300Y-115611500D02*
X585286300Y-118712100D01*
X428924300Y-103800300D02*
X428924300Y-104799400D01*
X381299500Y-85749200D02*
X395298800Y-85749200D01*
D11*
X376537000Y-52700000D02*
X390536300Y-66699200D01*
D10*
X582562300Y-47419200D02*
X584287300Y-47419200D01*
X560485300Y-48400300D02*
X563786300Y-48400300D01*
X321768200Y-90800000D02*
X321768200Y-91800400D01*
X380498700Y-81649600D02*
X380498700Y-84750200D01*
X447686300Y-6075900D02*
X447686300Y-5074900D01*
X443723300Y-103800300D02*
X443723300Y-100699700D01*
X409073300Y-91800400D02*
X409073300Y-94899600D01*
D11*
X440687300Y-65700200D02*
X440687075Y-68799200D01*
D10*
X563853300Y-81649600D02*
X563853300Y-84750200D01*
X362249500Y-81649600D02*
X361448700Y-81649600D01*
D11*
X547987000Y-66699200D02*
X561986300Y-52700000D01*
D10*
X571511300Y-9174900D02*
X572312300Y-9174900D01*
D11*
X542937300Y-65700200D02*
X528937300Y-65700200D01*
D10*
X524174300Y-104799400D02*
X538174300Y-104799400D01*
D11*
X393062000Y-6075900D02*
X393061775Y-9174900D01*
D10*
X381299500Y-75849600D02*
X381299500Y-81649600D01*
X423361300Y-34650400D02*
X423361300Y-37749600D01*
X558762300Y-35120300D02*
X558762300Y-38350400D01*
X381011300Y-37749600D02*
X381812100Y-37749600D01*
D11*
X519412300Y-5074900D02*
X533411300Y-19073900D01*
D10*
X514649300Y-85749200D02*
X528649300Y-85749200D01*
X373867600Y-113949600D02*
X374668400Y-113949600D01*
X362762100Y-18074900D02*
X362762100Y-14974900D01*
X534212300Y-6075900D02*
X533411300Y-6075900D01*
X581904300Y-86500300D02*
X585205300Y-86500300D01*
X495311300Y-46650200D02*
X496112300Y-46650200D01*
X519923300Y-91800400D02*
X519124300Y-91800400D01*
X321768200Y-94899600D02*
X321768200Y-95500400D01*
X418598300Y-84750200D02*
X419399300Y-84750200D01*
X385773800Y-100699700D02*
X385773800Y-94899600D01*
X399548700Y-81649600D02*
X399548700Y-84750200D01*
D11*
X557512300Y-5074900D02*
X571511300Y-19073900D01*
D10*
X366211200Y-9174900D02*
X367012000Y-9174900D01*
X528136300Y-62599600D02*
X528136300Y-65700200D01*
X366211200Y-34650400D02*
X366211200Y-37749600D01*
D11*
X485786300Y-19073900D02*
X471787300Y-5074900D01*
X486075000Y-104799400D02*
X500074300Y-90800200D01*
D10*
X405110600Y-46650200D02*
X405110600Y-47649200D01*
X600887300Y-105462200D02*
X600086300Y-105462200D01*
X585286300Y-108561400D02*
X586087300Y-108561400D01*
X313493100Y-92270300D02*
X313493100Y-95500400D01*
D11*
X323861950Y-46650200D02*
X309861950Y-46650200D01*
D10*
X447974300Y-103800300D02*
X447974300Y-104799400D01*
X579454300Y-84750200D02*
X579454300Y-81649600D01*
D11*
X545462300Y-6075900D02*
X545462075Y-9174900D01*
D10*
X552461300Y-19073900D02*
X552461300Y-18074900D01*
D11*
X552750000Y-104799400D02*
X566749300Y-90800200D01*
X476550000Y-71750000D02*
X490549300Y-85749200D01*
D10*
X568274300Y-104569200D02*
X569998300Y-104569200D01*
X504836300Y-56799600D02*
X505637300Y-56799600D01*
X326242700Y-110850300D02*
X326242700Y-109849900D01*
D11*
X521649300Y-84750200D02*
X521649075Y-87849200D01*
D10*
X467537300Y-65700200D02*
X467537300Y-62599600D01*
X567037300Y-47649200D02*
X581036300Y-47649200D01*
X414637300Y-52700000D02*
X414637300Y-53700400D01*
X376537000Y-53700400D02*
X375736200Y-53700400D01*
X391337100Y-65700200D02*
X391337100Y-62599600D01*
X323861500Y-46650200D02*
X324662100Y-46650200D01*
X623899300Y-84750200D02*
X624698300Y-84750200D01*
X457499300Y-72750400D02*
X456698300Y-72750400D01*
X328912000Y-37749600D02*
X328912000Y-43549600D01*
X314624460Y-66699200D02*
X328624000Y-66699200D01*
X328624000Y-62599600D02*
X328624000Y-56799600D01*
X500873300Y-100699700D02*
X500074300Y-100699700D01*
X548498300Y-72750400D02*
X547699300Y-72750400D01*
X566749300Y-100100300D02*
X568274300Y-100100300D01*
D11*
X571800000Y-66699200D02*
X585799300Y-52700000D01*
D10*
X538174300Y-103800300D02*
X538973300Y-103800300D01*
D11*
X590562300Y-6075900D02*
X576562300Y-6075900D01*
D10*
X400860700Y-46650200D02*
X400860700Y-43549600D01*
X429437300Y-56799600D02*
X429437300Y-53700400D01*
X470986300Y-18074900D02*
X471787300Y-18074900D01*
X431304300Y-110850300D02*
X430505300Y-110850300D01*
X309861950Y-6075900D02*
X309061310Y-6075900D01*
X335767700Y-95500400D02*
X335767700Y-94899600D01*
X361961300Y-5074900D02*
X347962000Y-5074900D01*
X433687300Y-53700400D02*
X432886300Y-53700400D01*
D11*
X576562300Y-19073900D02*
X590561300Y-5074900D01*
D10*
X312667630Y-98299200D02*
X313493100Y-98299200D01*
X399548700Y-72750400D02*
X399548700Y-75849600D01*
X609899300Y-43549600D02*
X609098300Y-43549600D01*
X556379300Y-73220300D02*
X556379300Y-76450400D01*
D11*
X376537000Y-66699200D02*
X390536300Y-52700000D01*
D10*
X324662100Y-9174900D02*
X324662100Y-6075900D01*
D11*
X452737300Y-9174900D02*
X466736850Y-9174900D01*
X554987300Y-65700200D02*
X554987075Y-68799200D01*
D10*
X335767700Y-94899600D02*
X336568300Y-94899600D01*
X581036300Y-47649200D02*
X581036300Y-46650200D01*
X471787300Y-18074900D02*
X471787300Y-19073900D01*
X344042700Y-98299200D02*
X344868200Y-98299200D01*
X413836300Y-53700400D02*
X413836300Y-56799600D01*
X472298300Y-81649600D02*
X471499300Y-81649600D01*
X438962300Y-34650400D02*
X438161300Y-34650400D01*
X624698300Y-91800400D02*
X623899300Y-91800400D01*
X359868300Y-119749700D02*
X359067500Y-119749700D01*
X447686300Y-18074900D02*
X448487300Y-18074900D01*
X556711300Y-9174900D02*
X557512300Y-9174900D01*
X438962300Y-46650200D02*
X438962300Y-43549600D01*
D11*
X528649300Y-84750200D02*
X514649300Y-84750200D01*
D10*
X561986300Y-62599600D02*
X561986300Y-56799600D01*
X547186300Y-53700400D02*
X547186300Y-56799600D01*
X509086300Y-53700400D02*
X509086300Y-56799600D01*
X405623200Y-94899600D02*
X405623200Y-91800400D01*
X342398800Y-75849600D02*
X343199500Y-75849600D01*
X623899300Y-53700400D02*
X623899300Y-52700000D01*
X519412300Y-6075900D02*
X518611300Y-6075900D01*
X419399300Y-84750200D02*
X419399300Y-85749200D01*
X445305300Y-122850280D02*
X446104300Y-122850280D01*
X609899300Y-75849600D02*
X609899300Y-81649600D01*
X623899300Y-52700000D02*
X609899300Y-52700000D01*
X442411300Y-43549600D02*
X442411300Y-46650200D01*
X581036300Y-33650000D02*
X567037300Y-33650000D01*
X318517400Y-105550400D02*
X318517400Y-104569200D01*
X430505300Y-122850280D02*
X431304300Y-122850280D01*
X490036300Y-53700400D02*
X490036300Y-56799600D01*
X385261200Y-6075900D02*
X385261200Y-9174900D01*
X476549300Y-75849600D02*
X476549300Y-81649600D01*
X399548700Y-84750200D02*
X400349500Y-84750200D01*
X405110600Y-19073900D02*
X419111300Y-19073900D01*
X575761300Y-9174900D02*
X576562300Y-9174900D01*
D11*
X593087300Y-108561400D02*
X593087075Y-111660400D01*
D10*
X338437000Y-56799600D02*
X338437000Y-62599600D01*
X624698300Y-37749600D02*
X624698300Y-34650400D01*
X514361300Y-43549600D02*
X514361300Y-37749600D01*
X381011300Y-9174900D02*
X381812100Y-9174900D01*
D11*
X488312300Y-46650200D02*
X488312075Y-49749200D01*
D10*
X518611300Y-122850280D02*
X519412300Y-122850280D01*
X342911300Y-46650200D02*
X343712100Y-46650200D01*
X518611300Y-110850300D02*
X518611300Y-113949600D01*
D11*
X519412000Y-109850180D02*
X533411300Y-123849380D01*
D10*
X443212300Y-33650000D02*
X443212300Y-34650400D01*
D11*
X567037000Y-47649200D02*
X581036300Y-33650000D01*
X364487000Y-65700200D02*
X364486775Y-68799200D01*
D10*
X570998300Y-62599600D02*
X570998300Y-65700200D01*
X575024300Y-104569200D02*
X575024300Y-98299200D01*
X329423200Y-56799600D02*
X329423200Y-53700400D01*
D11*
X386062000Y-33650000D02*
X400061300Y-47649200D01*
D10*
X352724500Y-100699700D02*
X351923700Y-100699700D01*
D11*
X362249500Y-71750000D02*
X376248800Y-85749200D01*
X495600000Y-71750000D02*
X509599300Y-85749200D01*
X452737000Y-66699200D02*
X466736300Y-52700000D01*
D10*
X376537000Y-66699200D02*
X390536300Y-66699200D01*
D11*
X514362300Y-122850280D02*
X500362300Y-122850280D01*
D10*
X481823300Y-100699700D02*
X481024300Y-100699700D01*
X542936300Y-52700000D02*
X528937300Y-52700000D01*
X457499300Y-85749200D02*
X471499300Y-85749200D01*
X419111300Y-34650400D02*
X419111300Y-33650000D01*
X500074300Y-91800400D02*
X500074300Y-90800000D01*
M02*
